<svg xmlns="http://www.w3.org/2000/svg" width="174" height="58" fill="none"><path d="M66.468 31.819l-4.14-2.825c-1.618-1.14-2.324-2.18-2.324-3.419 0-1.586 1.314-2.575 3.182-2.575 2.375 0 3.486 1.089 4.9 1.089 1.11 0 1.867-.743 1.867-1.833 0-.792-.404-1.437-1.465-1.932-1.667-.792-3.485-1.09-5.455-1.09-2.072 0-3.89.595-5.202 1.587a8.838 8.838 0 00-.758.643c-1.515 1.587-2.777 3.914-3.788 7.184l-1.162 3.765c-2.072 6.64-5.354 9.81-10.456 9.81-5.607 0-9.142-3.815-9.142-9.462 0-5.648 3.535-9.513 8.638-9.513.222 0 .438.006.652.018l.076.004c.191.01.38.027.565.047l.093.01c.185.02.366.047.544.076l.081.012c.189.033.374.067.556.108.015.004.03.006.042.008.797.18 1.538.438 2.242.76.656.297 1.212.397 1.716.397 1.213 0 2.02-.792 2.02-1.982 0-.743-.455-1.486-1.515-1.98-1.92-.941-4.395-1.487-7.072-1.487-7.981 0-13.486 5.548-13.486 13.624 0 2.126.386 4.077 1.108 5.795-1.048 2.236-2.65 3.42-4.745 3.42-2.526 0-4.193-1.437-4.193-4.707V23.4h5.91c1.363 0 2.272-.792 2.272-1.933 0-1.14-.909-1.932-2.273-1.932H19.85v-5.056c0-1.486-1.01-2.478-2.425-2.478-1.413 0-2.424.992-2.424 2.478V37.913c0 5.45 3.182 8.324 8.585 8.324 1.212 0 2.323-.198 3.334-.546a8.08 8.08 0 004.197-3.439c2.4 2.543 5.962 4.034 10.4 4.034 2.322 0 4.344-.446 6.163-1.387 3.686-1.883 6.314-5.697 8.132-11.543l1.061-3.419c.708.926 1.698 1.812 3.03 2.724l3.789 2.576c1.716 1.19 2.424 2.181 2.424 3.617 0 2.13-1.716 3.567-4.193 3.567-2.374 0-4.394-1.19-5.505-1.19-1.11 0-1.868.744-1.868 1.833 0 .792.405 1.438 1.466 1.933 1.465.694 3.838 1.289 5.96 1.289 2.677 0 4.898-.792 6.465-2.181 1.414-1.289 2.273-3.122 2.273-5.251-.002-2.971-1.214-4.954-4.245-7.035zM79.99 20.538h3.404v-6.08h2.415V12h-8.235v2.457h2.415v6.08zM88.32 20.538l1.735-5.106 1.733 5.106h3.33L91.854 12h-3.6l-3.262 8.538h3.328zM96.716 20.538h3.404v-6.08h2.415V12h-8.234v2.457h2.415v6.08zM105.039 20.538l1.735-5.106 1.733 5.106h3.33L108.575 12h-3.602l-3.262 8.538h3.328zM137.713 26.645c.421.967.976 2.013 1.529 2.945l2.227 3.755h1.614v-8.537h-1.442v2.979c0 1.305.029 2.404.141 3.538l-.03.008a23.576 23.576 0 00-1.452-2.86l-2.203-3.665h-1.781v8.537h1.439v-3.053c0-1.4-.021-2.529-.082-3.639l.04-.008zM129.988 30.933h2.709l.772 2.412h1.672l-2.769-8.537h-1.982l-2.738 8.537h1.611l.725-2.412zm.913-3.287c.151-.508.28-1.099.404-1.599h.027c.13.495.27 1.078.431 1.605l.672 2.105h-2.198l.664-2.11zM104.591 32.187a4.301 4.301 0 01-2.061-.545l-.346 1.292c.465.286 1.402.545 2.304.545 2.2 0 3.235-1.191 3.235-2.566 0-1.226-.712-1.973-2.193-2.537-1.138-.434-1.632-.744-1.632-1.398 0-.503.42-1.027 1.41-1.027.801 0 1.396.243 1.703.405l.373-1.258c-.444-.225-1.121-.421-2.045-.421-1.849 0-3.018 1.054-3.018 2.452 0 1.223.899 1.98 2.309 2.481 1.077.392 1.511.774 1.511 1.417 0 .694-.558 1.16-1.55 1.16zM82.206 25.963c.696 0 1.265.153 1.661.334l.339-1.242c-.318-.173-1.04-.38-2.066-.38-2.606 0-4.566 1.696-4.566 4.503 0 2.598 1.648 4.303 4.354 4.303 1.032 0 1.844-.204 2.212-.39l-.257-1.228c-.41.185-1.069.31-1.7.31-1.876 0-2.969-1.192-2.969-3.075 0-2.05 1.252-3.135 2.992-3.135zM125.752 33.345V26.12h2.458v-1.311h-6.452v1.31h2.436v7.227h1.558zM156.888 24.808l-1.027 2.187c-.291.62-.526 1.15-.738 1.695h-.026a36.697 36.697 0 00-.744-1.692l-1.015-2.19h-1.783l2.698 4.983v3.554h1.558V29.75l2.833-4.939h-1.756v-.002zM88.713 24.669c-2.407 0-4.06 1.851-4.06 4.473 0 2.5 1.523 4.345 3.935 4.345h.014c2.335 0 4.068-1.636 4.068-4.496-.005-2.442-1.47-4.322-3.957-4.322zm-.061 7.568h-.013c-1.49 0-2.36-1.435-2.355-3.132-.002-1.703.818-3.189 2.373-3.189 1.556 0 2.355 1.523 2.355 3.133-.003 1.785-.855 3.188-2.36 3.188zM149.062 25.963a4.06 4.06 0 011.661.334l.338-1.242c-.317-.173-1.039-.38-2.066-.38-2.605 0-4.565 1.696-4.565 4.503 0 2.598 1.648 4.303 4.354 4.303 1.031 0 1.844-.201 2.211-.39l-.256-1.228c-.41.185-1.069.31-1.701.31-1.876 0-2.968-1.192-2.968-3.075 0-2.05 1.251-3.135 2.992-3.135zM119.107 24.808h-1.558v8.537h5.066v-1.308h-3.508v-7.23zM115.776 29.684v-4.875h-1.558v4.978c0 1.674-.675 2.444-1.796 2.444-1.056 0-1.749-.776-1.749-2.444V24.81h-1.558v4.886c0 2.685 1.283 3.794 3.249 3.794 2.06-.002 3.412-1.175 3.412-3.805zM100.78 24.808h-1.441v2.979c0 1.305.029 2.404.14 3.538l-.03.008a23.68 23.68 0 00-1.451-2.86l-2.204-3.665h-1.78v8.537h1.441v-3.053c0-1.4-.02-2.529-.082-3.636l.04-.008c.42.967.976 2.013 1.529 2.945l2.227 3.755h1.614v-8.54h-.003zM107.441 37.612h-1.558v8.538h1.558v-8.538zM95.167 42.146v-.034c.796-.284 1.537-1.025 1.537-2.116 0-.726-.265-1.314-.728-1.7-.571-.477-1.555-.684-2.61-.684-1.056 0-1.755.075-2.344.183v8.355h1.534v-3.482h.778c.878.02 1.28.378 1.523 1.483.236 1.054.44 1.753.569 1.999h1.587c-.17-.331-.4-1.303-.667-2.362-.211-.824-.566-1.409-1.18-1.642zm-1.696-.614h-.915v-2.678c.156-.04.47-.076.96-.076 1 .002 1.648.434 1.648 1.358 0 .842-.645 1.396-1.693 1.396zM102.069 41.515a37.535 37.535 0 00-.868 3.085h-.026c-.223-1.032-.514-2.03-.836-3.108l-1.164-3.883h-1.698l2.759 8.538h1.785l2.947-8.538h-1.659l-1.24 3.906zM118.222 42.36h3.214v-1.27h-3.214v-2.196h3.405v-1.282h-4.963v8.535h5.15v-1.281h-3.592V42.36zM113.409 38.764c.696 0 1.265.153 1.661.333l.339-1.242c-.317-.172-1.039-.378-2.066-.378-2.605 0-4.566 1.694-4.566 4.502 0 2.597 1.648 4.303 4.355 4.303 1.031 0 1.843-.201 2.211-.39l-.257-1.228c-.412.185-1.068.31-1.701.31-1.875 0-2.968-1.192-2.968-3.075 0-2.05 1.252-3.135 2.992-3.135zM80.92 41.176c-1.14-.434-1.633-.744-1.633-1.398 0-.503.42-1.028 1.407-1.028.802 0 1.397.244 1.704.406l.373-1.258c-.445-.225-1.122-.421-2.045-.421-1.849 0-3.018 1.054-3.018 2.452 0 1.223.9 1.98 2.31 2.481 1.076.392 1.51.773 1.51 1.417 0 .699-.556 1.165-1.55 1.165a4.299 4.299 0 01-2.061-.545l-.347 1.292c.466.286 1.402.545 2.304.545 2.201 0 3.236-1.191 3.236-2.566.002-1.231-.71-1.978-2.19-2.542zM86.072 42.36h3.214v-1.27h-3.214v-2.196h3.407v-1.282h-4.965v8.535h5.153v-1.281h-3.595V42.36zM126.148 41.176c-1.138-.434-1.632-.744-1.632-1.398 0-.503.42-1.028 1.407-1.028.801 0 1.397.244 1.703.406l.373-1.258c-.444-.225-1.121-.421-2.044-.421-1.849 0-3.019 1.054-3.019 2.452 0 1.223.9 1.98 2.31 2.481 1.076.392 1.51.773 1.51 1.417 0 .699-.555 1.165-1.55 1.165a4.3 4.3 0 01-2.061-.545l-.346 1.292c.465.286 1.402.545 2.304.545 2.201 0 3.235-1.191 3.235-2.566.003-1.231-.709-1.978-2.19-2.542z" fill="#000"/></svg>
