<svg width="123" height="30" viewBox="0 0 123 30" fill="none" xmlns="http://www.w3.org/2000/svg">
<style>
/***************************************************
 * Animação SVG - Ştpace Logo
 * Efeito de preenchimento progressivo
 * Inicia automaticamente ao carregar
 **************************************************/

/* Animação automática com keyframes */
@keyframes fillAnimation {
  0% {
    fill: transparent;
  }
  50%, 100% {
    fill: rgb(255, 255, 255);
  }
}

.svg-elem-1 {
  fill: transparent;
  animation: fillAnimation 2s cubic-bezier(0.47, 0, 0.745, 0.715) 0.8s forwards;
}

.svg-elem-2 {
  fill: transparent;
  animation: fillAnimation 2s cubic-bezier(0.47, 0, 0.745, 0.715) 0.9s forwards;
}

.svg-elem-3 {
  fill: transparent;
  animation: fillAnimation 2s cubic-bezier(0.47, 0, 0.745, 0.715) 1s forwards;
}

.svg-elem-4 {
  fill: transparent;
  animation: fillAnimation 2s cubic-bezier(0.47, 0, 0.745, 0.715) 1.1s forwards;
}

.svg-elem-5 {
  fill: transparent;
  animation: fillAnimation 2s cubic-bezier(0.47, 0, 0.745, 0.715) 1.2s forwards;
}
</style>

<path d="M42.95 16.77L39.51 14.37C38.18 13.4 37.57 12.52 37.57 11.46C37.57 10.13 38.67 9.27 40.23 9.27C42.21 9.27 43.14 10.2 44.32 10.2C45.14 10.24 45.84 9.61001 45.88 8.79001C45.88 8.74001 45.88 8.69 45.88 8.64C45.88 7.97 45.54 7.42001 44.66 6.99001C43.23 6.34001 41.68 6.02 40.11 6.06C38.56 6.02 37.03 6.48 35.77 7.39C35.55 7.56 35.34 7.74 35.14 7.94C33.88 9.27 32.82 11.27 31.98 14.05L31.01 17.26C29.26 22.93 26.52 25.63 22.26 25.63C17.58 25.63 14.63 22.39 14.63 17.58C14.63 12.77 17.58 9.48 21.84 9.48H22.45C22.61 9.48 22.76 9.48 22.92 9.52H23L23.44 9.58H23.51C23.67 9.61 23.82 9.64 23.95 9.67H24C24.64 9.82 25.27 10.04 25.87 10.32C26.32 10.54 26.81 10.65 27.3 10.66C28.18 10.71 28.93 10.04 28.99 9.17C28.99 9.11 28.99 9.04 28.99 8.98C28.99 8.35 28.61 7.72001 27.73 7.29001C25.89 6.44001 23.87 6.02001 21.84 6.07001C15.19 6.07001 10.59 10.79 10.59 17.67C10.57 19.36 10.88 21.04 11.51 22.6C10.62 24.5 9.29 25.51 7.55 25.51C5.44 25.51 4.05 24.29 4.05 21.52V9.62H8.98C10.12 9.62 10.88 8.95 10.88 7.97C10.88 6.99 10.12 6.32001 8.98 6.32001H4.04V2.02C4.04 0.900004 3.14 0 2.02 0C0.9 0 0 0.900004 0 2.02V21.98C0 26.62 2.66 29.08 7.17 29.08C8.12 29.08 9.06 28.94 9.95 28.64C11.42 28.1 12.66 27.06 13.45 25.71C15.45 27.87 18.42 29.14 22.13 29.14C23.92 29.18 25.68 28.77 27.27 27.96C30.35 26.36 32.54 23.11 34.06 18.13L34.95 15.22C35.66 16.12 36.52 16.91 37.48 17.54L40.64 19.73C42.07 20.74 42.66 21.59 42.66 22.81C42.66 24.62 41.23 25.84 39.16 25.84C37.09 25.84 35.49 24.83 34.56 24.83C33.74 24.79 33.04 25.42 33 26.24C33 26.29 33 26.34 33 26.39C33 27.06 33.34 27.61 34.22 28.04C35.79 28.74 37.48 29.11 39.19 29.14C41.41 29.14 43.28 28.47 44.59 27.29C45.82 26.13 46.51 24.51 46.48 22.82C46.48 20.24 45.47 18.55 42.94 16.78L42.95 16.77Z" class="svg-elem-1"></path>
<path d="M66.82 6.09C68.75 6.09 70.55 6.46 72.14 7.72C73.83 9.08 74.87 11.14 74.87 13.78C74.92 16.2 73.82 18.51 71.91 19.99C70.35 21.15 68.52 21.48 66.65 21.48H60.96V27.28C60.92 28.28 60.1 29.06 59.1 29.05C58.1 29.07 57.26 28.28 57.24 27.28V7.92C57.24 6.91 58.06 6.09 59.07 6.09C59.08 6.09 59.09 6.09 59.1 6.09H66.82ZM69.42 10.18C68.5 9.59001 67.41 9.30001 66.31 9.35001H60.96V18.2H66.08C67.2 18.26 68.31 18 69.27 17.44C70.37 16.74 71.04 15.47 71.04 13.78C71.04 12.09 70.43 10.88 69.4 10.19L69.42 10.18Z" class="svg-elem-2"></path>
<path d="M79.2 20.63C81.06 19.86 83.52 19.63 85.58 19.46V19.06C85.58 18 85.38 17.33 84.95 16.8C84.38 16.19 83.56 15.88 82.73 15.93C81.75 15.93 80.77 16.15 79.88 16.56C79.12 16.89 78.72 17.09 78.25 17.09C77.58 17.1 77.03 16.58 77.02 15.91C77.02 15.89 77.02 15.87 77.02 15.86C77.02 14.97 77.82 14.53 78.79 14.13C80.15 13.58 81.61 13.3 83.08 13.3C84.57 13.3 86.44 13.6 87.7 14.99C88.5 15.88 88.96 17.12 88.96 19.05V27.4C88.92 28.35 88.11 29.1 87.16 29.06C86.54 29.03 85.99 28.68 85.7 28.14C84.4 28.81 82.94 29.13 81.48 29.07C78.79 29.07 76.26 27.47 76.26 24.51C76.26 22.48 77.49 21.32 79.19 20.62L79.2 20.63ZM85.58 25.72V21.83C81.99 22.03 79.53 22.72 79.53 24.46C79.53 25.92 80.99 26.59 82.56 26.59C83.63 26.57 84.67 26.28 85.59 25.72H85.58Z" class="svg-elem-3"></path>
<path d="M103.75 17.2C103.27 17.16 102.8 17.01 102.39 16.76C101.67 16.43 100.88 16.26 100.09 16.26C98.69 16.22 97.34 16.79 96.4 17.83C95.59 18.77 95.17 19.98 95.2 21.22C95.16 22.53 95.62 23.8 96.5 24.77C97.44 25.74 98.75 26.26 100.09 26.2C100.91 26.2 101.72 26.06 102.49 25.76C103.16 25.49 103.32 25.32 103.86 25.32C104.63 25.34 105.23 25.98 105.22 26.75C105.22 27.58 104.52 28.08 103.36 28.52C102.28 28.89 101.14 29.07 100 29.05C97.34 29.05 95.21 28.22 93.74 26.69C92.44 25.36 91.71 23.43 91.71 21.17C91.67 19.38 92.27 17.63 93.41 16.25C94.94 14.36 97.37 13.32 100.06 13.32C101.32 13.31 102.56 13.56 103.72 14.05C104.65 14.49 105.15 14.98 105.15 15.75C105.15 16.53 104.54 17.18 103.75 17.21V17.2Z" class="svg-elem-4"></path>
<path d="M121.38 26.49C121.38 27.22 120.85 27.72 119.82 28.18C118.38 28.78 116.82 29.08 115.26 29.07C112.73 29.07 110.67 28.24 109.27 26.74C107.85 25.16 107.1 23.09 107.18 20.97C107.14 18.93 107.89 16.95 109.27 15.45C110.53 14.12 112.43 13.29 114.83 13.29C116.82 13.23 118.75 13.97 120.18 15.35C121.41 16.67 122.08 18.42 122.02 20.23C122.02 21.29 121.39 22.12 120.29 22.12H110.77C110.83 23.15 111.23 24.12 111.9 24.9C112.81 25.91 114.13 26.46 115.49 26.39C116.53 26.39 117.57 26.16 118.52 25.72C119.25 25.39 119.62 25.09 120.12 25.09C120.85 25.13 121.41 25.74 121.38 26.47V26.49ZM118.69 19.8C118.69 18.84 118.34 17.91 117.72 17.17C116.96 16.41 115.93 16 114.86 16.03C113.7 15.97 112.58 16.41 111.75 17.23C111.16 17.96 110.81 18.85 110.75 19.79H118.68L118.69 19.8Z" class="svg-elem-5"></path>
</svg>
