<svg width="123" height="30" viewBox="0 0 123 30" fill="none" xmlns="http://www.w3.org/2000/svg">
<path d="M43.83 17.05L40.39 14.65C39.06 13.68 38.45 12.8 38.45 11.74C38.45 10.41 39.55 9.55 41.11 9.55C43.09 9.55 44.02 10.48 45.2 10.48C46.02 10.52 46.72 9.89001 46.76 9.07001C46.76 9.02001 46.76 8.97 46.76 8.92C46.76 8.25 46.42 7.7 45.54 7.27C44.11 6.62 42.56 6.3 40.99 6.34C39.44 6.3 37.91 6.76 36.65 7.67C36.43 7.84 36.22 8.02 36.02 8.22C34.76 9.55 33.7 11.55 32.86 14.33L31.89 17.54C30.14 23.21 27.4 25.91 23.14 25.91C18.46 25.91 15.51 22.67 15.51 17.86C15.51 13.05 18.46 9.75999 22.72 9.75999H23.33C23.49 9.75999 23.64 9.76 23.8 9.8H23.88L24.32 9.86H24.39C24.55 9.89 24.7 9.92 24.83 9.95H24.88C25.52 10.1 26.15 10.32 26.75 10.6C27.2 10.82 27.69 10.93 28.18 10.94C29.06 10.99 29.81 10.32 29.87 9.45C29.87 9.39 29.87 9.31999 29.87 9.25999C29.87 8.62999 29.49 8.00001 28.61 7.57001C26.77 6.72001 24.75 6.30001 22.72 6.35001C16.07 6.35001 11.47 11.07 11.47 17.95C11.45 19.64 11.76 21.32 12.39 22.88C11.5 24.78 10.17 25.79 8.43001 25.79C6.32001 25.79 4.93001 24.57 4.93001 21.8V9.89999H9.86001C11 9.89999 11.76 9.23 11.76 8.25C11.76 7.27 11 6.60001 9.86001 6.60001H4.92001V2.3C4.92001 1.18 4.02001 0.279999 2.90001 0.279999C1.78001 0.279999 0.880005 1.18 0.880005 2.3V22.26C0.880005 26.9 3.54 29.36 8.05 29.36C9 29.36 9.94001 29.22 10.83 28.92C12.3 28.38 13.54 27.34 14.33 25.99C16.33 28.15 19.3 29.42 23.01 29.42C24.8 29.46 26.56 29.05 28.15 28.24C31.23 26.64 33.42 23.39 34.94 18.41L35.83 15.5C36.54 16.4 37.4 17.19 38.36 17.82L41.52 20.01C42.95 21.02 43.54 21.87 43.54 23.09C43.54 24.9 42.11 26.12 40.04 26.12C37.97 26.12 36.37 25.11 35.44 25.11C34.62 25.07 33.92 25.7 33.88 26.52C33.88 26.57 33.88 26.62 33.88 26.67C33.88 27.34 34.22 27.89 35.1 28.32C36.67 29.02 38.36 29.39 40.07 29.42C42.29 29.42 44.16 28.75 45.47 27.57C46.7 26.41 47.39 24.79 47.36 23.1C47.36 20.52 46.35 18.83 43.82 17.06L43.83 17.05Z" fill="black"/>
<path d="M67.7 6.37C69.63 6.37 71.43 6.74 73.02 8C74.71 9.36 75.75 11.42 75.75 14.06C75.8 16.48 74.7 18.79 72.79 20.27C71.23 21.43 69.4 21.76 67.53 21.76H61.84V27.56C61.8 28.56 60.98 29.34 59.98 29.33C58.98 29.35 58.14 28.56 58.12 27.56V8.2C58.12 7.19 58.94 6.37 59.95 6.37C59.96 6.37 59.97 6.37 59.98 6.37H67.7ZM70.3 10.46C69.38 9.87001 68.29 9.58 67.19 9.63H61.84V18.48H66.96C68.08 18.54 69.19 18.28 70.15 17.72C71.25 17.02 71.92 15.75 71.92 14.06C71.92 12.37 71.31 11.16 70.28 10.47L70.3 10.46Z" fill="black"/>
<path d="M80.08 20.91C81.94 20.14 84.4 19.91 86.46 19.74V19.34C86.46 18.28 86.26 17.61 85.83 17.08C85.26 16.47 84.44 16.16 83.61 16.21C82.63 16.21 81.65 16.43 80.76 16.84C80 17.17 79.6 17.37 79.13 17.37C78.46 17.38 77.91 16.86 77.9 16.19C77.9 16.17 77.9 16.15 77.9 16.14C77.9 15.25 78.7 14.81 79.67 14.41C81.03 13.86 82.49 13.58 83.96 13.58C85.45 13.58 87.32 13.88 88.58 15.27C89.38 16.16 89.84 17.4 89.84 19.33V27.68C89.8 28.63 88.99 29.38 88.04 29.34C87.42 29.31 86.87 28.96 86.58 28.42C85.28 29.09 83.82 29.41 82.36 29.35C79.67 29.35 77.14 27.75 77.14 24.79C77.14 22.76 78.37 21.6 80.07 20.9L80.08 20.91ZM86.46 26V22.11C82.87 22.31 80.41 23 80.41 24.74C80.41 26.2 81.87 26.87 83.44 26.87C84.51 26.85 85.55 26.56 86.47 26H86.46Z" fill="black"/>
<path d="M104.63 17.48C104.15 17.44 103.68 17.29 103.27 17.04C102.55 16.71 101.76 16.54 100.97 16.54C99.57 16.5 98.22 17.07 97.28 18.11C96.47 19.05 96.05 20.26 96.08 21.5C96.04 22.81 96.5 24.08 97.38 25.05C98.32 26.02 99.63 26.54 100.97 26.48C101.79 26.48 102.6 26.34 103.37 26.04C104.04 25.77 104.2 25.6 104.74 25.6C105.51 25.62 106.11 26.26 106.1 27.03C106.1 27.86 105.4 28.36 104.24 28.8C103.16 29.17 102.02 29.35 100.88 29.33C98.22 29.33 96.09 28.5 94.62 26.97C93.32 25.64 92.59 23.71 92.59 21.45C92.55 19.66 93.15 17.91 94.29 16.53C95.82 14.64 98.25 13.6 100.94 13.6C102.2 13.59 103.44 13.84 104.6 14.33C105.53 14.77 106.03 15.26 106.03 16.03C106.03 16.81 105.42 17.46 104.63 17.49V17.48Z" fill="black"/>
<path d="M122.26 26.77C122.26 27.5 121.73 28 120.7 28.46C119.26 29.06 117.7 29.36 116.14 29.35C113.61 29.35 111.55 28.52 110.15 27.02C108.73 25.44 107.98 23.37 108.06 21.25C108.02 19.21 108.77 17.23 110.15 15.73C111.41 14.4 113.31 13.57 115.71 13.57C117.7 13.51 119.63 14.25 121.06 15.63C122.29 16.95 122.96 18.7 122.9 20.51C122.9 21.57 122.27 22.4 121.17 22.4H111.65C111.71 23.43 112.11 24.4 112.78 25.18C113.69 26.19 115.01 26.74 116.37 26.67C117.41 26.67 118.45 26.44 119.4 26C120.13 25.67 120.5 25.37 121 25.37C121.73 25.41 122.29 26.02 122.26 26.75V26.77ZM119.57 20.08C119.57 19.12 119.22 18.19 118.6 17.45C117.84 16.69 116.81 16.28 115.74 16.31C114.58 16.25 113.46 16.69 112.63 17.51C112.04 18.24 111.69 19.13 111.63 20.07H119.56L119.57 20.08Z" fill="black"/>
</svg>
