<svg width="317" height="212" viewBox="0 0 317 212" fill="none" xmlns="http://www.w3.org/2000/svg">
<path fill-rule="evenodd" clip-rule="evenodd" d="M308.394 71.432C304.6 63.971 299.603 56.82 293.387 50.114C279.418 35.037 259.709 22.491 236.385 13.838C212.869 5.118 186.047 0.503998 158.79 0.503998C131.533 0.503998 104.711 5.118 81.2069 13.838C57.8709 22.492 38.1609 35.038 24.1919 50.114C17.9799 56.819 12.967 63.98 9.17395 71.445C39.5389 64.102 91.4799 54.407 139.708 53.382C144.36 53.282 147.563 54.772 149.672 57.445C152.241 60.7 152.048 72.303 151.985 77.494L150.614 211.664C153.33 211.754 156.059 211.812 158.79 211.812C161.544 211.812 164.288 211.767 167.004 211.677L165.633 77.493C165.562 72.303 165.363 60.699 167.941 57.444C170.055 54.772 173.247 53.282 177.898 53.381C226.106 54.398 278.035 64.095 308.394 71.432Z" fill="white"/>
<path fill-rule="evenodd" clip-rule="evenodd" d="M314.877 88.88C270.435 78.833 240.756 76.975 211.472 75.35C185.946 73.931 185.613 83.046 188.161 100.465C188.328 101.528 188.533 102.868 188.776 104.396C197.338 155.108 208 198.748 209.832 206.155C272.062 191.93 316.941 152.491 316.941 106.161C316.941 100.327 316.236 94.547 314.877 88.88Z" fill="white"/>
<path fill-rule="evenodd" clip-rule="evenodd" d="M129.443 100.465C131.994 83.047 131.667 73.931 106.144 75.35C76.8499 76.975 47.1639 78.832 2.70493 88.886C1.34693 94.553 0.632935 100.326 0.632935 106.16C0.632935 126.184 8.77893 145.56 24.1929 162.207C38.1619 177.284 57.8719 189.83 81.2079 198.489C89.6539 201.616 98.5669 204.179 107.748 206.229C109.471 199.29 120.378 154.742 129.033 103.123C129.193 102.134 129.341 101.221 129.443 100.465Z" fill="white"/>
</svg>
