<svg width="907" height="101" viewBox="0 0 907 101" fill="none" xmlns="http://www.w3.org/2000/svg">
<mask id="path-1-outside-1_153_2" maskUnits="userSpaceOnUse" x="-0.52002" y="-0.279785" width="907" height="101" fill="black">
<rect fill="white" x="-0.52002" y="-0.279785" width="907" height="101"/>
<path d="M1.99998 96.7202V7.37621C5.49865 6.94955 9.33865 6.65088 13.52 6.48021C17.7866 6.22421 22.1813 6.09621 26.704 6.09621C34.128 6.09621 40.4426 7.29088 45.648 9.68021C50.8533 11.9842 54.8213 15.1842 57.552 19.2802C60.2827 23.3762 61.648 28.0695 61.648 33.3602C61.648 39.7602 60.0693 45.1789 56.912 49.6162C53.7547 54.0535 49.36 57.4669 43.728 59.8562C38.096 62.1602 31.568 63.3122 24.144 63.3122C20.56 63.3122 17.232 63.1842 14.16 62.9282V96.7202H1.99998ZM25.68 53.2002C33.2746 53.2002 39.1626 51.4935 43.344 48.0802C47.5253 44.6669 49.616 40.1015 49.616 34.3842C49.616 28.8375 47.6106 24.4429 43.6 21.2002C39.5893 17.9575 33.872 16.3362 26.448 16.3362C24.144 16.3362 21.968 16.3789 19.92 16.4642C17.872 16.5495 15.952 16.6775 14.16 16.8482V52.5602C15.5253 52.7309 17.1893 52.9015 19.152 53.0722C21.1146 53.1575 23.2906 53.2002 25.68 53.2002ZM98.692 98.2562C93.1453 98.2562 88.1106 96.8482 83.588 94.0322C79.0653 91.2162 75.4386 87.2482 72.708 82.1282C70.0626 76.9229 68.74 70.8215 68.74 63.8242C68.74 57.1682 70.0626 51.1949 72.708 45.9042C75.4386 40.6135 79.1506 36.4322 83.844 33.3602C88.6226 30.2029 94.084 28.6242 100.228 28.6242C104.068 28.6242 107.524 29.3069 110.596 30.6722C113.753 31.9522 116.484 33.5735 118.788 35.5362V30.1602H129.284V80.5922C129.284 83.8349 130.052 85.9682 131.588 86.9922C133.209 87.9309 134.959 88.4002 136.836 88.4002L134.404 97.3602C126.212 97.3602 121.263 94.0322 119.556 87.3762C117.593 90.1069 114.905 92.6242 111.492 94.9282C108.164 97.1469 103.897 98.2562 98.692 98.2562ZM101.252 88.0162C104.495 88.0162 107.567 87.2482 110.468 85.7122C113.369 84.0909 115.801 82.0855 117.764 79.6962V43.9842C115.46 42.3629 112.9 41.0829 110.084 40.1442C107.353 39.1202 104.452 38.6082 101.38 38.6082C97.284 38.6082 93.6573 39.6749 90.5 41.8082C87.428 43.8562 84.996 46.7575 83.204 50.5122C81.412 54.1815 80.516 58.4909 80.516 63.4402C80.516 68.2189 81.412 72.4855 83.204 76.2402C84.996 79.9095 87.4706 82.8109 90.628 84.9442C93.7853 86.9922 97.3266 88.0162 101.252 88.0162ZM177.85 98.2562C171.535 98.2562 165.989 96.8055 161.21 93.9042C156.517 90.9175 152.89 86.8215 150.33 81.6162C147.77 76.3255 146.49 70.2669 146.49 63.4402C146.49 57.0402 147.77 51.1949 150.33 45.9042C152.975 40.6135 156.73 36.4322 161.594 33.3602C166.458 30.2029 172.175 28.6242 178.746 28.6242C182.501 28.6242 185.786 28.9655 188.602 29.6482C191.503 30.3309 194.277 31.3122 196.922 32.5922L193.466 42.3202C191.077 41.1255 188.773 40.2722 186.554 39.7602C184.421 39.1629 182.031 38.8642 179.386 38.8642C173.413 38.8642 168.378 41.0402 164.282 45.3922C160.271 49.6589 158.266 55.5895 158.266 63.1842C158.266 67.7922 159.119 71.9735 160.826 75.7282C162.533 79.4829 164.879 82.4695 167.866 84.6882C170.938 86.9069 174.522 88.0162 178.618 88.0162C181.861 88.0162 184.634 87.6749 186.938 86.9922C189.242 86.2242 191.717 85.1575 194.362 83.7922L197.946 93.5202C195.301 94.9709 192.314 96.1229 188.986 96.9762C185.743 97.8295 182.031 98.2562 177.85 98.2562ZM236.719 98.2562C227.162 98.2562 219.567 95.2269 213.935 89.1682C208.388 83.0242 205.615 74.4482 205.615 63.4402C205.615 56.7842 206.852 50.8535 209.327 45.6482C211.887 40.3575 215.428 36.2189 219.951 33.2322C224.474 30.1602 229.722 28.6242 235.695 28.6242C242.095 28.6242 247.386 30.0322 251.567 32.8482C255.834 35.5789 259.034 39.2909 261.167 43.9842C263.3 48.6775 264.367 53.8402 264.367 59.4722C264.367 62.4589 264.239 65.3602 263.983 68.1762H217.391C218.159 74.4055 220.335 79.2695 223.919 82.7682C227.503 86.2669 232.239 88.0162 238.127 88.0162C241.967 88.0162 245.423 87.6322 248.495 86.8642C251.567 86.0109 254.511 84.9442 257.327 83.6642L260.015 93.5202C256.943 94.8855 253.487 95.9949 249.647 96.8482C245.807 97.7869 241.498 98.2562 236.719 98.2562ZM217.263 58.8322H253.743C253.743 52.3469 252.122 47.3549 248.879 43.8562C245.636 40.3575 241.156 38.6082 235.439 38.6082C230.49 38.6082 226.394 40.3575 223.151 43.8562C219.908 47.2695 217.946 52.2615 217.263 58.8322ZM341.647 98.2562C335.418 98.2562 329.743 97.4455 324.623 95.8242C319.503 94.1175 315.194 91.8989 311.695 89.1682L317.839 78.9282C320.911 81.4882 324.367 83.5789 328.207 85.2002C332.047 86.8215 336.527 87.6322 341.647 87.6322C347.791 87.6322 352.655 86.3522 356.239 83.7922C359.823 81.2322 361.615 77.7762 361.615 73.4242C361.615 70.9495 361.103 68.7735 360.079 66.8962C359.055 64.9335 357.05 63.0562 354.063 61.2642C351.162 59.3869 346.852 57.3815 341.135 55.2482C334.991 52.8589 330.084 50.4695 326.415 48.0802C322.746 45.6055 320.1 42.8322 318.479 39.7602C316.943 36.6029 316.175 32.8909 316.175 28.6242C316.175 24.3575 317.327 20.5175 319.631 17.1042C322.02 13.6055 325.476 10.8322 329.999 8.78421C334.607 6.65088 340.154 5.58421 346.639 5.58421C351.93 5.58421 356.666 6.13888 360.847 7.24821C365.114 8.27221 369.252 9.76554 373.263 11.7282L368.783 22.0962C365.882 20.3895 362.468 18.9815 358.543 17.8722C354.703 16.6775 350.65 16.0802 346.383 16.0802C340.751 16.0802 336.314 17.1895 333.071 19.4082C329.828 21.6269 328.207 24.4855 328.207 27.9842C328.207 30.2029 328.676 32.1655 329.615 33.8722C330.554 35.5789 332.388 37.2429 335.119 38.8642C337.935 40.4855 342.116 42.3202 347.663 44.3682C354.319 46.8429 359.567 49.4455 363.407 52.1762C367.332 54.9069 370.106 57.8935 371.727 61.1362C373.348 64.2935 374.159 67.9202 374.159 72.0162C374.159 77.5629 372.751 82.2989 369.935 86.2242C367.204 90.1495 363.364 93.1362 358.415 95.1842C353.551 97.2322 347.962 98.2562 341.647 98.2562ZM417.725 98.2562C411.41 98.2562 405.864 96.8055 401.085 93.9042C396.392 90.9175 392.765 86.8215 390.205 81.6162C387.645 76.3255 386.365 70.2669 386.365 63.4402C386.365 57.0402 387.645 51.1949 390.205 45.9042C392.85 40.6135 396.605 36.4322 401.469 33.3602C406.333 30.2029 412.05 28.6242 418.621 28.6242C422.376 28.6242 425.661 28.9655 428.477 29.6482C431.378 30.3309 434.152 31.3122 436.797 32.5922L433.341 42.3202C430.952 41.1255 428.648 40.2722 426.429 39.7602C424.296 39.1629 421.906 38.8642 419.261 38.8642C413.288 38.8642 408.253 41.0402 404.157 45.3922C400.146 49.6589 398.141 55.5895 398.141 63.1842C398.141 67.7922 398.994 71.9735 400.701 75.7282C402.408 79.4829 404.754 82.4695 407.741 84.6882C410.813 86.9069 414.397 88.0162 418.493 88.0162C421.736 88.0162 424.509 87.6749 426.813 86.9922C429.117 86.2242 431.592 85.1575 434.237 83.7922L437.821 93.5202C435.176 94.9709 432.189 96.1229 428.861 96.9762C425.618 97.8295 421.906 98.2562 417.725 98.2562ZM451.22 96.7202V2.00021H462.74V40.7842C465.129 37.2855 468.159 34.3842 471.828 32.0802C475.497 29.7762 479.807 28.6242 484.756 28.6242C492.265 28.6242 497.855 30.8855 501.524 35.4082C505.279 39.9309 507.156 45.9042 507.156 53.3282V96.7202H495.636V54.6082C495.636 49.8295 494.527 45.9895 492.308 43.0882C490.089 40.1869 486.975 38.7362 482.964 38.7362C479.039 38.7362 475.284 40.1442 471.7 42.9602C468.201 45.6909 465.215 48.9335 462.74 52.6882V96.7202H451.22ZM553.594 98.2562C544.037 98.2562 536.442 95.2269 530.81 89.1682C525.263 83.0242 522.49 74.4482 522.49 63.4402C522.49 56.7842 523.727 50.8535 526.202 45.6482C528.762 40.3575 532.303 36.2189 536.826 33.2322C541.349 30.1602 546.597 28.6242 552.57 28.6242C558.97 28.6242 564.261 30.0322 568.442 32.8482C572.709 35.5789 575.909 39.2909 578.042 43.9842C580.175 48.6775 581.242 53.8402 581.242 59.4722C581.242 62.4589 581.114 65.3602 580.858 68.1762H534.266C535.034 74.4055 537.21 79.2695 540.794 82.7682C544.378 86.2669 549.114 88.0162 555.002 88.0162C558.842 88.0162 562.298 87.6322 565.37 86.8642C568.442 86.0109 571.386 84.9442 574.202 83.6642L576.89 93.5202C573.818 94.8855 570.362 95.9949 566.522 96.8482C562.682 97.7869 558.373 98.2562 553.594 98.2562ZM534.138 58.8322H570.618C570.618 52.3469 568.997 47.3549 565.754 43.8562C562.511 40.3575 558.031 38.6082 552.314 38.6082C547.365 38.6082 543.269 40.3575 540.026 43.8562C536.783 47.2695 534.821 52.2615 534.138 58.8322ZM621.811 98.2562C616.35 98.2562 611.358 96.8482 606.835 94.0322C602.312 91.2162 598.728 87.2482 596.083 82.1282C593.438 76.9229 592.115 70.8215 592.115 63.8242C592.115 57.0829 593.438 51.0669 596.083 45.7762C598.814 40.4855 602.398 36.3042 606.835 33.2322C611.358 30.1602 616.307 28.6242 621.683 28.6242C626.12 28.6242 629.918 29.5202 633.075 31.3122C636.318 33.1042 638.835 34.9389 640.627 36.8162V2.00021H652.147V80.5922C652.147 83.8349 652.915 85.9682 654.451 86.9922C656.072 87.9309 657.822 88.4002 659.699 88.4002L657.267 97.3602C649.16 97.3602 644.211 94.1175 642.419 87.6322C640.542 90.2775 637.896 92.7095 634.483 94.9282C631.155 97.1469 626.931 98.2562 621.811 98.2562ZM624.371 88.0162C627.528 88.0162 630.515 87.2909 633.331 85.8402C636.232 84.3042 638.664 82.3415 640.627 79.9522V46.9282C639.006 44.8802 636.744 43.0029 633.843 41.2962C630.942 39.5042 627.742 38.6082 624.243 38.6082C620.147 38.6082 616.563 39.7175 613.491 41.9362C610.419 44.1549 608.03 47.1415 606.323 50.8962C604.702 54.5655 603.891 58.7469 603.891 63.4402C603.891 68.1335 604.787 72.3575 606.579 76.1122C608.371 79.7815 610.803 82.6829 613.875 84.8162C617.032 86.9495 620.531 88.0162 624.371 88.0162ZM696.855 98.2562C693.015 98.2562 689.388 97.4455 685.975 95.8242C682.562 94.2029 679.788 91.6002 677.655 88.0162C675.522 84.3469 674.455 79.4829 674.455 73.4242V30.1602H685.975V71.8882C685.975 77.0935 687.084 81.1042 689.303 83.9202C691.522 86.6509 694.764 88.0162 699.031 88.0162C702.53 88.0162 705.9 87.3335 709.143 85.9682C712.471 84.5175 715.415 82.5975 717.975 80.2082V30.1602H729.495V79.4402C729.495 83.1095 730.263 85.5415 731.799 86.7362C733.42 87.8455 735.17 88.4002 737.047 88.4002L734.615 97.3602C726.679 97.3602 721.772 94.2029 719.895 87.8882C716.908 90.9602 713.452 93.4775 709.527 95.4402C705.602 97.3175 701.378 98.2562 696.855 98.2562ZM772.569 98.2562C768.644 98.2562 765.102 97.5309 761.945 96.0802C758.788 94.5442 756.27 92.1122 754.393 88.7842C752.601 85.4562 751.705 81.1469 751.705 75.8562V2.00021H763.225V74.7042C763.225 79.3122 764.164 82.7255 766.041 84.9442C768.004 87.1629 770.692 88.2722 774.105 88.2722C775.726 88.2722 777.305 88.1015 778.841 87.7602C780.462 87.3335 781.828 86.8642 782.937 86.3522L785.753 95.6962C784.217 96.3789 782.297 96.9762 779.993 97.4882C777.774 98.0002 775.3 98.2562 772.569 98.2562ZM821.344 98.2562C811.787 98.2562 804.192 95.2269 798.56 89.1682C793.013 83.0242 790.24 74.4482 790.24 63.4402C790.24 56.7842 791.477 50.8535 793.952 45.6482C796.512 40.3575 800.053 36.2189 804.576 33.2322C809.099 30.1602 814.347 28.6242 820.32 28.6242C826.72 28.6242 832.011 30.0322 836.192 32.8482C840.459 35.5789 843.659 39.2909 845.792 43.9842C847.925 48.6775 848.992 53.8402 848.992 59.4722C848.992 62.4589 848.864 65.3602 848.608 68.1762H802.016C802.784 74.4055 804.96 79.2695 808.544 82.7682C812.128 86.2669 816.864 88.0162 822.752 88.0162C826.592 88.0162 830.048 87.6322 833.12 86.8642C836.192 86.0109 839.136 84.9442 841.952 83.6642L844.64 93.5202C841.568 94.8855 838.112 95.9949 834.272 96.8482C830.432 97.7869 826.123 98.2562 821.344 98.2562ZM801.888 58.8322H838.368C838.368 52.3469 836.747 47.3549 833.504 43.8562C830.261 40.3575 825.781 38.6082 820.064 38.6082C815.115 38.6082 811.019 40.3575 807.776 43.8562C804.533 47.2695 802.571 52.2615 801.888 58.8322ZM864.345 96.7202V30.1602H875.481V44.6242C876.59 41.8082 878.084 39.2055 879.961 36.8162C881.838 34.3415 884.185 32.3789 887.001 30.9282C889.817 29.3922 893.102 28.6242 896.857 28.6242C898.137 28.6242 899.417 28.7095 900.697 28.8802C901.977 28.9655 903.044 29.1362 903.897 29.3922L900.441 41.2962C898.82 40.6135 896.9 40.2722 894.681 40.2722C891.524 40.2722 888.494 41.1682 885.593 42.9602C882.777 44.7522 880.43 47.5255 878.553 51.2802C876.761 55.0349 875.865 59.8135 875.865 65.6162V96.7202H864.345Z"/>
</mask>
<path d="M1.99998 96.7202V7.37621C5.49865 6.94955 9.33865 6.65088 13.52 6.48021C17.7866 6.22421 22.1813 6.09621 26.704 6.09621C34.128 6.09621 40.4426 7.29088 45.648 9.68021C50.8533 11.9842 54.8213 15.1842 57.552 19.2802C60.2827 23.3762 61.648 28.0695 61.648 33.3602C61.648 39.7602 60.0693 45.1789 56.912 49.6162C53.7547 54.0535 49.36 57.4669 43.728 59.8562C38.096 62.1602 31.568 63.3122 24.144 63.3122C20.56 63.3122 17.232 63.1842 14.16 62.9282V96.7202H1.99998ZM25.68 53.2002C33.2746 53.2002 39.1626 51.4935 43.344 48.0802C47.5253 44.6669 49.616 40.1015 49.616 34.3842C49.616 28.8375 47.6106 24.4429 43.6 21.2002C39.5893 17.9575 33.872 16.3362 26.448 16.3362C24.144 16.3362 21.968 16.3789 19.92 16.4642C17.872 16.5495 15.952 16.6775 14.16 16.8482V52.5602C15.5253 52.7309 17.1893 52.9015 19.152 53.0722C21.1146 53.1575 23.2906 53.2002 25.68 53.2002ZM98.692 98.2562C93.1453 98.2562 88.1106 96.8482 83.588 94.0322C79.0653 91.2162 75.4386 87.2482 72.708 82.1282C70.0626 76.9229 68.74 70.8215 68.74 63.8242C68.74 57.1682 70.0626 51.1949 72.708 45.9042C75.4386 40.6135 79.1506 36.4322 83.844 33.3602C88.6226 30.2029 94.084 28.6242 100.228 28.6242C104.068 28.6242 107.524 29.3069 110.596 30.6722C113.753 31.9522 116.484 33.5735 118.788 35.5362V30.1602H129.284V80.5922C129.284 83.8349 130.052 85.9682 131.588 86.9922C133.209 87.9309 134.959 88.4002 136.836 88.4002L134.404 97.3602C126.212 97.3602 121.263 94.0322 119.556 87.3762C117.593 90.1069 114.905 92.6242 111.492 94.9282C108.164 97.1469 103.897 98.2562 98.692 98.2562ZM101.252 88.0162C104.495 88.0162 107.567 87.2482 110.468 85.7122C113.369 84.0909 115.801 82.0855 117.764 79.6962V43.9842C115.46 42.3629 112.9 41.0829 110.084 40.1442C107.353 39.1202 104.452 38.6082 101.38 38.6082C97.284 38.6082 93.6573 39.6749 90.5 41.8082C87.428 43.8562 84.996 46.7575 83.204 50.5122C81.412 54.1815 80.516 58.4909 80.516 63.4402C80.516 68.2189 81.412 72.4855 83.204 76.2402C84.996 79.9095 87.4706 82.8109 90.628 84.9442C93.7853 86.9922 97.3266 88.0162 101.252 88.0162ZM177.85 98.2562C171.535 98.2562 165.989 96.8055 161.21 93.9042C156.517 90.9175 152.89 86.8215 150.33 81.6162C147.77 76.3255 146.49 70.2669 146.49 63.4402C146.49 57.0402 147.77 51.1949 150.33 45.9042C152.975 40.6135 156.73 36.4322 161.594 33.3602C166.458 30.2029 172.175 28.6242 178.746 28.6242C182.501 28.6242 185.786 28.9655 188.602 29.6482C191.503 30.3309 194.277 31.3122 196.922 32.5922L193.466 42.3202C191.077 41.1255 188.773 40.2722 186.554 39.7602C184.421 39.1629 182.031 38.8642 179.386 38.8642C173.413 38.8642 168.378 41.0402 164.282 45.3922C160.271 49.6589 158.266 55.5895 158.266 63.1842C158.266 67.7922 159.119 71.9735 160.826 75.7282C162.533 79.4829 164.879 82.4695 167.866 84.6882C170.938 86.9069 174.522 88.0162 178.618 88.0162C181.861 88.0162 184.634 87.6749 186.938 86.9922C189.242 86.2242 191.717 85.1575 194.362 83.7922L197.946 93.5202C195.301 94.9709 192.314 96.1229 188.986 96.9762C185.743 97.8295 182.031 98.2562 177.85 98.2562ZM236.719 98.2562C227.162 98.2562 219.567 95.2269 213.935 89.1682C208.388 83.0242 205.615 74.4482 205.615 63.4402C205.615 56.7842 206.852 50.8535 209.327 45.6482C211.887 40.3575 215.428 36.2189 219.951 33.2322C224.474 30.1602 229.722 28.6242 235.695 28.6242C242.095 28.6242 247.386 30.0322 251.567 32.8482C255.834 35.5789 259.034 39.2909 261.167 43.9842C263.3 48.6775 264.367 53.8402 264.367 59.4722C264.367 62.4589 264.239 65.3602 263.983 68.1762H217.391C218.159 74.4055 220.335 79.2695 223.919 82.7682C227.503 86.2669 232.239 88.0162 238.127 88.0162C241.967 88.0162 245.423 87.6322 248.495 86.8642C251.567 86.0109 254.511 84.9442 257.327 83.6642L260.015 93.5202C256.943 94.8855 253.487 95.9949 249.647 96.8482C245.807 97.7869 241.498 98.2562 236.719 98.2562ZM217.263 58.8322H253.743C253.743 52.3469 252.122 47.3549 248.879 43.8562C245.636 40.3575 241.156 38.6082 235.439 38.6082C230.49 38.6082 226.394 40.3575 223.151 43.8562C219.908 47.2695 217.946 52.2615 217.263 58.8322ZM341.647 98.2562C335.418 98.2562 329.743 97.4455 324.623 95.8242C319.503 94.1175 315.194 91.8989 311.695 89.1682L317.839 78.9282C320.911 81.4882 324.367 83.5789 328.207 85.2002C332.047 86.8215 336.527 87.6322 341.647 87.6322C347.791 87.6322 352.655 86.3522 356.239 83.7922C359.823 81.2322 361.615 77.7762 361.615 73.4242C361.615 70.9495 361.103 68.7735 360.079 66.8962C359.055 64.9335 357.05 63.0562 354.063 61.2642C351.162 59.3869 346.852 57.3815 341.135 55.2482C334.991 52.8589 330.084 50.4695 326.415 48.0802C322.746 45.6055 320.1 42.8322 318.479 39.7602C316.943 36.6029 316.175 32.8909 316.175 28.6242C316.175 24.3575 317.327 20.5175 319.631 17.1042C322.02 13.6055 325.476 10.8322 329.999 8.78421C334.607 6.65088 340.154 5.58421 346.639 5.58421C351.93 5.58421 356.666 6.13888 360.847 7.24821C365.114 8.27221 369.252 9.76554 373.263 11.7282L368.783 22.0962C365.882 20.3895 362.468 18.9815 358.543 17.8722C354.703 16.6775 350.65 16.0802 346.383 16.0802C340.751 16.0802 336.314 17.1895 333.071 19.4082C329.828 21.6269 328.207 24.4855 328.207 27.9842C328.207 30.2029 328.676 32.1655 329.615 33.8722C330.554 35.5789 332.388 37.2429 335.119 38.8642C337.935 40.4855 342.116 42.3202 347.663 44.3682C354.319 46.8429 359.567 49.4455 363.407 52.1762C367.332 54.9069 370.106 57.8935 371.727 61.1362C373.348 64.2935 374.159 67.9202 374.159 72.0162C374.159 77.5629 372.751 82.2989 369.935 86.2242C367.204 90.1495 363.364 93.1362 358.415 95.1842C353.551 97.2322 347.962 98.2562 341.647 98.2562ZM417.725 98.2562C411.41 98.2562 405.864 96.8055 401.085 93.9042C396.392 90.9175 392.765 86.8215 390.205 81.6162C387.645 76.3255 386.365 70.2669 386.365 63.4402C386.365 57.0402 387.645 51.1949 390.205 45.9042C392.85 40.6135 396.605 36.4322 401.469 33.3602C406.333 30.2029 412.05 28.6242 418.621 28.6242C422.376 28.6242 425.661 28.9655 428.477 29.6482C431.378 30.3309 434.152 31.3122 436.797 32.5922L433.341 42.3202C430.952 41.1255 428.648 40.2722 426.429 39.7602C424.296 39.1629 421.906 38.8642 419.261 38.8642C413.288 38.8642 408.253 41.0402 404.157 45.3922C400.146 49.6589 398.141 55.5895 398.141 63.1842C398.141 67.7922 398.994 71.9735 400.701 75.7282C402.408 79.4829 404.754 82.4695 407.741 84.6882C410.813 86.9069 414.397 88.0162 418.493 88.0162C421.736 88.0162 424.509 87.6749 426.813 86.9922C429.117 86.2242 431.592 85.1575 434.237 83.7922L437.821 93.5202C435.176 94.9709 432.189 96.1229 428.861 96.9762C425.618 97.8295 421.906 98.2562 417.725 98.2562ZM451.22 96.7202V2.00021H462.74V40.7842C465.129 37.2855 468.159 34.3842 471.828 32.0802C475.497 29.7762 479.807 28.6242 484.756 28.6242C492.265 28.6242 497.855 30.8855 501.524 35.4082C505.279 39.9309 507.156 45.9042 507.156 53.3282V96.7202H495.636V54.6082C495.636 49.8295 494.527 45.9895 492.308 43.0882C490.089 40.1869 486.975 38.7362 482.964 38.7362C479.039 38.7362 475.284 40.1442 471.7 42.9602C468.201 45.6909 465.215 48.9335 462.74 52.6882V96.7202H451.22ZM553.594 98.2562C544.037 98.2562 536.442 95.2269 530.81 89.1682C525.263 83.0242 522.49 74.4482 522.49 63.4402C522.49 56.7842 523.727 50.8535 526.202 45.6482C528.762 40.3575 532.303 36.2189 536.826 33.2322C541.349 30.1602 546.597 28.6242 552.57 28.6242C558.97 28.6242 564.261 30.0322 568.442 32.8482C572.709 35.5789 575.909 39.2909 578.042 43.9842C580.175 48.6775 581.242 53.8402 581.242 59.4722C581.242 62.4589 581.114 65.3602 580.858 68.1762H534.266C535.034 74.4055 537.21 79.2695 540.794 82.7682C544.378 86.2669 549.114 88.0162 555.002 88.0162C558.842 88.0162 562.298 87.6322 565.37 86.8642C568.442 86.0109 571.386 84.9442 574.202 83.6642L576.89 93.5202C573.818 94.8855 570.362 95.9949 566.522 96.8482C562.682 97.7869 558.373 98.2562 553.594 98.2562ZM534.138 58.8322H570.618C570.618 52.3469 568.997 47.3549 565.754 43.8562C562.511 40.3575 558.031 38.6082 552.314 38.6082C547.365 38.6082 543.269 40.3575 540.026 43.8562C536.783 47.2695 534.821 52.2615 534.138 58.8322ZM621.811 98.2562C616.35 98.2562 611.358 96.8482 606.835 94.0322C602.312 91.2162 598.728 87.2482 596.083 82.1282C593.438 76.9229 592.115 70.8215 592.115 63.8242C592.115 57.0829 593.438 51.0669 596.083 45.7762C598.814 40.4855 602.398 36.3042 606.835 33.2322C611.358 30.1602 616.307 28.6242 621.683 28.6242C626.12 28.6242 629.918 29.5202 633.075 31.3122C636.318 33.1042 638.835 34.9389 640.627 36.8162V2.00021H652.147V80.5922C652.147 83.8349 652.915 85.9682 654.451 86.9922C656.072 87.9309 657.822 88.4002 659.699 88.4002L657.267 97.3602C649.16 97.3602 644.211 94.1175 642.419 87.6322C640.542 90.2775 637.896 92.7095 634.483 94.9282C631.155 97.1469 626.931 98.2562 621.811 98.2562ZM624.371 88.0162C627.528 88.0162 630.515 87.2909 633.331 85.8402C636.232 84.3042 638.664 82.3415 640.627 79.9522V46.9282C639.006 44.8802 636.744 43.0029 633.843 41.2962C630.942 39.5042 627.742 38.6082 624.243 38.6082C620.147 38.6082 616.563 39.7175 613.491 41.9362C610.419 44.1549 608.03 47.1415 606.323 50.8962C604.702 54.5655 603.891 58.7469 603.891 63.4402C603.891 68.1335 604.787 72.3575 606.579 76.1122C608.371 79.7815 610.803 82.6829 613.875 84.8162C617.032 86.9495 620.531 88.0162 624.371 88.0162ZM696.855 98.2562C693.015 98.2562 689.388 97.4455 685.975 95.8242C682.562 94.2029 679.788 91.6002 677.655 88.0162C675.522 84.3469 674.455 79.4829 674.455 73.4242V30.1602H685.975V71.8882C685.975 77.0935 687.084 81.1042 689.303 83.9202C691.522 86.6509 694.764 88.0162 699.031 88.0162C702.53 88.0162 705.9 87.3335 709.143 85.9682C712.471 84.5175 715.415 82.5975 717.975 80.2082V30.1602H729.495V79.4402C729.495 83.1095 730.263 85.5415 731.799 86.7362C733.42 87.8455 735.17 88.4002 737.047 88.4002L734.615 97.3602C726.679 97.3602 721.772 94.2029 719.895 87.8882C716.908 90.9602 713.452 93.4775 709.527 95.4402C705.602 97.3175 701.378 98.2562 696.855 98.2562ZM772.569 98.2562C768.644 98.2562 765.102 97.5309 761.945 96.0802C758.788 94.5442 756.27 92.1122 754.393 88.7842C752.601 85.4562 751.705 81.1469 751.705 75.8562V2.00021H763.225V74.7042C763.225 79.3122 764.164 82.7255 766.041 84.9442C768.004 87.1629 770.692 88.2722 774.105 88.2722C775.726 88.2722 777.305 88.1015 778.841 87.7602C780.462 87.3335 781.828 86.8642 782.937 86.3522L785.753 95.6962C784.217 96.3789 782.297 96.9762 779.993 97.4882C777.774 98.0002 775.3 98.2562 772.569 98.2562ZM821.344 98.2562C811.787 98.2562 804.192 95.2269 798.56 89.1682C793.013 83.0242 790.24 74.4482 790.24 63.4402C790.24 56.7842 791.477 50.8535 793.952 45.6482C796.512 40.3575 800.053 36.2189 804.576 33.2322C809.099 30.1602 814.347 28.6242 820.32 28.6242C826.72 28.6242 832.011 30.0322 836.192 32.8482C840.459 35.5789 843.659 39.2909 845.792 43.9842C847.925 48.6775 848.992 53.8402 848.992 59.4722C848.992 62.4589 848.864 65.3602 848.608 68.1762H802.016C802.784 74.4055 804.96 79.2695 808.544 82.7682C812.128 86.2669 816.864 88.0162 822.752 88.0162C826.592 88.0162 830.048 87.6322 833.12 86.8642C836.192 86.0109 839.136 84.9442 841.952 83.6642L844.64 93.5202C841.568 94.8855 838.112 95.9949 834.272 96.8482C830.432 97.7869 826.123 98.2562 821.344 98.2562ZM801.888 58.8322H838.368C838.368 52.3469 836.747 47.3549 833.504 43.8562C830.261 40.3575 825.781 38.6082 820.064 38.6082C815.115 38.6082 811.019 40.3575 807.776 43.8562C804.533 47.2695 802.571 52.2615 801.888 58.8322ZM864.345 96.7202V30.1602H875.481V44.6242C876.59 41.8082 878.084 39.2055 879.961 36.8162C881.838 34.3415 884.185 32.3789 887.001 30.9282C889.817 29.3922 893.102 28.6242 896.857 28.6242C898.137 28.6242 899.417 28.7095 900.697 28.8802C901.977 28.9655 903.044 29.1362 903.897 29.3922L900.441 41.2962C898.82 40.6135 896.9 40.2722 894.681 40.2722C891.524 40.2722 888.494 41.1682 885.593 42.9602C882.777 44.7522 880.43 47.5255 878.553 51.2802C876.761 55.0349 875.865 59.8135 875.865 65.6162V96.7202H864.345Z" fill="white"/>
<path d="M1.99998 96.7202H-1.90735e-05V98.7202H1.99998V96.7202ZM1.99998 7.37621L1.75787 5.39092L-1.90735e-05 5.6053V7.37621H1.99998ZM13.52 6.48021L13.6015 8.47855L13.6207 8.47777L13.6398 8.47662L13.52 6.48021ZM45.648 9.68021L44.8136 11.4979L44.826 11.5036L44.8385 11.5091L45.648 9.68021ZM57.552 19.2802L55.8879 20.3896V20.3896L57.552 19.2802ZM56.912 49.6162L58.5416 50.7757H58.5416L56.912 49.6162ZM43.728 59.8562L44.4852 61.7073L44.4972 61.7024L44.5091 61.6974L43.728 59.8562ZM14.16 62.9282L14.3261 60.9351L12.16 60.7546V62.9282H14.16ZM14.16 96.7202V98.7202H16.16V96.7202H14.16ZM43.344 48.0802L42.0792 46.5309L42.0792 46.5309L43.344 48.0802ZM19.92 16.4642L19.8367 14.4659V14.4659L19.92 16.4642ZM14.16 16.8482L13.9704 14.8572L12.16 15.0296V16.8482H14.16ZM14.16 52.5602H12.16V54.3258L13.9119 54.5448L14.16 52.5602ZM19.152 53.0722L18.9787 55.0647L19.0219 55.0684L19.0651 55.0703L19.152 53.0722ZM1.99998 96.7202H3.99998V7.37621H1.99998H-1.90735e-05V96.7202H1.99998ZM1.99998 7.37621L2.24209 9.3615C5.67869 8.94241 9.46428 8.64742 13.6015 8.47855L13.52 6.48021L13.4384 4.48187C9.21301 4.65434 5.31861 4.95669 1.75787 5.39092L1.99998 7.37621ZM13.52 6.48021L13.6398 8.47662C17.8643 8.22315 22.219 8.09621 26.704 8.09621V6.09621V4.09621C22.1437 4.09621 17.709 4.22527 13.4002 4.4838L13.52 6.48021ZM26.704 6.09621V8.09621C33.9219 8.09621 39.9355 9.25871 44.8136 11.4979L45.648 9.68021L46.4823 7.86256C40.9498 5.32306 34.3341 4.09621 26.704 4.09621V6.09621ZM45.648 9.68021L44.8385 11.5091C49.7519 13.6838 53.3993 16.6567 55.8879 20.3896L57.552 19.2802L59.2161 18.1708C56.2434 13.7117 51.9548 10.2846 46.4575 7.85136L45.648 9.68021ZM57.552 19.2802L55.8879 20.3896C58.383 24.1322 59.648 28.4335 59.648 33.3602H61.648H63.648C63.648 27.7056 62.1823 22.6202 59.2161 18.1708L57.552 19.2802ZM61.648 33.3602H59.648C59.648 39.4195 58.1587 44.4143 55.2824 48.4567L56.912 49.6162L58.5416 50.7757C61.9799 45.9435 63.648 40.1009 63.648 33.3602H61.648ZM56.912 49.6162L55.2824 48.4567C52.3651 52.5567 48.2816 55.7518 42.9469 58.015L43.728 59.8562L44.5091 61.6974C50.4384 59.1819 55.1442 55.5504 58.5416 50.7757L56.912 49.6162ZM43.728 59.8562L42.9707 58.0051C37.6257 60.1917 31.3639 61.3122 24.144 61.3122V63.3122V65.3122C31.7721 65.3122 38.5663 64.1287 44.4852 61.7073L43.728 59.8562ZM24.144 63.3122V61.3122C20.6068 61.3122 17.3348 61.1859 14.3261 60.9351L14.16 62.9282L13.9939 64.9213C17.1291 65.1826 20.5132 65.3122 24.144 65.3122V63.3122ZM14.16 62.9282H12.16V96.7202H14.16H16.16V62.9282H14.16ZM14.16 96.7202V94.7202H1.99998V96.7202V98.7202H14.16V96.7202ZM25.68 53.2002V55.2002C33.5509 55.2002 39.9496 53.4329 44.6087 49.6295L43.344 48.0802L42.0792 46.5309C38.3757 49.5542 32.9984 51.2002 25.68 51.2002V53.2002ZM43.344 48.0802L44.6087 49.6295C49.2861 45.8113 51.616 40.6613 51.616 34.3842H49.616H47.616C47.616 39.5418 45.7645 43.5225 42.0792 46.5309L43.344 48.0802ZM49.616 34.3842H51.616C51.616 28.2858 49.3769 23.299 44.8574 19.645L43.6 21.2002L42.3425 22.7555C45.8444 25.5868 47.616 29.3893 47.616 34.3842H49.616ZM43.6 21.2002L44.8574 19.645C40.3636 16.0116 34.1336 14.3362 26.448 14.3362V16.3362V18.3362C33.6103 18.3362 38.8151 19.9035 42.3425 22.7555L43.6 21.2002ZM26.448 16.3362V14.3362C24.1196 14.3362 21.9156 14.3793 19.8367 14.4659L19.92 16.4642L20.0032 18.4625C22.0204 18.3784 24.1684 18.3362 26.448 18.3362V16.3362ZM19.92 16.4642L19.8367 14.4659C17.758 14.5526 15.8022 14.6828 13.9704 14.8572L14.16 16.8482L14.3496 18.8392C16.1018 18.6723 17.986 18.5465 20.0032 18.4625L19.92 16.4642ZM14.16 16.8482H12.16V52.5602H14.16H16.16V16.8482H14.16ZM14.16 52.5602L13.9119 54.5448C15.3102 54.7196 17.0007 54.8927 18.9787 55.0647L19.152 53.0722L19.3252 51.0797C17.3779 50.9104 15.7404 50.7422 14.4081 50.5757L14.16 52.5602ZM19.152 53.0722L19.0651 55.0703C21.0621 55.1572 23.2676 55.2002 25.68 55.2002V53.2002V51.2002C23.3137 51.2002 21.1672 51.1579 19.2389 51.0741L19.152 53.0722ZM83.588 94.0322L84.6451 92.3344V92.3344L83.588 94.0322ZM72.708 82.1282L70.925 83.0343L70.934 83.0519L70.9433 83.0694L72.708 82.1282ZM72.708 45.9042L70.9307 44.9869L70.9249 44.9983L70.9191 45.0098L72.708 45.9042ZM83.844 33.3602L84.9393 35.0336L84.9465 35.0289L83.844 33.3602ZM110.596 30.6722L109.784 32.4998L109.814 32.5133L109.845 32.5257L110.596 30.6722ZM118.788 35.5362L117.491 37.0587L120.788 39.8672V35.5362H118.788ZM118.788 30.1602V28.1602H116.788V30.1602H118.788ZM129.284 30.1602H131.284V28.1602H129.284V30.1602ZM131.588 86.9922L130.479 88.6563L130.531 88.6914L130.586 88.7231L131.588 86.9922ZM136.836 88.4002L138.766 88.9241L139.451 86.4002H136.836V88.4002ZM134.404 97.3602V99.3602H135.934L136.334 97.8841L134.404 97.3602ZM119.556 87.3762L121.493 86.8795L120.43 82.7332L117.932 86.2089L119.556 87.3762ZM111.492 94.9282L112.601 96.5923L112.611 96.5859L111.492 94.9282ZM110.468 85.7122L111.404 87.4798L111.424 87.4692L111.444 87.4581L110.468 85.7122ZM117.764 79.6962L119.309 80.9657L119.764 80.4123V79.6962H117.764ZM117.764 43.9842H119.764V42.9461L118.915 42.3486L117.764 43.9842ZM110.084 40.1442L109.382 42.0169L109.416 42.0299L109.452 42.0416L110.084 40.1442ZM90.5 41.8082L91.6094 43.4723L91.6197 43.4654L90.5 41.8082ZM83.204 50.5122L85.0011 51.3899L85.0051 51.3818L85.0089 51.3737L83.204 50.5122ZM83.204 76.2402L81.399 77.1017L81.4029 77.1098L81.4068 77.1179L83.204 76.2402ZM90.628 84.9442L89.5083 86.6014L89.5238 86.6119L89.5396 86.6221L90.628 84.9442ZM98.692 98.2562V96.2562C93.5029 96.2562 88.8371 94.9445 84.6451 92.3344L83.588 94.0322L82.5309 95.73C87.3842 98.7519 92.7878 100.256 98.692 100.256V98.2562ZM83.588 94.0322L84.6451 92.3344C80.4469 89.7204 77.0532 86.0255 74.4727 81.187L72.708 82.1282L70.9433 83.0694C73.8241 88.4709 77.6837 92.712 82.5309 95.73L83.588 94.0322ZM72.708 82.1282L74.491 81.2221C72.0139 76.348 70.74 70.5686 70.74 63.8242H68.74H66.74C66.74 71.0745 68.1114 77.4978 70.925 83.0343L72.708 82.1282ZM68.74 63.8242H70.74C70.74 57.4395 72.0069 51.7785 74.4968 46.7986L72.708 45.9042L70.9191 45.0098C68.1184 50.6113 66.74 56.897 66.74 63.8242H68.74ZM72.708 45.9042L74.4852 46.8215C77.0677 41.818 80.5525 37.905 84.9393 35.0336L83.844 33.3602L82.7487 31.6868C77.7488 34.9595 73.8096 39.4091 70.9307 44.9869L72.708 45.9042ZM83.844 33.3602L84.9465 35.0289C89.374 32.1036 94.4461 30.6242 100.228 30.6242V28.6242V26.6242C93.7218 26.6242 87.8713 28.3022 82.7415 31.6915L83.844 33.3602ZM100.228 28.6242V30.6242C103.828 30.6242 107.001 31.2632 109.784 32.4998L110.596 30.6722L111.408 28.8446C108.047 27.3505 104.308 26.6242 100.228 26.6242V28.6242ZM110.596 30.6722L109.845 32.5257C112.828 33.7352 115.369 35.2511 117.491 37.0587L118.788 35.5362L120.085 34.0137C117.599 31.896 114.678 30.1692 111.347 28.8187L110.596 30.6722ZM118.788 35.5362H120.788V30.1602H118.788H116.788V35.5362H118.788ZM118.788 30.1602V32.1602H129.284V30.1602V28.1602H118.788V30.1602ZM129.284 30.1602H127.284V80.5922H129.284H131.284V30.1602H129.284ZM129.284 80.5922H127.284C127.284 84.0041 128.07 87.0508 130.479 88.6563L131.588 86.9922L132.697 85.3281C132.034 84.8856 131.284 83.6657 131.284 80.5922H129.284ZM131.588 86.9922L130.586 88.7231C132.512 89.8384 134.608 90.4002 136.836 90.4002V88.4002V86.4002C135.31 86.4002 133.906 86.0233 132.59 85.2614L131.588 86.9922ZM136.836 88.4002L134.906 87.8763L132.474 96.8363L134.404 97.3602L136.334 97.8841L138.766 88.9241L136.836 88.4002ZM134.404 97.3602V95.3602C130.561 95.3602 127.707 94.578 125.664 93.2045C123.658 91.8556 122.245 89.8092 121.493 86.8795L119.556 87.3762L117.619 87.873C118.574 91.5992 120.489 94.5448 123.432 96.5239C126.339 98.4784 130.055 99.3602 134.404 99.3602V97.3602ZM119.556 87.3762L117.932 86.2089C116.134 88.7099 113.633 91.0701 110.373 93.2705L111.492 94.9282L112.611 96.5859C116.178 94.1783 119.052 91.5039 121.18 88.5435L119.556 87.3762ZM111.492 94.9282L110.383 93.2641C107.469 95.2065 103.62 96.2562 98.692 96.2562V98.2562V100.256C104.175 100.256 108.859 99.0872 112.601 96.5923L111.492 94.9282ZM101.252 88.0162V90.0162C104.825 90.0162 108.218 89.1665 111.404 87.4798L110.468 85.7122L109.532 83.9446C106.915 85.33 104.164 86.0162 101.252 86.0162V88.0162ZM110.468 85.7122L111.444 87.4581C114.547 85.7241 117.177 83.5621 119.309 80.9657L117.764 79.6962L116.219 78.4267C114.426 80.609 112.192 82.4576 109.492 83.9663L110.468 85.7122ZM117.764 79.6962H119.764V43.9842H117.764H115.764V79.6962H117.764ZM117.764 43.9842L118.915 42.3486C116.443 40.6094 113.707 39.2438 110.716 38.2468L110.084 40.1442L109.452 42.0416C112.093 42.922 114.477 44.1164 116.613 45.6198L117.764 43.9842ZM110.084 40.1442L110.786 38.2716C107.819 37.1589 104.679 36.6082 101.38 36.6082V38.6082V40.6082C104.225 40.6082 106.887 41.0815 109.382 42.0169L110.084 40.1442ZM101.38 38.6082V36.6082C96.9163 36.6082 92.8934 37.7773 89.3803 40.151L90.5 41.8082L91.6197 43.4654C94.4213 41.5724 97.6517 40.6082 101.38 40.6082V38.6082ZM90.5 41.8082L89.3906 40.1441C85.982 42.4165 83.3261 45.613 81.399 49.6508L83.204 50.5122L85.0089 51.3737C86.6658 47.9021 88.874 45.2959 91.6094 43.4723L90.5 41.8082ZM83.204 50.5122L81.4068 49.6345C79.456 53.6291 78.516 58.2502 78.516 63.4402H80.516H82.516C82.516 58.7315 83.3679 54.734 85.0011 51.3899L83.204 50.5122ZM80.516 63.4402H78.516C78.516 68.4727 79.4608 73.0407 81.399 77.1017L83.204 76.2402L85.0089 75.3788C83.3631 71.9304 82.516 67.9651 82.516 63.4402H80.516ZM83.204 76.2402L81.4068 77.1179C83.3411 81.0786 86.04 84.258 89.5083 86.6014L90.628 84.9442L91.7477 83.287C88.9013 81.3638 86.6508 78.7405 85.0011 75.3625L83.204 76.2402ZM90.628 84.9442L89.5396 86.6221C93.0354 88.8897 96.9579 90.0162 101.252 90.0162V88.0162V86.0162C97.6954 86.0162 94.5352 85.0947 91.7164 83.2663L90.628 84.9442ZM161.21 93.9042L160.136 95.5915L160.154 95.6029L160.172 95.6138L161.21 93.9042ZM150.33 81.6162L148.53 82.4874L148.535 82.4989L150.33 81.6162ZM150.33 45.9042L148.541 45.0098L148.535 45.0214L148.53 45.0331L150.33 45.9042ZM161.594 33.3602L162.662 35.0512L162.672 35.0445L162.683 35.0378L161.594 33.3602ZM188.602 29.6482L188.131 31.592L188.144 31.595L188.602 29.6482ZM196.922 32.5922L198.807 33.2617L199.407 31.5726L197.793 30.7919L196.922 32.5922ZM193.466 42.3202L192.572 44.1091L194.594 45.1202L195.351 42.9897L193.466 42.3202ZM186.554 39.7602L186.015 41.6861L186.059 41.6986L186.104 41.709L186.554 39.7602ZM164.282 45.3922L162.826 44.0215L162.825 44.0224L164.282 45.3922ZM167.866 84.6882L166.673 86.2937L166.684 86.3017L166.695 86.3096L167.866 84.6882ZM186.938 86.9922L187.506 88.9098L187.538 88.9002L187.57 88.8896L186.938 86.9922ZM194.362 83.7922L196.239 83.1008L195.456 80.9768L193.445 82.015L194.362 83.7922ZM197.946 93.5202L198.908 95.2738L200.418 94.4454L199.823 92.8288L197.946 93.5202ZM188.986 96.9762L188.489 95.0388L188.477 95.0421L188.986 96.9762ZM177.85 98.2562V96.2562C171.853 96.2562 166.675 94.8823 162.248 92.1946L161.21 93.9042L160.172 95.6138C165.303 98.7288 171.218 100.256 177.85 100.256V98.2562ZM161.21 93.9042L162.284 92.2169C157.914 89.4359 154.53 85.6244 152.125 80.7336L150.33 81.6162L148.535 82.4989C151.25 88.0187 155.12 92.3992 160.136 95.5915L161.21 93.9042ZM150.33 81.6162L152.13 80.7451C149.721 75.7666 148.49 70.0138 148.49 63.4402H146.49H144.49C144.49 70.52 145.819 76.8845 148.53 82.4873L150.33 81.6162ZM146.49 63.4402H148.49C148.49 57.3147 149.713 51.7709 152.13 46.7753L150.33 45.9042L148.53 45.0331C145.827 50.6189 144.49 56.7657 144.49 63.4402H146.49ZM150.33 45.9042L152.119 46.7986C154.606 41.8246 158.115 37.9227 162.662 35.0512L161.594 33.3602L160.526 31.6692C155.345 34.9417 151.345 39.4025 148.541 45.0098L150.33 45.9042ZM161.594 33.3602L162.683 35.0378C167.181 32.118 172.509 30.6242 178.746 30.6242V28.6242V26.6242C171.842 26.6242 165.735 28.2878 160.505 31.6826L161.594 33.3602ZM178.746 28.6242V30.6242C182.386 30.6242 185.507 30.9558 188.131 31.5919L188.602 29.6482L189.073 27.7045C186.065 26.9753 182.615 26.6242 178.746 26.6242V28.6242ZM188.602 29.6482L188.144 31.595C190.905 32.2446 193.539 33.1773 196.051 34.3925L196.922 32.5922L197.793 30.7919C195.014 29.4472 192.102 28.4171 189.06 27.7014L188.602 29.6482ZM196.922 32.5922L195.037 31.9227L191.581 41.6507L193.466 42.3202L195.351 42.9897L198.807 33.2617L196.922 32.5922ZM193.466 42.3202L194.36 40.5314C191.853 39.2778 189.4 38.3645 187.004 37.8114L186.554 39.7602L186.104 41.709C188.145 42.18 190.3 42.9733 192.572 44.1091L193.466 42.3202ZM186.554 39.7602L187.093 37.8343C184.754 37.1794 182.179 36.8642 179.386 36.8642V38.8642V40.8642C181.883 40.8642 184.087 41.1464 186.015 41.6861L186.554 39.7602ZM179.386 38.8642V36.8642C172.861 36.8642 167.299 39.2681 162.826 44.0215L164.282 45.3922L165.738 46.7629C169.457 42.8123 173.964 40.8642 179.386 40.8642V38.8642ZM164.282 45.3922L162.825 44.0224C158.371 48.76 156.266 55.2367 156.266 63.1842H158.266H160.266C160.266 55.9424 162.171 50.5578 165.739 46.762L164.282 45.3922ZM158.266 63.1842H156.266C156.266 68.0441 157.167 72.5123 159.005 76.5558L160.826 75.7282L162.647 74.9006C161.071 71.4348 160.266 67.5404 160.266 63.1842H158.266ZM160.826 75.7282L159.005 76.5558C160.837 80.5846 163.386 83.8518 166.673 86.2937L167.866 84.6882L169.059 83.0827C166.372 81.0873 164.229 78.3812 162.647 74.9006L160.826 75.7282ZM167.866 84.6882L166.695 86.3096C170.136 88.7946 174.137 90.0162 178.618 90.0162V88.0162V86.0162C174.906 86.0162 171.74 85.0191 169.037 83.0669L167.866 84.6882ZM178.618 88.0162V90.0162C181.991 90.0162 184.966 89.6624 187.506 88.9098L186.938 86.9922L186.37 85.0746C184.302 85.6874 181.731 86.0162 178.618 86.0162V88.0162ZM186.938 86.9922L187.57 88.8896C189.991 88.0826 192.562 86.972 195.279 85.5695L194.362 83.7922L193.445 82.015C190.871 83.3431 188.493 84.3658 186.306 85.0948L186.938 86.9922ZM194.362 83.7922L192.485 84.4836L196.069 94.2116L197.946 93.5202L199.823 92.8288L196.239 83.1008L194.362 83.7922ZM197.946 93.5202L196.984 91.7666C194.504 93.1266 191.677 94.2215 188.489 95.0389L188.986 96.9762L189.483 98.9135C192.951 98.0243 196.097 96.8152 198.908 95.2738L197.946 93.5202ZM188.986 96.9762L188.477 95.0421C185.435 95.8425 181.9 96.2562 177.85 96.2562V98.2562V100.256C182.163 100.256 186.051 99.8166 189.495 98.9104L188.986 96.9762ZM213.935 89.1682L212.45 90.5084L212.46 90.5192L212.47 90.5299L213.935 89.1682ZM209.327 45.6482L207.527 44.7771L207.521 44.7895L209.327 45.6482ZM219.951 33.2322L221.053 34.9011L221.064 34.894L221.075 34.8866L219.951 33.2322ZM251.567 32.8482L250.45 34.5071L250.469 34.5201L250.489 34.5328L251.567 32.8482ZM261.167 43.9842L262.988 43.1566V43.1566L261.167 43.9842ZM263.983 68.1762V70.1762H265.809L265.975 68.3573L263.983 68.1762ZM217.391 68.1762V66.1762H215.129L215.406 68.4209L217.391 68.1762ZM248.495 86.8642L248.98 88.8045L249.005 88.7982L249.03 88.7913L248.495 86.8642ZM257.327 83.6642L259.257 83.138L258.638 80.8712L256.499 81.8435L257.327 83.6642ZM260.015 93.5202L260.827 95.3478L262.396 94.6505L261.945 92.994L260.015 93.5202ZM249.647 96.8482L249.213 94.8958L249.193 94.9004L249.172 94.9054L249.647 96.8482ZM217.263 58.8322L215.274 58.6255L215.044 60.8322H217.263V58.8322ZM253.743 58.8322V60.8322H255.743V58.8322H253.743ZM248.879 43.8562L247.412 45.2157V45.2157L248.879 43.8562ZM223.151 43.8562L224.601 45.2337L224.609 45.2248L224.618 45.2157L223.151 43.8562ZM236.719 98.2562V96.2562C227.623 96.2562 220.594 93.3937 215.4 87.8065L213.935 89.1682L212.47 90.5299C218.54 97.0601 226.701 100.256 236.719 100.256V98.2562ZM213.935 89.1682L215.42 87.828C210.301 82.1587 207.615 74.1194 207.615 63.4402H205.615H203.615C203.615 74.777 206.475 83.8897 212.45 90.5084L213.935 89.1682ZM205.615 63.4402H207.615C207.615 57.0354 208.804 51.4054 211.133 46.5069L209.327 45.6482L207.521 44.7895C204.9 50.3017 203.615 56.533 203.615 63.4402H205.615ZM209.327 45.6482L211.127 46.5193C213.544 41.5243 216.856 37.6729 221.053 34.9011L219.951 33.2322L218.849 31.5633C214.001 34.7649 210.23 39.1908 207.527 44.7771L209.327 45.6482ZM219.951 33.2322L221.075 34.8866C225.235 32.0607 230.084 30.6242 235.695 30.6242V28.6242V26.6242C229.36 26.6242 223.712 28.2598 218.827 31.5778L219.951 33.2322ZM235.695 28.6242V30.6242C241.804 30.6242 246.677 31.9665 250.45 34.5071L251.567 32.8482L252.684 31.1893C248.094 28.0979 242.386 26.6242 235.695 26.6242V28.6242ZM251.567 32.8482L250.489 34.5328C254.424 37.0515 257.37 40.4632 259.346 44.8118L261.167 43.9842L262.988 43.1566C260.698 38.1186 257.243 34.1062 252.645 31.1637L251.567 32.8482ZM261.167 43.9842L259.346 44.8118C261.351 49.222 262.367 54.099 262.367 59.4722H264.367H266.367C266.367 53.5814 265.25 48.1331 262.988 43.1566L261.167 43.9842ZM264.367 59.4722H262.367C262.367 62.4018 262.241 65.2426 261.991 67.9951L263.983 68.1762L265.975 68.3573C266.237 65.4778 266.367 62.516 266.367 59.4722H264.367ZM263.983 68.1762V66.1762H217.391V68.1762V70.1762H263.983V68.1762ZM217.391 68.1762L215.406 68.4209C216.215 74.9844 218.538 80.3101 222.522 84.1994L223.919 82.7682L225.316 81.3371C222.132 78.229 220.103 73.8267 219.376 67.9315L217.391 68.1762ZM223.919 82.7682L222.522 84.1994C226.544 88.1261 231.815 90.0162 238.127 90.0162V88.0162V86.0162C232.663 86.0162 228.462 84.4076 225.316 81.3371L223.919 82.7682ZM238.127 88.0162V90.0162C242.097 90.0162 245.72 89.6195 248.98 88.8045L248.495 86.8642L248.01 84.9239C245.126 85.6449 241.837 86.0162 238.127 86.0162V88.0162ZM248.495 86.8642L249.03 88.7913C252.199 87.911 255.241 86.8092 258.155 85.4849L257.327 83.6642L256.499 81.8435C253.781 83.0792 250.935 84.1108 247.96 84.9372L248.495 86.8642ZM257.327 83.6642L255.397 84.1904L258.085 94.0464L260.015 93.5202L261.945 92.994L259.257 83.138L257.327 83.6642ZM260.015 93.5202L259.203 91.6926C256.271 92.9956 252.944 94.0667 249.213 94.8958L249.647 96.8482L250.081 98.8006C254.029 97.9231 257.615 96.7755 260.827 95.3478L260.015 93.5202ZM249.647 96.8482L249.172 94.9054C245.516 95.7992 241.37 96.2562 236.719 96.2562V98.2562V100.256C241.626 100.256 246.098 99.7746 250.122 98.791L249.647 96.8482ZM217.263 58.8322V60.8322H253.743V58.8322V56.8322H217.263V58.8322ZM253.743 58.8322H255.743C255.743 52.0266 254.039 46.4809 250.346 42.4967L248.879 43.8562L247.412 45.2157C250.205 48.2289 251.743 52.6672 251.743 58.8322H253.743ZM248.879 43.8562L250.346 42.4967C246.65 38.5094 241.593 36.6082 235.439 36.6082V38.6082V40.6082C240.719 40.6082 244.622 42.2057 247.412 45.2157L248.879 43.8562ZM235.439 38.6082V36.6082C229.956 36.6082 225.321 38.5726 221.684 42.4967L223.151 43.8562L224.618 45.2157C227.466 42.1424 231.023 40.6082 235.439 40.6082V38.6082ZM223.151 43.8562L221.701 42.4787C218.053 46.3188 215.984 51.7889 215.274 58.6255L217.263 58.8322L219.252 59.0389C219.907 52.7342 221.764 48.2203 224.601 45.2337L223.151 43.8562ZM324.623 95.8242L323.991 97.7216L324.005 97.7263L324.019 97.7309L324.623 95.8242ZM311.695 89.1682L309.98 88.1392L309.07 89.6563L310.464 90.7448L311.695 89.1682ZM317.839 78.9282L319.119 77.3918L317.325 75.8968L316.124 77.8992L317.839 78.9282ZM356.239 83.7922L357.401 85.4197V85.4197L356.239 83.7922ZM360.079 66.8962L358.306 67.8213L358.314 67.8377L358.323 67.8539L360.079 66.8962ZM354.063 61.2642L352.976 62.9434L353.005 62.9618L353.034 62.9792L354.063 61.2642ZM341.135 55.2482L340.41 57.1122L340.423 57.1172L340.436 57.122L341.135 55.2482ZM326.415 48.0802L325.297 49.7384L325.31 49.7474L325.324 49.7562L326.415 48.0802ZM318.479 39.7602L316.681 40.6351L316.695 40.6647L316.71 40.6937L318.479 39.7602ZM319.631 17.1042L317.979 15.9763L317.973 15.9853L319.631 17.1042ZM329.999 8.78421L330.824 10.6061L330.832 10.6027L330.839 10.5991L329.999 8.78421ZM360.847 7.24821L360.334 9.18133L360.357 9.18743L360.38 9.19298L360.847 7.24821ZM373.263 11.7282L375.099 12.5215L375.856 10.7703L374.142 9.93178L373.263 11.7282ZM368.783 22.0962L367.769 23.8201L369.721 24.9682L370.619 22.8895L368.783 22.0962ZM358.543 17.8722L357.949 19.7819L357.974 19.7897L357.999 19.7968L358.543 17.8722ZM329.615 33.8722L327.863 34.836V34.836L329.615 33.8722ZM335.119 38.8642L334.098 40.5839L334.109 40.5908L334.121 40.5975L335.119 38.8642ZM347.663 44.3682L348.36 42.4936L348.356 42.492L347.663 44.3682ZM363.407 52.1762L362.248 53.8061L362.256 53.8121L362.265 53.818L363.407 52.1762ZM371.727 61.1362L369.938 62.0306L369.943 62.0403L369.948 62.0498L371.727 61.1362ZM369.935 86.2242L368.31 85.0584L368.301 85.0702L368.293 85.0821L369.935 86.2242ZM358.415 95.1842L357.65 93.3361L357.639 93.3409L358.415 95.1842ZM341.647 98.2562V96.2562C335.59 96.2562 330.123 95.468 325.227 93.9175L324.623 95.8242L324.019 97.7309C329.363 99.423 335.245 100.256 341.647 100.256V98.2562ZM324.623 95.8242L325.255 93.9268C320.306 92.2772 316.211 90.1555 312.926 87.5916L311.695 89.1682L310.464 90.7448C314.177 93.6423 318.7 95.9579 323.991 97.7216L324.623 95.8242ZM311.695 89.1682L313.41 90.1972L319.554 79.9572L317.839 78.9282L316.124 77.8992L309.98 88.1392L311.695 89.1682ZM317.839 78.9282L316.559 80.4647C319.788 83.1562 323.415 85.348 327.429 87.0427L328.207 85.2002L328.985 83.3577C325.319 81.8098 322.034 79.8203 319.119 77.3918L317.839 78.9282ZM328.207 85.2002L327.429 87.0427C331.565 88.7888 336.319 89.6322 341.647 89.6322V87.6322V85.6322C336.735 85.6322 332.529 84.8543 328.985 83.3577L328.207 85.2002ZM341.647 87.6322V89.6322C348.048 89.6322 353.368 88.3008 357.401 85.4197L356.239 83.7922L355.077 82.1647C351.942 84.4036 347.534 85.6322 341.647 85.6322V87.6322ZM356.239 83.7922L357.401 85.4197C361.504 82.4896 363.615 78.4313 363.615 73.4242H361.615H359.615C359.615 77.1211 358.142 79.9748 355.077 82.1647L356.239 83.7922ZM361.615 73.4242H363.615C363.615 70.6679 363.043 68.1529 361.835 65.9385L360.079 66.8962L358.323 67.8539C359.163 69.3942 359.615 71.2312 359.615 73.4242H361.615ZM360.079 66.8962L361.852 65.9711C360.586 63.5447 358.229 61.4316 355.092 59.5492L354.063 61.2642L353.034 62.9792C355.87 64.6808 357.524 66.3223 358.306 67.8213L360.079 66.8962ZM354.063 61.2642L355.149 59.5851C352.068 57.5911 347.601 55.5262 341.834 53.3744L341.135 55.2482L340.436 57.122C346.104 59.2369 350.255 61.1826 352.976 62.9434L354.063 61.2642ZM341.135 55.2482L341.86 53.3842C335.787 51.0224 331.018 48.691 327.506 46.4042L326.415 48.0802L325.324 49.7562C329.151 52.2481 334.195 54.6953 340.41 57.1122L341.135 55.2482ZM326.415 48.0802L327.533 46.4221C324.064 44.0824 321.679 41.5382 320.248 38.8267L318.479 39.7602L316.71 40.6937C318.522 44.1263 321.427 47.1287 325.297 49.7384L326.415 48.0802ZM318.479 39.7602L320.277 38.8853C318.9 36.0529 318.175 32.6519 318.175 28.6242H316.175H314.175C314.175 33.1298 314.986 37.1528 316.681 40.6351L318.479 39.7602ZM316.175 28.6242H318.175C318.175 24.7411 319.216 21.2936 321.289 18.2232L319.631 17.1042L317.973 15.9853C315.438 19.7415 314.175 23.974 314.175 28.6242H316.175ZM319.631 17.1042L321.283 18.2321C323.432 15.0849 326.577 12.5292 330.824 10.6061L329.999 8.78421L329.174 6.9623C324.376 9.13519 320.609 12.1262 317.979 15.9763L319.631 17.1042ZM329.999 8.78421L330.839 10.5991C335.122 8.6166 340.366 7.58421 346.639 7.58421V5.58421V3.58421C339.941 3.58421 334.092 4.68516 329.159 6.96928L329.999 8.78421ZM346.639 5.58421V7.58421C351.793 7.58421 356.352 8.12496 360.334 9.18133L360.847 7.24821L361.36 5.31509C356.979 4.15279 352.066 3.58421 346.639 3.58421V5.58421ZM360.847 7.24821L360.38 9.19298C364.502 10.1822 368.503 11.6252 372.384 13.5246L373.263 11.7282L374.142 9.93178C370.002 7.90585 365.725 6.36223 361.314 5.30344L360.847 7.24821ZM373.263 11.7282L371.427 10.9349L366.947 21.3029L368.783 22.0962L370.619 22.8895L375.099 12.5215L373.263 11.7282ZM368.783 22.0962L369.797 20.3723C366.721 18.5629 363.143 17.094 359.087 15.9476L358.543 17.8722L357.999 19.7968C361.793 20.8691 365.042 22.2162 367.769 23.8201L368.783 22.0962ZM358.543 17.8722L359.137 15.9625C355.093 14.7044 350.839 14.0802 346.383 14.0802V16.0802V18.0802C350.46 18.0802 354.313 18.6507 357.949 19.7819L358.543 17.8722ZM346.383 16.0802V14.0802C340.515 14.0802 335.632 15.2323 331.942 17.7576L333.071 19.4082L334.2 21.0588C336.995 19.1468 340.987 18.0802 346.383 18.0802V16.0802ZM333.071 19.4082L331.942 17.7576C328.232 20.2955 326.207 23.7359 326.207 27.9842H328.207H330.207C330.207 25.2352 331.424 22.9582 334.2 21.0588L333.071 19.4082ZM328.207 27.9842H326.207C326.207 30.4924 326.74 32.7951 327.863 34.836L329.615 33.8722L331.367 32.9084C330.613 31.536 330.207 29.9133 330.207 27.9842H328.207ZM329.615 33.8722L327.863 34.836C329.05 36.9944 331.234 38.8834 334.098 40.5839L335.119 38.8642L336.14 37.1445C333.543 35.6024 332.058 34.1634 331.367 32.9084L329.615 33.8722ZM335.119 38.8642L334.121 40.5975C337.083 42.303 341.389 44.1835 346.97 46.2444L347.663 44.3682L348.356 42.492C342.844 40.4569 338.787 38.6681 336.117 37.131L335.119 38.8642ZM347.663 44.3682L346.966 46.2428C353.532 48.684 358.603 51.2142 362.248 53.8061L363.407 52.1762L364.566 50.5463C360.531 47.6768 355.106 45.0017 348.36 42.4936L347.663 44.3682ZM363.407 52.1762L362.265 53.818C366 56.4165 368.507 59.1676 369.938 62.0306L371.727 61.1362L373.516 60.2418C371.705 56.6195 368.665 53.3973 364.549 50.5344L363.407 52.1762ZM371.727 61.1362L369.948 62.0498C371.403 64.8838 372.159 68.1889 372.159 72.0162H374.159H376.159C376.159 67.6516 375.293 63.7033 373.506 60.2226L371.727 61.1362ZM374.159 72.0162H372.159C372.159 77.2089 370.847 81.5216 368.31 85.0584L369.935 86.2242L371.56 87.39C374.655 83.0761 376.159 77.9169 376.159 72.0162H374.159ZM369.935 86.2242L368.293 85.0821C365.807 88.6561 362.29 91.4165 357.65 93.3362L358.415 95.1842L359.18 97.0322C364.439 94.856 368.602 91.643 371.577 87.3663L369.935 86.2242ZM358.415 95.1842L357.639 93.3409C353.064 95.2673 347.746 96.2562 341.647 96.2562V98.2562V100.256C348.177 100.256 354.038 99.1971 359.191 97.0275L358.415 95.1842ZM401.085 93.9042L400.011 95.5915L400.029 95.6029L400.047 95.6138L401.085 93.9042ZM390.205 81.6162L388.405 82.4874L388.41 82.4989L390.205 81.6162ZM390.205 45.9042L388.416 45.0098L388.41 45.0214L388.405 45.0331L390.205 45.9042ZM401.469 33.3602L402.537 35.0512L402.547 35.0445L402.558 35.0378L401.469 33.3602ZM428.477 29.6482L428.006 31.592L428.019 31.595L428.477 29.6482ZM436.797 32.5922L438.682 33.2617L439.282 31.5726L437.668 30.7919L436.797 32.5922ZM433.341 42.3202L432.447 44.1091L434.469 45.1202L435.226 42.9897L433.341 42.3202ZM426.429 39.7602L425.89 41.6861L425.934 41.6986L425.979 41.709L426.429 39.7602ZM404.157 45.3922L402.701 44.0215L402.7 44.0224L404.157 45.3922ZM407.741 84.6882L406.548 86.2937L406.559 86.3017L406.57 86.3096L407.741 84.6882ZM426.813 86.9922L427.381 88.9098L427.413 88.9002L427.445 88.8896L426.813 86.9922ZM434.237 83.7922L436.114 83.1008L435.331 80.9768L433.32 82.015L434.237 83.7922ZM437.821 93.5202L438.783 95.2738L440.293 94.4454L439.698 92.8288L437.821 93.5202ZM428.861 96.9762L428.364 95.0388L428.352 95.0421L428.861 96.9762ZM417.725 98.2562V96.2562C411.728 96.2562 406.55 94.8823 402.123 92.1946L401.085 93.9042L400.047 95.6138C405.178 98.7288 411.093 100.256 417.725 100.256V98.2562ZM401.085 93.9042L402.159 92.2169C397.789 89.4359 394.405 85.6244 392 80.7336L390.205 81.6162L388.41 82.4989C391.125 88.0187 394.995 92.3992 400.011 95.5915L401.085 93.9042ZM390.205 81.6162L392.005 80.7451C389.596 75.7666 388.365 70.0138 388.365 63.4402H386.365H384.365C384.365 70.52 385.694 76.8845 388.405 82.4873L390.205 81.6162ZM386.365 63.4402H388.365C388.365 57.3147 389.588 51.7709 392.005 46.7753L390.205 45.9042L388.405 45.0331C385.702 50.6189 384.365 56.7657 384.365 63.4402H386.365ZM390.205 45.9042L391.994 46.7986C394.481 41.8246 397.99 37.9227 402.537 35.0512L401.469 33.3602L400.401 31.6692C395.22 34.9417 391.22 39.4025 388.416 45.0098L390.205 45.9042ZM401.469 33.3602L402.558 35.0378C407.056 32.118 412.384 30.6242 418.621 30.6242V28.6242V26.6242C411.717 26.6242 405.61 28.2878 400.38 31.6826L401.469 33.3602ZM418.621 28.6242V30.6242C422.261 30.6242 425.382 30.9558 428.006 31.5919L428.477 29.6482L428.948 27.7045C425.94 26.9753 422.49 26.6242 418.621 26.6242V28.6242ZM428.477 29.6482L428.019 31.595C430.78 32.2446 433.414 33.1773 435.926 34.3925L436.797 32.5922L437.668 30.7919C434.889 29.4472 431.977 28.4171 428.935 27.7014L428.477 29.6482ZM436.797 32.5922L434.912 31.9227L431.456 41.6507L433.341 42.3202L435.226 42.9897L438.682 33.2617L436.797 32.5922ZM433.341 42.3202L434.235 40.5314C431.728 39.2778 429.275 38.3645 426.879 37.8114L426.429 39.7602L425.979 41.709C428.02 42.18 430.175 42.9733 432.447 44.1091L433.341 42.3202ZM426.429 39.7602L426.968 37.8343C424.629 37.1794 422.054 36.8642 419.261 36.8642V38.8642V40.8642C421.758 40.8642 423.962 41.1464 425.89 41.6861L426.429 39.7602ZM419.261 38.8642V36.8642C412.736 36.8642 407.174 39.2681 402.701 44.0215L404.157 45.3922L405.613 46.7629C409.332 42.8123 413.839 40.8642 419.261 40.8642V38.8642ZM404.157 45.3922L402.7 44.0224C398.246 48.76 396.141 55.2367 396.141 63.1842H398.141H400.141C400.141 55.9424 402.046 50.5578 405.614 46.762L404.157 45.3922ZM398.141 63.1842H396.141C396.141 68.0441 397.042 72.5123 398.88 76.5558L400.701 75.7282L402.522 74.9006C400.946 71.4348 400.141 67.5404 400.141 63.1842H398.141ZM400.701 75.7282L398.88 76.5558C400.712 80.5846 403.261 83.8518 406.548 86.2937L407.741 84.6882L408.934 83.0827C406.247 81.0873 404.104 78.3812 402.522 74.9006L400.701 75.7282ZM407.741 84.6882L406.57 86.3096C410.011 88.7946 414.012 90.0162 418.493 90.0162V88.0162V86.0162C414.781 86.0162 411.615 85.0191 408.912 83.0669L407.741 84.6882ZM418.493 88.0162V90.0162C421.866 90.0162 424.841 89.6624 427.381 88.9098L426.813 86.9922L426.245 85.0746C424.177 85.6874 421.606 86.0162 418.493 86.0162V88.0162ZM426.813 86.9922L427.445 88.8896C429.866 88.0826 432.437 86.972 435.154 85.5695L434.237 83.7922L433.32 82.015C430.746 83.3431 428.368 84.3658 426.181 85.0948L426.813 86.9922ZM434.237 83.7922L432.36 84.4836L435.944 94.2116L437.821 93.5202L439.698 92.8288L436.114 83.1008L434.237 83.7922ZM437.821 93.5202L436.859 91.7666C434.379 93.1266 431.552 94.2215 428.364 95.0389L428.861 96.9762L429.358 98.9135C432.826 98.0243 435.972 96.8152 438.783 95.2738L437.821 93.5202ZM428.861 96.9762L428.352 95.0421C425.31 95.8425 421.775 96.2562 417.725 96.2562V98.2562V100.256C422.038 100.256 425.926 99.8166 429.37 98.9104L428.861 96.9762ZM451.22 96.7202H449.22V98.7202H451.22V96.7202ZM451.22 2.00021V0.000213623H449.22V2.00021H451.22ZM462.74 2.00021H464.74V0.000213623H462.74V2.00021ZM462.74 40.7842H460.74V47.2591L464.392 41.9121L462.74 40.7842ZM471.828 32.0802L472.892 33.774V33.774L471.828 32.0802ZM501.524 35.4082L499.971 36.6683L499.978 36.677L499.985 36.6857L501.524 35.4082ZM507.156 96.7202V98.7202H509.156V96.7202H507.156ZM495.636 96.7202H493.636V98.7202H495.636V96.7202ZM492.308 43.0882L493.897 41.8733V41.8733L492.308 43.0882ZM471.7 42.9602L472.931 44.5368L472.936 44.5329L471.7 42.9602ZM462.74 52.6882L461.07 51.5876L460.74 52.0884V52.6882H462.74ZM462.74 96.7202V98.7202H464.74V96.7202H462.74ZM451.22 96.7202H453.22V2.00021H451.22H449.22V96.7202H451.22ZM451.22 2.00021V4.00021H462.74V2.00021V0.000213623H451.22V2.00021ZM462.74 2.00021H460.74V40.7842H462.74H464.74V2.00021H462.74ZM462.74 40.7842L464.392 41.9121C466.622 38.6457 469.45 35.9352 472.892 33.774L471.828 32.0802L470.764 30.3864C466.868 32.8332 463.636 35.9254 461.088 39.6563L462.74 40.7842ZM471.828 32.0802L472.892 33.774C476.199 31.6974 480.128 30.6242 484.756 30.6242V28.6242V26.6242C479.485 26.6242 474.796 27.8551 470.764 30.3864L471.828 32.0802ZM484.756 28.6242V30.6242C491.851 30.6242 496.786 32.7429 499.971 36.6683L501.524 35.4082L503.077 34.1481C498.923 29.0282 492.679 26.6242 484.756 26.6242V28.6242ZM501.524 35.4082L499.985 36.6857C503.37 40.7633 505.156 46.2451 505.156 53.3282H507.156H509.156C509.156 45.5634 507.187 39.0985 503.063 34.1307L501.524 35.4082ZM507.156 53.3282H505.156V96.7202H507.156H509.156V53.3282H507.156ZM507.156 96.7202V94.7202H495.636V96.7202V98.7202H507.156V96.7202ZM495.636 96.7202H497.636V54.6082H495.636H493.636V96.7202H495.636ZM495.636 54.6082H497.636C497.636 49.5261 496.454 45.2178 493.897 41.8733L492.308 43.0882L490.719 44.3031C492.599 46.7613 493.636 50.133 493.636 54.6082H495.636ZM492.308 43.0882L493.897 41.8733C491.259 38.4238 487.527 36.7362 482.964 36.7362V38.7362V40.7362C486.422 40.7362 488.92 41.9499 490.719 44.3031L492.308 43.0882ZM482.964 38.7362V36.7362C478.52 36.7362 474.341 38.3413 470.464 41.3876L471.7 42.9602L472.936 44.5329C476.227 41.9471 479.557 40.7362 482.964 40.7362V38.7362ZM471.7 42.9602L470.469 41.3836C466.797 44.2498 463.663 47.6539 461.07 51.5876L462.74 52.6882L464.41 53.7888C466.767 50.2132 469.605 47.132 472.931 44.5368L471.7 42.9602ZM462.74 52.6882H460.74V96.7202H462.74H464.74V52.6882H462.74ZM462.74 96.7202V94.7202H451.22V96.7202V98.7202H462.74V96.7202ZM530.81 89.1682L529.325 90.5084L529.335 90.5192L529.345 90.5299L530.81 89.1682ZM526.202 45.6482L524.402 44.7771L524.396 44.7895L526.202 45.6482ZM536.826 33.2322L537.928 34.9011L537.939 34.894L537.95 34.8866L536.826 33.2322ZM568.442 32.8482L567.325 34.5071L567.344 34.5201L567.364 34.5328L568.442 32.8482ZM578.042 43.9842L579.863 43.1566V43.1566L578.042 43.9842ZM580.858 68.1762V70.1762H582.684L582.85 68.3573L580.858 68.1762ZM534.266 68.1762V66.1762H532.004L532.281 68.4209L534.266 68.1762ZM565.37 86.8642L565.855 88.8045L565.88 88.7982L565.905 88.7913L565.37 86.8642ZM574.202 83.6642L576.132 83.138L575.513 80.8712L573.374 81.8435L574.202 83.6642ZM576.89 93.5202L577.702 95.3478L579.271 94.6505L578.82 92.994L576.89 93.5202ZM566.522 96.8482L566.088 94.8958L566.068 94.9004L566.047 94.9054L566.522 96.8482ZM534.138 58.8322L532.149 58.6255L531.919 60.8322H534.138V58.8322ZM570.618 58.8322V60.8322H572.618V58.8322H570.618ZM565.754 43.8562L564.287 45.2157V45.2157L565.754 43.8562ZM540.026 43.8562L541.476 45.2337L541.484 45.2248L541.493 45.2157L540.026 43.8562ZM553.594 98.2562V96.2562C544.498 96.2562 537.469 93.3937 532.275 87.8065L530.81 89.1682L529.345 90.5299C535.415 97.0601 543.576 100.256 553.594 100.256V98.2562ZM530.81 89.1682L532.294 87.828C527.176 82.1587 524.49 74.1194 524.49 63.4402H522.49H520.49C520.49 74.777 523.35 83.8897 529.325 90.5084L530.81 89.1682ZM522.49 63.4402H524.49C524.49 57.0354 525.679 51.4054 528.008 46.5069L526.202 45.6482L524.396 44.7895C521.775 50.3017 520.49 56.533 520.49 63.4402H522.49ZM526.202 45.6482L528.002 46.5193C530.419 41.5243 533.731 37.6729 537.928 34.9011L536.826 33.2322L535.724 31.5633C530.876 34.7649 527.105 39.1908 524.402 44.7771L526.202 45.6482ZM536.826 33.2322L537.95 34.8866C542.11 32.0607 546.959 30.6242 552.57 30.6242V28.6242V26.6242C546.235 26.6242 540.587 28.2598 535.702 31.5778L536.826 33.2322ZM552.57 28.6242V30.6242C558.679 30.6242 563.552 31.9665 567.325 34.5071L568.442 32.8482L569.559 31.1893C564.969 28.0979 559.261 26.6242 552.57 26.6242V28.6242ZM568.442 32.8482L567.364 34.5328C571.299 37.0515 574.245 40.4632 576.221 44.8118L578.042 43.9842L579.863 43.1566C577.573 38.1186 574.118 34.1062 569.52 31.1637L568.442 32.8482ZM578.042 43.9842L576.221 44.8118C578.226 49.222 579.242 54.099 579.242 59.4722H581.242H583.242C583.242 53.5814 582.125 48.1331 579.863 43.1566L578.042 43.9842ZM581.242 59.4722H579.242C579.242 62.4018 579.116 65.2426 578.866 67.9951L580.858 68.1762L582.85 68.3573C583.112 65.4778 583.242 62.516 583.242 59.4722H581.242ZM580.858 68.1762V66.1762H534.266V68.1762V70.1762H580.858V68.1762ZM534.266 68.1762L532.281 68.4209C533.09 74.9844 535.413 80.3101 539.397 84.1994L540.794 82.7682L542.191 81.3371C539.007 78.229 536.978 73.8267 536.251 67.9315L534.266 68.1762ZM540.794 82.7682L539.397 84.1994C543.419 88.1261 548.69 90.0162 555.002 90.0162V88.0162V86.0162C549.538 86.0162 545.337 84.4076 542.191 81.3371L540.794 82.7682ZM555.002 88.0162V90.0162C558.972 90.0162 562.595 89.6195 565.855 88.8045L565.37 86.8642L564.885 84.9239C562.001 85.6449 558.712 86.0162 555.002 86.0162V88.0162ZM565.37 86.8642L565.905 88.7913C569.074 87.911 572.116 86.8092 575.03 85.4849L574.202 83.6642L573.374 81.8435C570.656 83.0792 567.81 84.1108 564.835 84.9372L565.37 86.8642ZM574.202 83.6642L572.272 84.1904L574.96 94.0464L576.89 93.5202L578.82 92.994L576.132 83.138L574.202 83.6642ZM576.89 93.5202L576.078 91.6926C573.146 92.9956 569.819 94.0667 566.088 94.8958L566.522 96.8482L566.956 98.8006C570.904 97.9231 574.49 96.7755 577.702 95.3478L576.89 93.5202ZM566.522 96.8482L566.047 94.9054C562.391 95.7992 558.245 96.2562 553.594 96.2562V98.2562V100.256C558.501 100.256 562.973 99.7746 566.997 98.791L566.522 96.8482ZM534.138 58.8322V60.8322H570.618V58.8322V56.8322H534.138V58.8322ZM570.618 58.8322H572.618C572.618 52.0266 570.914 46.4809 567.221 42.4967L565.754 43.8562L564.287 45.2157C567.08 48.2289 568.618 52.6672 568.618 58.8322H570.618ZM565.754 43.8562L567.221 42.4967C563.525 38.5094 558.468 36.6082 552.314 36.6082V38.6082V40.6082C557.594 40.6082 561.497 42.2057 564.287 45.2157L565.754 43.8562ZM552.314 38.6082V36.6082C546.831 36.6082 542.196 38.5726 538.559 42.4967L540.026 43.8562L541.493 45.2157C544.341 42.1424 547.898 40.6082 552.314 40.6082V38.6082ZM540.026 43.8562L538.576 42.4787C534.928 46.3188 532.859 51.7889 532.149 58.6255L534.138 58.8322L536.127 59.0389C536.782 52.7342 538.639 48.2203 541.476 45.2337L540.026 43.8562ZM606.835 94.0322L607.892 92.3344V92.3344L606.835 94.0322ZM596.083 82.1282L594.3 83.0343L594.306 83.0463L596.083 82.1282ZM596.083 45.7762L594.306 44.8589L594.3 44.8703L594.294 44.8818L596.083 45.7762ZM606.835 33.2322L605.711 31.5778L605.704 31.5828L605.697 31.5878L606.835 33.2322ZM633.075 31.3122L632.088 33.0516L632.098 33.0572L632.108 33.0627L633.075 31.3122ZM640.627 36.8162L639.18 38.1972L642.627 41.808V36.8162H640.627ZM640.627 2.00021V0.000213623H638.627V2.00021H640.627ZM652.147 2.00021H654.147V0.000213623H652.147V2.00021ZM654.451 86.9922L653.342 88.6563L653.394 88.6914L653.449 88.7231L654.451 86.9922ZM659.699 88.4002L661.629 88.9241L662.314 86.4002H659.699V88.4002ZM657.267 97.3602V99.3602H658.797L659.197 97.8841L657.267 97.3602ZM642.419 87.6322L644.347 87.0995L643.225 83.0405L640.788 86.4747L642.419 87.6322ZM634.483 94.9282L633.393 93.2513L633.383 93.2577L633.374 93.2641L634.483 94.9282ZM633.331 85.8402L634.247 87.6182L634.257 87.613L634.267 87.6078L633.331 85.8402ZM640.627 79.9522L642.172 81.2217L642.627 80.6683V79.9522H640.627ZM640.627 46.9282H642.627V46.2324L642.195 45.6868L640.627 46.9282ZM633.843 41.2962L632.792 42.9978L632.81 43.0091L632.829 43.0201L633.843 41.2962ZM613.491 41.9362L612.32 40.3149V40.3149L613.491 41.9362ZM606.323 50.8962L604.502 50.0686L604.498 50.0782L604.494 50.0879L606.323 50.8962ZM606.579 76.1122L604.774 76.9737L604.778 76.9818L604.782 76.9899L606.579 76.1122ZM613.875 84.8162L612.734 86.459L612.745 86.4662L612.755 86.4734L613.875 84.8162ZM621.811 98.2562V96.2562C616.713 96.2562 612.089 94.9477 607.892 92.3344L606.835 94.0322L605.778 95.73C610.626 98.7487 615.986 100.256 621.811 100.256V98.2562ZM606.835 94.0322L607.892 92.3344C603.7 89.7243 600.354 86.0372 597.86 81.2102L596.083 82.1282L594.306 83.0463C597.103 88.4592 600.925 92.7082 605.778 95.73L606.835 94.0322ZM596.083 82.1282L597.866 81.2221C595.389 76.348 594.115 70.5686 594.115 63.8242H592.115H590.115C590.115 71.0745 591.486 77.4978 594.3 83.0343L596.083 82.1282ZM592.115 63.8242H594.115C594.115 57.3498 595.384 51.6471 597.872 46.6706L596.083 45.7762L594.294 44.8818C591.492 50.4867 590.115 56.816 590.115 63.8242H592.115ZM596.083 45.7762L597.86 46.6935C600.456 41.6632 603.832 37.7435 607.973 34.8766L606.835 33.2322L605.697 31.5878C600.963 34.8649 597.171 39.3079 594.306 44.8589L596.083 45.7762ZM606.835 33.2322L607.959 34.8866C612.156 32.0357 616.715 30.6242 621.683 30.6242V28.6242V26.6242C615.899 26.6242 610.559 28.2847 605.711 31.5778L606.835 33.2322ZM621.683 28.6242V30.6242C625.851 30.6242 629.292 31.4645 632.088 33.0516L633.075 31.3122L634.062 29.5728C630.544 27.5759 626.39 26.6242 621.683 26.6242V28.6242ZM633.075 31.3122L632.108 33.0627C635.242 34.7948 637.574 36.5146 639.18 38.1972L640.627 36.8162L642.074 35.4353C640.096 33.3632 637.393 31.4136 634.042 29.5617L633.075 31.3122ZM640.627 36.8162H642.627V2.00021H640.627H638.627V36.8162H640.627ZM640.627 2.00021V4.00021H652.147V2.00021V0.000213623H640.627V2.00021ZM652.147 2.00021H650.147V80.5922H652.147H654.147V2.00021H652.147ZM652.147 80.5922H650.147C650.147 84.0041 650.933 87.0508 653.342 88.6563L654.451 86.9922L655.56 85.3281C654.897 84.8856 654.147 83.6657 654.147 80.5922H652.147ZM654.451 86.9922L653.449 88.7231C655.375 89.8384 657.471 90.4002 659.699 90.4002V88.4002V86.4002C658.173 86.4002 656.769 86.0233 655.453 85.2614L654.451 86.9922ZM659.699 88.4002L657.769 87.8763L655.337 96.8363L657.267 97.3602L659.197 97.8841L661.629 88.9241L659.699 88.4002ZM657.267 97.3602V95.3602C653.463 95.3602 650.62 94.5978 648.571 93.2553C646.559 91.9369 645.132 89.9423 644.347 87.0995L642.419 87.6322L640.491 88.1649C641.498 91.8075 643.442 94.6768 646.379 96.6011C649.279 98.5013 652.964 99.3602 657.267 99.3602V97.3602ZM642.419 87.6322L640.788 86.4747C639.089 88.8693 636.647 91.1364 633.393 93.2513L634.483 94.9282L635.573 96.6051C639.146 94.2827 641.995 91.6858 644.05 88.7897L642.419 87.6322ZM634.483 94.9282L633.374 93.2641C630.455 95.2098 626.646 96.2562 621.811 96.2562V98.2562V100.256C627.216 100.256 631.855 99.0839 635.592 96.5923L634.483 94.9282ZM624.371 88.0162V90.0162C627.848 90.0162 631.149 89.2142 634.247 87.6182L633.331 85.8402L632.415 84.0623C629.881 85.3675 627.209 86.0162 624.371 86.0162V88.0162ZM633.331 85.8402L634.267 87.6078C637.388 85.9556 640.031 83.8282 642.172 81.2217L640.627 79.9522L639.082 78.6827C637.297 80.8548 635.077 82.6529 632.395 84.0726L633.331 85.8402ZM640.627 79.9522H642.627V46.9282H640.627H638.627V79.9522H640.627ZM640.627 46.9282L642.195 45.6868C640.383 43.3982 637.913 41.3698 634.857 39.5723L633.843 41.2962L632.829 43.0201C635.576 44.636 637.628 46.3622 639.059 48.1696L640.627 46.9282ZM633.843 41.2962L634.894 39.5946C631.668 37.6023 628.103 36.6082 624.243 36.6082V38.6082V40.6082C627.381 40.6082 630.215 41.4062 632.792 42.9978L633.843 41.2962ZM624.243 38.6082V36.6082C619.762 36.6082 615.761 37.8298 612.32 40.3149L613.491 41.9362L614.662 43.5576C617.365 41.6053 620.531 40.6082 624.243 40.6082V38.6082ZM613.491 41.9362L612.32 40.3149C608.942 42.7549 606.34 46.0262 604.502 50.0686L606.323 50.8962L608.144 51.7238C609.72 48.2569 611.896 45.5549 614.662 43.5576L613.491 41.9362ZM606.323 50.8962L604.494 50.0879C602.742 54.0514 601.891 58.5153 601.891 63.4402H603.891H605.891C605.891 58.9784 606.661 55.0797 608.152 51.7045L606.323 50.8962ZM603.891 63.4402H601.891C601.891 68.3933 602.838 72.9174 604.774 76.9737L606.579 76.1122L608.384 75.2508C606.736 71.7977 605.891 67.8738 605.891 63.4402H603.891ZM606.579 76.1122L604.782 76.9899C606.71 80.9372 609.356 84.1132 612.734 86.459L613.875 84.8162L615.016 83.1735C612.25 81.2525 610.032 78.6259 608.376 75.2345L606.579 76.1122ZM613.875 84.8162L612.755 86.4734C616.246 88.832 620.135 90.0162 624.371 90.0162V88.0162V86.0162C620.927 86.0162 617.819 85.0671 614.995 83.159L613.875 84.8162ZM677.655 88.0162L675.926 89.0215L675.931 89.0303L675.936 89.0392L677.655 88.0162ZM674.455 30.1602V28.1602H672.455V30.1602H674.455ZM685.975 30.1602H687.975V28.1602H685.975V30.1602ZM689.303 83.9202L687.732 85.158L687.741 85.1698L687.751 85.1814L689.303 83.9202ZM709.143 85.9682L709.919 87.8115L709.931 87.8066L709.942 87.8016L709.143 85.9682ZM717.975 80.2082L719.34 81.6703L719.975 81.0773V80.2082H717.975ZM717.975 30.1602V28.1602H715.975V30.1602H717.975ZM729.495 30.1602H731.495V28.1602H729.495V30.1602ZM731.799 86.7362L730.571 88.3149L730.619 88.3524L730.67 88.3868L731.799 86.7362ZM737.047 88.4002L738.977 88.9241L739.662 86.4002H737.047V88.4002ZM734.615 97.3602V99.3602H736.144L736.545 97.8841L734.615 97.3602ZM719.895 87.8882L721.812 87.3183L720.84 84.0474L718.461 86.4941L719.895 87.8882ZM709.527 95.4402L710.39 97.2445L710.406 97.2369L710.421 97.2291L709.527 95.4402ZM696.855 98.2562V96.2562C693.307 96.2562 689.974 95.5095 686.833 94.0177L685.975 95.8242L685.117 97.6308C688.803 99.3816 692.723 100.256 696.855 100.256V98.2562ZM685.975 95.8242L686.833 94.0177C683.815 92.5839 681.326 90.2733 679.374 86.9932L677.655 88.0162L675.936 89.0392C678.251 92.9271 681.309 95.8218 685.117 97.6308L685.975 95.8242ZM677.655 88.0162L679.384 87.011C677.488 83.7502 676.455 79.2722 676.455 73.4242H674.455H672.455C672.455 79.6935 673.555 84.9436 675.926 89.0215L677.655 88.0162ZM674.455 73.4242H676.455V30.1602H674.455H672.455V73.4242H674.455ZM674.455 30.1602V32.1602H685.975V30.1602V28.1602H674.455V30.1602ZM685.975 30.1602H683.975V71.8882H685.975H687.975V30.1602H685.975ZM685.975 71.8882H683.975C683.975 77.3461 685.134 81.8609 687.732 85.158L689.303 83.9202L690.874 82.6825C689.034 80.3475 687.975 76.841 687.975 71.8882H685.975ZM689.303 83.9202L687.751 85.1814C690.43 88.4792 694.304 90.0162 699.031 90.0162V88.0162V86.0162C695.225 86.0162 692.613 84.8226 690.855 82.659L689.303 83.9202ZM699.031 88.0162V90.0162C702.798 90.0162 706.432 89.2797 709.919 87.8115L709.143 85.9682L708.367 84.1249C705.368 85.3874 702.262 86.0162 699.031 86.0162V88.0162ZM709.143 85.9682L709.942 87.8016C713.471 86.2636 716.608 84.2203 719.34 81.6703L717.975 80.2082L716.61 78.7461C714.222 80.9748 711.471 82.7715 708.344 84.1348L709.143 85.9682ZM717.975 80.2082H719.975V30.1602H717.975H715.975V80.2082H717.975ZM717.975 30.1602V32.1602H729.495V30.1602V28.1602H717.975V30.1602ZM729.495 30.1602H727.495V79.4402H729.495H731.495V30.1602H729.495ZM729.495 79.4402H727.495C727.495 83.2188 728.253 86.5121 730.571 88.3149L731.799 86.7362L733.027 85.1575C732.273 84.571 731.495 83.0003 731.495 79.4402H729.495ZM731.799 86.7362L730.67 88.3868C732.607 89.7126 734.747 90.4002 737.047 90.4002V88.4002V86.4002C735.592 86.4002 734.233 85.9785 732.928 85.0856L731.799 86.7362ZM737.047 88.4002L735.117 87.8763L732.685 96.8363L734.615 97.3602L736.545 97.8841L738.977 88.9241L737.047 88.4002ZM734.615 97.3602V95.3602C730.897 95.3602 728.099 94.6191 726.065 93.3103C724.066 92.0241 722.633 90.0802 721.812 87.3183L719.895 87.8882L717.978 88.4582C719.034 92.0109 720.993 94.803 723.901 96.6741C726.774 98.5227 730.397 99.3602 734.615 99.3602V97.3602ZM719.895 87.8882L718.461 86.4941C715.635 89.4012 712.362 91.7866 708.633 93.6514L709.527 95.4402L710.421 97.2291C714.543 95.1685 718.182 92.5192 721.329 89.2824L719.895 87.8882ZM709.527 95.4402L708.664 93.6359C705.019 95.3793 701.091 96.2562 696.855 96.2562V98.2562V100.256C701.664 100.256 706.184 99.2558 710.39 97.2445L709.527 95.4402ZM761.945 96.0802L761.07 97.8787L761.09 97.8883L761.11 97.8976L761.945 96.0802ZM754.393 88.7842L752.632 89.7324L752.641 89.7497L752.651 89.7669L754.393 88.7842ZM751.705 2.00021V0.000213623H749.705V2.00021H751.705ZM763.225 2.00021H765.225V0.000213623H763.225V2.00021ZM766.041 84.9442L764.514 86.2361L764.528 86.2529L764.543 86.2694L766.041 84.9442ZM778.841 87.7602L779.275 89.7126L779.313 89.7042L779.35 89.6944L778.841 87.7602ZM782.937 86.3522L784.852 85.7751L784.188 83.5721L782.099 84.5363L782.937 86.3522ZM785.753 95.6962L786.565 97.5238L788.177 96.8076L787.668 95.1191L785.753 95.6962ZM779.993 97.4882L779.559 95.5358L779.551 95.5376L779.543 95.5394L779.993 97.4882ZM772.569 98.2562V96.2562C768.894 96.2562 765.643 95.5785 762.78 94.2629L761.945 96.0802L761.11 97.8976C764.561 99.4833 768.393 100.256 772.569 100.256V98.2562ZM761.945 96.0802L762.82 94.2817C760.06 92.9391 757.831 90.8086 756.135 87.8016L754.393 88.7842L752.651 89.7669C754.709 93.4158 757.515 96.1493 761.07 97.8787L761.945 96.0802ZM754.393 88.7842L756.154 87.836C754.569 84.8926 753.705 80.9409 753.705 75.8562H751.705H749.705C749.705 81.3529 750.633 86.0199 752.632 89.7324L754.393 88.7842ZM751.705 75.8562H753.705V2.00021H751.705H749.705V75.8562H751.705ZM751.705 2.00021V4.00021H763.225V2.00021V0.000213623H751.705V2.00021ZM763.225 2.00021H761.225V74.7042H763.225H765.225V2.00021H763.225ZM763.225 74.7042H761.225C761.225 79.5239 762.197 83.4974 764.514 86.2361L766.041 84.9442L767.568 83.6523C766.13 81.9537 765.225 79.1005 765.225 74.7042H763.225ZM766.041 84.9442L764.543 86.2694C766.945 88.9845 770.215 90.2722 774.105 90.2722V88.2722V86.2722C771.168 86.2722 769.062 85.3413 767.539 83.6191L766.041 84.9442ZM774.105 88.2722V90.2722C775.868 90.2722 777.592 90.0865 779.275 89.7126L778.841 87.7602L778.407 85.8078C777.018 86.1166 775.585 86.2722 774.105 86.2722V88.2722ZM778.841 87.7602L779.35 89.6944C781.046 89.2481 782.529 88.7433 783.775 88.1681L782.937 86.3522L782.099 84.5363C781.126 84.9851 779.879 85.419 778.332 85.8261L778.841 87.7602ZM782.937 86.3522L781.022 86.9293L783.838 96.2733L785.753 95.6962L787.668 95.1191L784.852 85.7751L782.937 86.3522ZM785.753 95.6962L784.941 93.8686C783.564 94.4804 781.781 95.0421 779.559 95.5358L779.993 97.4882L780.427 99.4406C782.813 98.9103 784.87 98.2774 786.565 97.5238L785.753 95.6962ZM779.993 97.4882L779.543 95.5394C777.498 96.0115 775.177 96.2562 772.569 96.2562V98.2562V100.256C775.422 100.256 778.051 99.989 780.443 99.437L779.993 97.4882ZM798.56 89.1682L797.075 90.5084L797.085 90.5192L797.095 90.5299L798.56 89.1682ZM793.952 45.6482L792.152 44.7771L792.146 44.7895L793.952 45.6482ZM804.576 33.2322L805.678 34.9011L805.689 34.894L805.7 34.8866L804.576 33.2322ZM836.192 32.8482L835.075 34.5071L835.094 34.5201L835.114 34.5328L836.192 32.8482ZM845.792 43.9842L847.613 43.1566V43.1566L845.792 43.9842ZM848.608 68.1762V70.1762H850.434L850.6 68.3573L848.608 68.1762ZM802.016 68.1762V66.1762H799.754L800.031 68.4209L802.016 68.1762ZM833.12 86.8642L833.605 88.8045L833.63 88.7982L833.655 88.7913L833.12 86.8642ZM841.952 83.6642L843.882 83.138L843.263 80.8712L841.124 81.8435L841.952 83.6642ZM844.64 93.5202L845.452 95.3478L847.021 94.6505L846.57 92.994L844.64 93.5202ZM834.272 96.8482L833.838 94.8958L833.818 94.9004L833.797 94.9054L834.272 96.8482ZM801.888 58.8322L799.899 58.6255L799.669 60.8322H801.888V58.8322ZM838.368 58.8322V60.8322H840.368V58.8322H838.368ZM833.504 43.8562L832.037 45.2157V45.2157L833.504 43.8562ZM807.776 43.8562L809.226 45.2337L809.234 45.2248L809.243 45.2157L807.776 43.8562ZM821.344 98.2562V96.2562C812.248 96.2562 805.219 93.3937 800.025 87.8065L798.56 89.1682L797.095 90.5299C803.165 97.0601 811.326 100.256 821.344 100.256V98.2562ZM798.56 89.1682L800.044 87.828C794.926 82.1587 792.24 74.1194 792.24 63.4402H790.24H788.24C788.24 74.777 791.1 83.8897 797.075 90.5084L798.56 89.1682ZM790.24 63.4402H792.24C792.24 57.0354 793.429 51.4054 795.758 46.5069L793.952 45.6482L792.146 44.7895C789.525 50.3017 788.24 56.533 788.24 63.4402H790.24ZM793.952 45.6482L795.752 46.5193C798.169 41.5243 801.481 37.6729 805.678 34.9011L804.576 33.2322L803.474 31.5633C798.626 34.7649 794.855 39.1908 792.152 44.7771L793.952 45.6482ZM804.576 33.2322L805.7 34.8866C809.86 32.0607 814.709 30.6242 820.32 30.6242V28.6242V26.6242C813.985 26.6242 808.337 28.2598 803.452 31.5778L804.576 33.2322ZM820.32 28.6242V30.6242C826.429 30.6242 831.302 31.9665 835.075 34.5071L836.192 32.8482L837.309 31.1893C832.719 28.0979 827.011 26.6242 820.32 26.6242V28.6242ZM836.192 32.8482L835.114 34.5328C839.049 37.0515 841.995 40.4632 843.971 44.8118L845.792 43.9842L847.613 43.1566C845.323 38.1186 841.868 34.1062 837.27 31.1637L836.192 32.8482ZM845.792 43.9842L843.971 44.8118C845.976 49.222 846.992 54.099 846.992 59.4722H848.992H850.992C850.992 53.5814 849.875 48.1331 847.613 43.1566L845.792 43.9842ZM848.992 59.4722H846.992C846.992 62.4018 846.866 65.2426 846.616 67.9951L848.608 68.1762L850.6 68.3573C850.862 65.4778 850.992 62.516 850.992 59.4722H848.992ZM848.608 68.1762V66.1762H802.016V68.1762V70.1762H848.608V68.1762ZM802.016 68.1762L800.031 68.4209C800.84 74.9844 803.163 80.3101 807.147 84.1994L808.544 82.7682L809.941 81.3371C806.757 78.229 804.728 73.8267 804.001 67.9315L802.016 68.1762ZM808.544 82.7682L807.147 84.1994C811.169 88.1261 816.44 90.0162 822.752 90.0162V88.0162V86.0162C817.288 86.0162 813.087 84.4076 809.941 81.3371L808.544 82.7682ZM822.752 88.0162V90.0162C826.722 90.0162 830.345 89.6195 833.605 88.8045L833.12 86.8642L832.635 84.9239C829.751 85.6449 826.462 86.0162 822.752 86.0162V88.0162ZM833.12 86.8642L833.655 88.7913C836.824 87.911 839.866 86.8092 842.78 85.4849L841.952 83.6642L841.124 81.8435C838.406 83.0792 835.56 84.1108 832.585 84.9372L833.12 86.8642ZM841.952 83.6642L840.022 84.1904L842.71 94.0464L844.64 93.5202L846.57 92.994L843.882 83.138L841.952 83.6642ZM844.64 93.5202L843.828 91.6926C840.896 92.9956 837.569 94.0667 833.838 94.8958L834.272 96.8482L834.706 98.8006C838.654 97.9231 842.24 96.7755 845.452 95.3478L844.64 93.5202ZM834.272 96.8482L833.797 94.9054C830.141 95.7992 825.995 96.2562 821.344 96.2562V98.2562V100.256C826.251 100.256 830.723 99.7746 834.747 98.791L834.272 96.8482ZM801.888 58.8322V60.8322H838.368V58.8322V56.8322H801.888V58.8322ZM838.368 58.8322H840.368C840.368 52.0266 838.664 46.4809 834.971 42.4967L833.504 43.8562L832.037 45.2157C834.83 48.2289 836.368 52.6672 836.368 58.8322H838.368ZM833.504 43.8562L834.971 42.4967C831.275 38.5094 826.218 36.6082 820.064 36.6082V38.6082V40.6082C825.344 40.6082 829.247 42.2057 832.037 45.2157L833.504 43.8562ZM820.064 38.6082V36.6082C814.581 36.6082 809.946 38.5726 806.309 42.4967L807.776 43.8562L809.243 45.2157C812.091 42.1424 815.648 40.6082 820.064 40.6082V38.6082ZM807.776 43.8562L806.326 42.4787C802.678 46.3188 800.609 51.7889 799.899 58.6255L801.888 58.8322L803.877 59.0389C804.532 52.7342 806.389 48.2203 809.226 45.2337L807.776 43.8562ZM864.345 96.7202H862.345V98.7202H864.345V96.7202ZM864.345 30.1602V28.1602H862.345V30.1602H864.345ZM875.481 30.1602H877.481V28.1602H875.481V30.1602ZM875.481 44.6242H873.481L877.342 45.3573L875.481 44.6242ZM879.961 36.8162L881.534 38.0519L881.544 38.0385L881.554 38.025L879.961 36.8162ZM887.001 30.9282L887.917 32.7062L887.938 32.6953L887.959 32.684L887.001 30.9282ZM900.697 28.8802L900.433 30.8627L900.498 30.8714L900.564 30.8758L900.697 28.8802ZM903.897 29.3922L905.818 29.9498L906.37 28.0462L904.472 27.4766L903.897 29.3922ZM900.441 41.2962L899.665 43.1395L901.735 44.0113L902.362 41.8538L900.441 41.2962ZM885.593 42.9602L884.542 41.2586L884.531 41.2657L884.519 41.2729L885.593 42.9602ZM878.553 51.2802L876.764 50.3858L876.756 50.4022L876.748 50.4188L878.553 51.2802ZM875.865 96.7202V98.7202H877.865V96.7202H875.865ZM864.345 96.7202H866.345V30.1602H864.345H862.345V96.7202H864.345ZM864.345 30.1602V32.1602H875.481V30.1602V28.1602H864.345V30.1602ZM875.481 30.1602H873.481V44.6242H875.481H877.481V30.1602H875.481ZM875.481 44.6242L877.342 45.3573C878.38 42.7226 879.776 40.2891 881.534 38.0519L879.961 36.8162L878.388 35.5806C876.392 38.1219 874.801 40.8938 873.62 43.8912L875.481 44.6242ZM879.961 36.8162L881.554 38.025C883.248 35.7931 885.361 34.0229 887.917 32.7062L887.001 30.9282L886.085 29.1503C883.009 30.7349 880.429 32.89 878.368 35.6074L879.961 36.8162ZM887.001 30.9282L887.959 32.684C890.434 31.3336 893.38 30.6242 896.857 30.6242V28.6242V26.6242C892.825 26.6242 889.2 27.4508 886.043 29.1724L887.001 30.9282ZM896.857 28.6242V30.6242C898.048 30.6242 899.24 30.7036 900.433 30.8627L900.697 28.8802L900.961 26.8978C899.594 26.7155 898.226 26.6242 896.857 26.6242V28.6242ZM900.697 28.8802L900.564 30.8758C901.754 30.9551 902.66 31.1093 903.322 31.3079L903.897 29.3922L904.472 27.4766C903.427 27.1631 902.2 26.976 900.83 26.8846L900.697 28.8802ZM903.897 29.3922L901.976 28.8346L898.52 40.7386L900.441 41.2962L902.362 41.8538L905.818 29.9498L903.897 29.3922ZM900.441 41.2962L901.217 39.4529C899.295 38.6436 897.099 38.2722 894.681 38.2722V40.2722V42.2722C896.7 42.2722 898.344 42.5835 899.665 43.1395L900.441 41.2962ZM894.681 40.2722V38.2722C891.123 38.2722 887.733 39.2878 884.542 41.2586L885.593 42.9602L886.644 44.6618C889.256 43.0487 891.925 42.2722 894.681 42.2722V40.2722ZM885.593 42.9602L884.519 41.2729C881.328 43.3038 878.762 46.3896 876.764 50.3858L878.553 51.2802L880.342 52.1746C882.098 48.6615 884.226 46.2007 886.667 44.6475L885.593 42.9602ZM878.553 51.2802L876.748 50.4188C874.787 54.5269 873.865 59.6258 873.865 65.6162H875.865H877.865C877.865 60.0013 878.735 55.5429 880.358 52.1417L878.553 51.2802ZM875.865 65.6162H873.865V96.7202H875.865H877.865V65.6162H875.865ZM875.865 96.7202V94.7202H864.345V96.7202V98.7202H875.865V96.7202Z" fill="white" mask="url(#path-1-outside-1_153_2)"/>
</svg>
