<svg width="208" height="81" viewBox="0 0 208 81" fill="none" xmlns="http://www.w3.org/2000/svg">
<path d="M88.2703 11.8192L85.8459 10.1277C84.9085 9.44406 84.4786 8.82386 84.4786 8.0768C84.4786 7.13944 85.2539 6.53332 86.3533 6.53332C87.7488 6.53332 88.4043 7.18876 89.2359 7.18876C89.8138 7.21696 90.3072 6.77295 90.3354 6.19503C90.3354 6.15979 90.3354 6.12455 90.3354 6.08931C90.3354 5.6171 90.0957 5.22948 89.4755 4.92642C88.4677 4.46832 87.3753 4.24278 86.2688 4.27097C85.1764 4.24278 84.098 4.56698 83.21 5.20833C83.055 5.32814 82.907 5.45501 82.766 5.59596C81.878 6.53332 81.1309 7.94288 80.5389 9.90218L79.8553 12.1645C78.6219 16.1606 76.6908 18.0635 73.6884 18.0635C70.3901 18.0635 68.3109 15.78 68.3109 12.3901C68.3109 9.00006 70.3901 6.68132 73.3924 6.68132H73.8223C73.9351 6.68132 74.0408 6.68133 74.1536 6.70952H74.21L74.5201 6.7518H74.5694C74.6822 6.77295 74.7879 6.79409 74.8795 6.81523H74.9147C75.3658 6.92095 75.8098 7.07601 76.2327 7.27335C76.5498 7.4284 76.8952 7.50592 77.2405 7.51297C77.8607 7.54821 78.3893 7.076 78.4316 6.46284C78.4316 6.42055 78.4316 6.37122 78.4316 6.32893C78.4316 5.88492 78.1638 5.44092 77.5436 5.13786C76.2468 4.5388 74.8231 4.24279 73.3924 4.27803C68.7056 4.27803 65.4636 7.60459 65.4636 12.4535C65.4495 13.6446 65.668 14.8286 66.112 15.9281C65.4848 17.2671 64.5474 17.979 63.3211 17.979C61.834 17.979 60.8544 17.1191 60.8544 15.1669V6.77999H64.3289C65.1324 6.77999 65.668 6.30779 65.668 5.61711C65.668 4.92642 65.1324 4.45422 64.3289 4.45422H60.8473V1.42366C60.8473 0.634306 60.213 0 59.4237 0C58.6343 0 58 0.634306 58 1.42366V15.4911C58 18.7613 59.8747 20.495 63.0533 20.495C63.7228 20.495 64.3853 20.3964 65.0126 20.1849C66.0486 19.8043 66.9225 19.0714 67.4793 18.1199C68.8889 19.6423 70.9821 20.5373 73.5968 20.5373C74.8584 20.5655 76.0988 20.2766 77.2194 19.7057C79.3901 18.578 80.9336 16.2875 82.0048 12.7777L82.6321 10.7268C83.1325 11.3611 83.7386 11.9179 84.4152 12.3619L86.6423 13.9053C87.6501 14.6172 88.066 15.2162 88.066 16.0761C88.066 17.3517 87.0581 18.2115 85.5992 18.2115C84.1403 18.2115 83.0127 17.4997 82.3572 17.4997C81.7793 17.4715 81.286 17.9155 81.2578 18.4935C81.2578 18.5287 81.2578 18.5639 81.2578 18.5992C81.2578 19.0714 81.4974 19.459 82.1176 19.7621C83.2241 20.2554 84.4152 20.5162 85.6204 20.5373C87.185 20.5373 88.5029 20.0651 89.4262 19.2335C90.2931 18.4159 90.7794 17.2742 90.7582 16.0831C90.7582 14.2648 90.0464 13.0737 88.2633 11.8262L88.2703 11.8192Z" fill="black"/>
<path d="M105.093 4.29211C106.454 4.29211 107.722 4.55289 108.843 5.44091C110.034 6.39941 110.767 7.85126 110.767 9.71188C110.802 11.4175 110.027 13.0455 108.681 14.0886C107.581 14.9061 106.292 15.1387 104.974 15.1387H100.963V19.2264C100.935 19.9312 100.357 20.4809 99.6526 20.4739C98.9478 20.488 98.3558 19.9312 98.3417 19.2264V5.58186C98.3417 4.87004 98.9196 4.29211 99.6314 4.29211C99.6385 4.29211 99.6455 4.29211 99.6526 4.29211H105.093ZM106.926 7.17468C106.278 6.75886 105.509 6.55447 104.734 6.58971H100.963V12.827H104.572C105.361 12.8693 106.144 12.6861 106.82 12.2914C107.595 11.798 108.068 10.903 108.068 9.71188C108.068 8.5208 107.638 7.66802 106.912 7.18172L106.926 7.17468Z" fill="black"/>
<path d="M113.819 14.5396C115.13 13.997 116.863 13.8349 118.315 13.7151V13.4331C118.315 12.6861 118.174 12.2139 117.871 11.8403C117.469 11.4104 116.892 11.1919 116.307 11.2272C115.616 11.2272 114.925 11.3822 114.298 11.6712C113.762 11.9038 113.48 12.0447 113.149 12.0447C112.677 12.0518 112.289 11.6853 112.282 11.2131C112.282 11.199 112.282 11.1849 112.282 11.1778C112.282 10.5506 112.846 10.2405 113.53 9.95857C114.488 9.57094 115.517 9.3736 116.553 9.3736C117.603 9.3736 118.921 9.58503 119.809 10.5647C120.373 11.1919 120.697 12.0659 120.697 13.4261V19.311C120.669 19.9805 120.098 20.5091 119.429 20.4809C118.992 20.4598 118.604 20.2131 118.4 19.8325C117.484 20.3047 116.455 20.5303 115.426 20.488C113.53 20.488 111.747 19.3603 111.747 17.2742C111.747 15.8435 112.613 15.0259 113.812 14.5326L113.819 14.5396ZM118.315 18.127V15.3854C115.785 15.5263 114.051 16.0126 114.051 17.239C114.051 18.2679 115.08 18.7401 116.187 18.7401C116.941 18.726 117.674 18.5217 118.322 18.127H118.315Z" fill="black"/>
<path d="M131.121 12.1222C130.783 12.094 130.452 11.9883 130.163 11.8121C129.655 11.5795 129.098 11.4597 128.542 11.4597C127.555 11.4315 126.603 11.8333 125.941 12.5662C125.37 13.2287 125.074 14.0815 125.095 14.9555C125.067 15.8787 125.391 16.7738 126.011 17.4574C126.674 18.1411 127.597 18.5075 128.542 18.4653C129.119 18.4653 129.69 18.3666 130.233 18.1552C130.705 17.9649 130.818 17.8451 131.199 17.8451C131.741 17.8592 132.164 18.3102 132.157 18.8529C132.157 19.4379 131.664 19.7903 130.846 20.1004C130.085 20.3611 129.282 20.488 128.478 20.4739C126.603 20.4739 125.102 19.8889 124.066 18.8106C123.15 17.8732 122.635 16.513 122.635 14.9202C122.607 13.6587 123.03 12.4253 123.834 11.4527C124.912 10.1207 126.625 9.38769 128.52 9.38769C129.408 9.38064 130.282 9.55683 131.1 9.90217C131.755 10.2123 132.108 10.5576 132.108 11.1003C132.108 11.65 131.678 12.1081 131.121 12.1293V12.1222Z" fill="black"/>
<path d="M143.546 18.6697C143.546 19.1841 143.173 19.5365 142.447 19.8607C141.432 20.2836 140.333 20.495 139.233 20.488C137.45 20.488 135.998 19.903 135.011 18.8459C134.011 17.7323 133.482 16.2734 133.538 14.7793C133.51 13.3415 134.039 11.946 135.011 10.8889C135.899 9.95151 137.239 9.36655 138.93 9.36655C140.333 9.32426 141.693 9.8458 142.701 10.8184C143.567 11.7487 144.04 12.9821 143.997 14.2577C143.997 15.0048 143.553 15.5898 142.778 15.5898H136.069C136.111 16.3157 136.393 16.9993 136.865 17.549C137.506 18.2609 138.437 18.6485 139.395 18.5992C140.128 18.5992 140.861 18.4371 141.531 18.127C142.045 17.8944 142.306 17.683 142.658 17.683C143.173 17.7112 143.567 18.1411 143.546 18.6556V18.6697ZM141.65 13.9547C141.65 13.2781 141.404 12.6226 140.967 12.1011C140.431 11.5655 139.705 11.2765 138.951 11.2976C138.134 11.2554 137.344 11.5655 136.759 12.1434C136.343 12.6579 136.097 13.2851 136.055 13.9476H141.643L141.65 13.9547Z" fill="black"/>
<mask id="path-6-outside-1_33_3" maskUnits="userSpaceOnUse" x="1" y="28" width="207" height="37" fill="black">
<rect fill="white" x="1" y="28" width="207" height="37"/>
<path d="M23.472 33.528C23.472 34.04 23.296 34.472 22.944 34.824C22.624 35.144 22.192 35.304 21.648 35.304C21.392 35.304 21.104 35.24 20.784 35.112C20.496 34.984 20.112 34.808 19.632 34.584C19.184 34.36 18.768 34.184 18.384 34.056C16.784 33.48 15.184 33.192 13.584 33.192C8.688 33.192 6.24 34.952 6.24 38.472C6.24 40.552 7.808 42.168 10.944 43.32C11.392 43.48 12.816 43.912 15.216 44.616C17.616 45.32 19.408 46.008 20.592 46.68C23.408 48.344 24.816 50.712 24.816 53.784C24.816 56.792 23.744 59.16 21.6 60.888C19.488 62.616 16.688 63.48 13.2 63.48C9.808 63.48 6.704 62.712 3.888 61.176C2.672 60.504 2.064 59.768 2.064 58.968C2.064 58.424 2.24 57.976 2.592 57.624C2.944 57.272 3.392 57.096 3.936 57.096C4.16 57.096 4.4 57.176 4.656 57.336C4.912 57.464 5.296 57.688 5.808 58.008C6.32 58.328 6.864 58.616 7.44 58.872C9.232 59.736 11.152 60.168 13.2 60.168C15.696 60.168 17.568 59.608 18.816 58.488C20.064 57.368 20.688 55.912 20.688 54.12C20.688 51.976 19.312 50.312 16.56 49.128C15.76 48.776 14.288 48.28 12.144 47.64C10.032 47 8.336 46.376 7.056 45.768C3.824 44.168 2.208 41.768 2.208 38.568C2.208 35.848 3.2 33.72 5.184 32.184C7.2 30.648 10.064 29.88 13.776 29.88C16.656 29.88 19.152 30.344 21.264 31.272C22.736 31.88 23.472 32.632 23.472 33.528ZM47.5039 43.944C47.5039 44.328 47.3599 44.664 47.0719 44.952C46.8159 45.208 46.4799 45.336 46.0639 45.336C45.8719 45.336 45.3119 45.128 44.3839 44.712C43.1999 44.168 41.9199 43.896 40.5439 43.896C37.9839 43.896 35.9039 44.824 34.3039 46.68C33.0239 48.152 32.3839 49.976 32.3839 52.152C32.3839 54.648 33.1199 56.68 34.5919 58.248C36.0639 59.784 38.0639 60.552 40.5919 60.552C42.1599 60.552 43.4719 60.328 44.5279 59.88C44.7519 59.784 44.9759 59.672 45.1999 59.544C45.4239 59.416 45.5999 59.336 45.7279 59.304C45.8879 59.24 46.0479 59.208 46.2079 59.208C46.5919 59.208 46.9119 59.352 47.1679 59.64C47.4559 59.928 47.5999 60.264 47.5999 60.648C47.5999 61.384 46.9279 62.024 45.5839 62.568C44.0159 63.176 42.3199 63.48 40.4959 63.48C36.7839 63.48 33.8879 62.392 31.8079 60.216C29.8239 58.136 28.8319 55.448 28.8319 52.152C28.8319 49.336 29.6479 46.952 31.2799 45C33.5519 42.28 36.6399 40.92 40.5439 40.92C42.5599 40.92 44.3359 41.304 45.8719 42.072C46.9599 42.584 47.5039 43.208 47.5039 43.944ZM52.7216 61.8V31.608C52.7216 31.128 52.8976 30.728 53.2496 30.408C53.6016 30.056 54.0176 29.88 54.4976 29.88C54.9776 29.88 55.3936 30.056 55.7456 30.408C56.0976 30.728 56.2736 31.128 56.2736 31.608V45C57.7136 42.28 60.2416 40.92 63.8576 40.92C66.5456 40.92 68.6416 41.576 70.1456 42.888C71.8736 44.424 72.7376 46.84 72.7376 50.136V61.8C72.7376 62.248 72.5616 62.648 72.2096 63C71.8576 63.32 71.4416 63.48 70.9616 63.48C70.4816 63.48 70.0656 63.32 69.7136 63C69.3936 62.648 69.2336 62.248 69.2336 61.8V50.904C69.2336 48.312 68.6416 46.472 67.4576 45.384C66.4656 44.456 65.0416 43.992 63.1856 43.992C60.6256 43.992 58.7376 45.096 57.5216 47.304C56.6896 48.872 56.2736 50.776 56.2736 53.016V61.8C56.2736 62.248 56.0976 62.648 55.7456 63C55.3936 63.32 54.9776 63.48 54.4976 63.48C54.0176 63.48 53.6016 63.32 53.2496 63C52.8976 62.648 52.7216 62.248 52.7216 61.8ZM96.7238 58.584C97.1078 58.584 97.4278 58.728 97.6838 59.016C97.9398 59.304 98.0678 59.64 98.0678 60.024C98.0678 60.632 97.4758 61.256 96.2918 61.896C94.2758 62.952 91.9878 63.48 89.4278 63.48C85.8118 63.48 82.9478 62.296 80.8358 59.928C78.9478 57.88 78.0038 55.208 78.0038 51.912C78.0038 48.776 78.9638 46.168 80.8838 44.088C82.8358 41.976 85.4758 40.92 88.8038 40.92C91.9718 40.92 94.4838 41.928 96.3398 43.944C98.0998 45.8 98.9798 48.152 98.9798 51C98.9798 51.608 98.8038 52.12 98.4518 52.536C98.1318 52.952 97.6838 53.16 97.1078 53.16H81.6518C81.8438 55.112 82.4678 56.712 83.5238 57.96C85.0278 59.72 87.0438 60.6 89.5718 60.6C91.5558 60.6 93.2838 60.216 94.7558 59.448C95.8438 58.872 96.4998 58.584 96.7238 58.584ZM81.6518 50.616H95.5718C95.4758 48.632 94.8838 47.048 93.7958 45.864C92.5158 44.456 90.8518 43.752 88.8038 43.752C86.4998 43.752 84.6918 44.52 83.3798 46.056C82.3878 47.176 81.8118 48.696 81.6518 50.616ZM115.944 60.072H119.064V44.76C117.496 44.184 115.928 43.896 114.36 43.896C111.672 43.896 109.624 44.936 108.216 47.016C107.256 48.392 106.776 50.12 106.776 52.2C106.776 54.44 107.416 56.232 108.696 57.576C110.328 59.24 112.744 60.072 115.944 60.072ZM120.6 63H115.608C111.416 63 108.216 61.896 106.008 59.688C104.12 57.8 103.176 55.32 103.176 52.248C103.176 49.368 103.912 46.952 105.384 45C107.4 42.248 110.328 40.872 114.168 40.872C115.704 40.872 117.336 41.16 119.064 41.736V31.608C119.064 31.128 119.224 30.728 119.544 30.408C119.896 30.056 120.328 29.88 120.84 29.88C121.32 29.88 121.72 30.056 122.04 30.408C122.392 30.728 122.568 31.128 122.568 31.608V61.128C122.568 61.736 122.376 62.2 121.992 62.52C121.608 62.84 121.144 63 120.6 63ZM129.214 53.832V42.6C129.214 42.12 129.374 41.72 129.694 41.4C130.046 41.08 130.478 40.92 130.99 40.92C131.47 40.92 131.87 41.08 132.19 41.4C132.542 41.72 132.718 42.12 132.718 42.6V53.544C132.718 55.272 133.022 56.68 133.63 57.768C134.59 59.496 136.446 60.36 139.198 60.36C141.95 60.36 143.806 59.496 144.766 57.768C145.342 56.744 145.63 55.336 145.63 53.544V42.6C145.63 42.12 145.806 41.72 146.158 41.4C146.51 41.08 146.926 40.92 147.406 40.92C147.886 40.92 148.302 41.08 148.654 41.4C149.006 41.72 149.182 42.12 149.182 42.6V53.832C149.182 56.328 148.638 58.376 147.55 59.976C146.014 62.312 143.23 63.48 139.198 63.48C135.198 63.48 132.398 62.312 130.798 59.976C129.742 58.344 129.214 56.296 129.214 53.832ZM155.753 61.8V31.608C155.753 31.128 155.929 30.728 156.281 30.408C156.633 30.056 157.049 29.88 157.529 29.88C158.009 29.88 158.425 30.056 158.777 30.408C159.129 30.728 159.305 31.128 159.305 31.608V61.8C159.305 62.248 159.129 62.648 158.777 63C158.425 63.32 158.009 63.48 157.529 63.48C157.049 63.48 156.633 63.32 156.281 63C155.929 62.648 155.753 62.248 155.753 61.8ZM183.63 58.584C184.014 58.584 184.334 58.728 184.59 59.016C184.846 59.304 184.974 59.64 184.974 60.024C184.974 60.632 184.382 61.256 183.198 61.896C181.182 62.952 178.894 63.48 176.334 63.48C172.718 63.48 169.854 62.296 167.742 59.928C165.854 57.88 164.91 55.208 164.91 51.912C164.91 48.776 165.87 46.168 167.79 44.088C169.742 41.976 172.382 40.92 175.71 40.92C178.878 40.92 181.39 41.928 183.246 43.944C185.006 45.8 185.886 48.152 185.886 51C185.886 51.608 185.71 52.12 185.358 52.536C185.038 52.952 184.59 53.16 184.014 53.16H168.558C168.75 55.112 169.374 56.712 170.43 57.96C171.934 59.72 173.95 60.6 176.478 60.6C178.462 60.6 180.19 60.216 181.662 59.448C182.75 58.872 183.406 58.584 183.63 58.584ZM168.558 50.616H182.478C182.382 48.632 181.79 47.048 180.702 45.864C179.422 44.456 177.758 43.752 175.71 43.752C173.406 43.752 171.598 44.52 170.286 46.056C169.294 47.176 168.718 48.696 168.558 50.616ZM201.026 40.92C202.626 40.92 203.954 41.256 205.01 41.928C205.938 42.504 206.402 43.16 206.402 43.896C206.402 44.376 206.242 44.776 205.922 45.096C205.634 45.384 205.266 45.528 204.818 45.528C204.466 45.528 203.858 45.304 202.994 44.856C202.162 44.376 201.314 44.136 200.45 44.136C198.818 44.136 197.522 44.776 196.562 46.056C195.474 47.528 194.93 49.64 194.93 52.392V61.8C194.93 62.248 194.754 62.648 194.402 63C194.05 63.32 193.634 63.48 193.154 63.48C192.674 63.48 192.258 63.32 191.906 63C191.554 62.648 191.378 62.248 191.378 61.8V42.6C191.378 42.12 191.554 41.72 191.906 41.4C192.258 41.08 192.674 40.92 193.154 40.92C193.634 40.92 194.05 41.08 194.402 41.4C194.754 41.72 194.93 42.12 194.93 42.6V44.424C196.05 42.088 198.082 40.92 201.026 40.92Z"/>
</mask>
<path d="M23.472 33.528C23.472 34.04 23.296 34.472 22.944 34.824C22.624 35.144 22.192 35.304 21.648 35.304C21.392 35.304 21.104 35.24 20.784 35.112C20.496 34.984 20.112 34.808 19.632 34.584C19.184 34.36 18.768 34.184 18.384 34.056C16.784 33.48 15.184 33.192 13.584 33.192C8.688 33.192 6.24 34.952 6.24 38.472C6.24 40.552 7.808 42.168 10.944 43.32C11.392 43.48 12.816 43.912 15.216 44.616C17.616 45.32 19.408 46.008 20.592 46.68C23.408 48.344 24.816 50.712 24.816 53.784C24.816 56.792 23.744 59.16 21.6 60.888C19.488 62.616 16.688 63.48 13.2 63.48C9.808 63.48 6.704 62.712 3.888 61.176C2.672 60.504 2.064 59.768 2.064 58.968C2.064 58.424 2.24 57.976 2.592 57.624C2.944 57.272 3.392 57.096 3.936 57.096C4.16 57.096 4.4 57.176 4.656 57.336C4.912 57.464 5.296 57.688 5.808 58.008C6.32 58.328 6.864 58.616 7.44 58.872C9.232 59.736 11.152 60.168 13.2 60.168C15.696 60.168 17.568 59.608 18.816 58.488C20.064 57.368 20.688 55.912 20.688 54.12C20.688 51.976 19.312 50.312 16.56 49.128C15.76 48.776 14.288 48.28 12.144 47.64C10.032 47 8.336 46.376 7.056 45.768C3.824 44.168 2.208 41.768 2.208 38.568C2.208 35.848 3.2 33.72 5.184 32.184C7.2 30.648 10.064 29.88 13.776 29.88C16.656 29.88 19.152 30.344 21.264 31.272C22.736 31.88 23.472 32.632 23.472 33.528ZM47.5039 43.944C47.5039 44.328 47.3599 44.664 47.0719 44.952C46.8159 45.208 46.4799 45.336 46.0639 45.336C45.8719 45.336 45.3119 45.128 44.3839 44.712C43.1999 44.168 41.9199 43.896 40.5439 43.896C37.9839 43.896 35.9039 44.824 34.3039 46.68C33.0239 48.152 32.3839 49.976 32.3839 52.152C32.3839 54.648 33.1199 56.68 34.5919 58.248C36.0639 59.784 38.0639 60.552 40.5919 60.552C42.1599 60.552 43.4719 60.328 44.5279 59.88C44.7519 59.784 44.9759 59.672 45.1999 59.544C45.4239 59.416 45.5999 59.336 45.7279 59.304C45.8879 59.24 46.0479 59.208 46.2079 59.208C46.5919 59.208 46.9119 59.352 47.1679 59.64C47.4559 59.928 47.5999 60.264 47.5999 60.648C47.5999 61.384 46.9279 62.024 45.5839 62.568C44.0159 63.176 42.3199 63.48 40.4959 63.48C36.7839 63.48 33.8879 62.392 31.8079 60.216C29.8239 58.136 28.8319 55.448 28.8319 52.152C28.8319 49.336 29.6479 46.952 31.2799 45C33.5519 42.28 36.6399 40.92 40.5439 40.92C42.5599 40.92 44.3359 41.304 45.8719 42.072C46.9599 42.584 47.5039 43.208 47.5039 43.944ZM52.7216 61.8V31.608C52.7216 31.128 52.8976 30.728 53.2496 30.408C53.6016 30.056 54.0176 29.88 54.4976 29.88C54.9776 29.88 55.3936 30.056 55.7456 30.408C56.0976 30.728 56.2736 31.128 56.2736 31.608V45C57.7136 42.28 60.2416 40.92 63.8576 40.92C66.5456 40.92 68.6416 41.576 70.1456 42.888C71.8736 44.424 72.7376 46.84 72.7376 50.136V61.8C72.7376 62.248 72.5616 62.648 72.2096 63C71.8576 63.32 71.4416 63.48 70.9616 63.48C70.4816 63.48 70.0656 63.32 69.7136 63C69.3936 62.648 69.2336 62.248 69.2336 61.8V50.904C69.2336 48.312 68.6416 46.472 67.4576 45.384C66.4656 44.456 65.0416 43.992 63.1856 43.992C60.6256 43.992 58.7376 45.096 57.5216 47.304C56.6896 48.872 56.2736 50.776 56.2736 53.016V61.8C56.2736 62.248 56.0976 62.648 55.7456 63C55.3936 63.32 54.9776 63.48 54.4976 63.48C54.0176 63.48 53.6016 63.32 53.2496 63C52.8976 62.648 52.7216 62.248 52.7216 61.8ZM96.7238 58.584C97.1078 58.584 97.4278 58.728 97.6838 59.016C97.9398 59.304 98.0678 59.64 98.0678 60.024C98.0678 60.632 97.4758 61.256 96.2918 61.896C94.2758 62.952 91.9878 63.48 89.4278 63.48C85.8118 63.48 82.9478 62.296 80.8358 59.928C78.9478 57.88 78.0038 55.208 78.0038 51.912C78.0038 48.776 78.9638 46.168 80.8838 44.088C82.8358 41.976 85.4758 40.92 88.8038 40.92C91.9718 40.92 94.4838 41.928 96.3398 43.944C98.0998 45.8 98.9798 48.152 98.9798 51C98.9798 51.608 98.8038 52.12 98.4518 52.536C98.1318 52.952 97.6838 53.16 97.1078 53.16H81.6518C81.8438 55.112 82.4678 56.712 83.5238 57.96C85.0278 59.72 87.0438 60.6 89.5718 60.6C91.5558 60.6 93.2838 60.216 94.7558 59.448C95.8438 58.872 96.4998 58.584 96.7238 58.584ZM81.6518 50.616H95.5718C95.4758 48.632 94.8838 47.048 93.7958 45.864C92.5158 44.456 90.8518 43.752 88.8038 43.752C86.4998 43.752 84.6918 44.52 83.3798 46.056C82.3878 47.176 81.8118 48.696 81.6518 50.616ZM115.944 60.072H119.064V44.76C117.496 44.184 115.928 43.896 114.36 43.896C111.672 43.896 109.624 44.936 108.216 47.016C107.256 48.392 106.776 50.12 106.776 52.2C106.776 54.44 107.416 56.232 108.696 57.576C110.328 59.24 112.744 60.072 115.944 60.072ZM120.6 63H115.608C111.416 63 108.216 61.896 106.008 59.688C104.12 57.8 103.176 55.32 103.176 52.248C103.176 49.368 103.912 46.952 105.384 45C107.4 42.248 110.328 40.872 114.168 40.872C115.704 40.872 117.336 41.16 119.064 41.736V31.608C119.064 31.128 119.224 30.728 119.544 30.408C119.896 30.056 120.328 29.88 120.84 29.88C121.32 29.88 121.72 30.056 122.04 30.408C122.392 30.728 122.568 31.128 122.568 31.608V61.128C122.568 61.736 122.376 62.2 121.992 62.52C121.608 62.84 121.144 63 120.6 63ZM129.214 53.832V42.6C129.214 42.12 129.374 41.72 129.694 41.4C130.046 41.08 130.478 40.92 130.99 40.92C131.47 40.92 131.87 41.08 132.19 41.4C132.542 41.72 132.718 42.12 132.718 42.6V53.544C132.718 55.272 133.022 56.68 133.63 57.768C134.59 59.496 136.446 60.36 139.198 60.36C141.95 60.36 143.806 59.496 144.766 57.768C145.342 56.744 145.63 55.336 145.63 53.544V42.6C145.63 42.12 145.806 41.72 146.158 41.4C146.51 41.08 146.926 40.92 147.406 40.92C147.886 40.92 148.302 41.08 148.654 41.4C149.006 41.72 149.182 42.12 149.182 42.6V53.832C149.182 56.328 148.638 58.376 147.55 59.976C146.014 62.312 143.23 63.48 139.198 63.48C135.198 63.48 132.398 62.312 130.798 59.976C129.742 58.344 129.214 56.296 129.214 53.832ZM155.753 61.8V31.608C155.753 31.128 155.929 30.728 156.281 30.408C156.633 30.056 157.049 29.88 157.529 29.88C158.009 29.88 158.425 30.056 158.777 30.408C159.129 30.728 159.305 31.128 159.305 31.608V61.8C159.305 62.248 159.129 62.648 158.777 63C158.425 63.32 158.009 63.48 157.529 63.48C157.049 63.48 156.633 63.32 156.281 63C155.929 62.648 155.753 62.248 155.753 61.8ZM183.63 58.584C184.014 58.584 184.334 58.728 184.59 59.016C184.846 59.304 184.974 59.64 184.974 60.024C184.974 60.632 184.382 61.256 183.198 61.896C181.182 62.952 178.894 63.48 176.334 63.48C172.718 63.48 169.854 62.296 167.742 59.928C165.854 57.88 164.91 55.208 164.91 51.912C164.91 48.776 165.87 46.168 167.79 44.088C169.742 41.976 172.382 40.92 175.71 40.92C178.878 40.92 181.39 41.928 183.246 43.944C185.006 45.8 185.886 48.152 185.886 51C185.886 51.608 185.71 52.12 185.358 52.536C185.038 52.952 184.59 53.16 184.014 53.16H168.558C168.75 55.112 169.374 56.712 170.43 57.96C171.934 59.72 173.95 60.6 176.478 60.6C178.462 60.6 180.19 60.216 181.662 59.448C182.75 58.872 183.406 58.584 183.63 58.584ZM168.558 50.616H182.478C182.382 48.632 181.79 47.048 180.702 45.864C179.422 44.456 177.758 43.752 175.71 43.752C173.406 43.752 171.598 44.52 170.286 46.056C169.294 47.176 168.718 48.696 168.558 50.616ZM201.026 40.92C202.626 40.92 203.954 41.256 205.01 41.928C205.938 42.504 206.402 43.16 206.402 43.896C206.402 44.376 206.242 44.776 205.922 45.096C205.634 45.384 205.266 45.528 204.818 45.528C204.466 45.528 203.858 45.304 202.994 44.856C202.162 44.376 201.314 44.136 200.45 44.136C198.818 44.136 197.522 44.776 196.562 46.056C195.474 47.528 194.93 49.64 194.93 52.392V61.8C194.93 62.248 194.754 62.648 194.402 63C194.05 63.32 193.634 63.48 193.154 63.48C192.674 63.48 192.258 63.32 191.906 63C191.554 62.648 191.378 62.248 191.378 61.8V42.6C191.378 42.12 191.554 41.72 191.906 41.4C192.258 41.08 192.674 40.92 193.154 40.92C193.634 40.92 194.05 41.08 194.402 41.4C194.754 41.72 194.93 42.12 194.93 42.6V44.424C196.05 42.088 198.082 40.92 201.026 40.92Z" fill="black"/>
<path d="M22.944 34.824L23.6511 35.5311L23.6511 35.5311L22.944 34.824ZM20.784 35.112L20.3779 36.0258L20.3951 36.0335L20.4126 36.0405L20.784 35.112ZM19.632 34.584L19.1848 35.4784L19.1969 35.4845L19.2091 35.4902L19.632 34.584ZM18.384 34.056L18.0453 34.9969L18.0565 35.0009L18.0678 35.0047L18.384 34.056ZM10.944 43.32L10.5992 44.2587L10.6077 44.2617L10.944 43.32ZM15.216 44.616L14.9345 45.5756L14.9345 45.5756L15.216 44.616ZM20.592 46.68L21.1007 45.8191L21.0932 45.8146L21.0856 45.8103L20.592 46.68ZM21.6 60.888L20.9725 60.1094L20.9668 60.114L21.6 60.888ZM3.888 61.176L3.40431 62.0513L3.40915 62.0539L3.888 61.176ZM2.592 57.624L1.88489 56.9169L1.88489 56.9169L2.592 57.624ZM4.656 57.336L4.126 58.184L4.16629 58.2092L4.20879 58.2304L4.656 57.336ZM5.808 58.008L5.278 58.856L5.278 58.856L5.808 58.008ZM7.44 58.872L7.8743 57.9712L7.86032 57.9645L7.84614 57.9582L7.44 58.872ZM18.816 58.488L19.4839 59.2322L19.4839 59.2322L18.816 58.488ZM16.56 49.128L16.1572 50.0433L16.1648 50.0466L16.56 49.128ZM12.144 47.64L11.854 48.597L11.858 48.5982L12.144 47.64ZM7.056 45.768L6.61234 46.6642L6.61961 46.6678L6.62694 46.6713L7.056 45.768ZM5.184 32.184L4.57794 31.3885L4.57183 31.3933L5.184 32.184ZM21.264 31.272L20.8617 32.1875L20.8719 32.192L20.8822 32.1963L21.264 31.272ZM23.472 33.528H22.472C22.472 33.7832 22.3955 33.9583 22.2369 34.1169L22.944 34.824L23.6511 35.5311C24.1965 34.9857 24.472 34.2968 24.472 33.528H23.472ZM22.944 34.824L22.2369 34.1169C22.1414 34.2124 21.9841 34.304 21.648 34.304V35.304V36.304C22.3999 36.304 23.1066 36.0756 23.6511 35.5311L22.944 34.824ZM21.648 35.304V34.304C21.555 34.304 21.3957 34.2797 21.1554 34.1835L20.784 35.112L20.4126 36.0405C20.8123 36.2003 21.229 36.304 21.648 36.304V35.304ZM20.784 35.112L21.1901 34.1982C20.9102 34.0738 20.5325 33.9007 20.0549 33.6778L19.632 34.584L19.2091 35.4902C19.6915 35.7153 20.0818 35.8942 20.3779 36.0258L20.784 35.112ZM19.632 34.584L20.0792 33.6896C19.5984 33.4492 19.1382 33.2533 18.7002 33.1073L18.384 34.056L18.0678 35.0047C18.3978 35.1147 18.7696 35.2708 19.1848 35.4784L19.632 34.584ZM18.384 34.056L18.7227 33.1151C17.0209 32.5025 15.3066 32.192 13.584 32.192V33.192V34.192C15.0614 34.192 16.5471 34.4575 18.0453 34.9969L18.384 34.056ZM13.584 33.192V32.192C11.0462 32.192 8.96289 32.6427 7.49226 33.7001C5.96063 34.8012 5.24 36.4517 5.24 38.472H6.24H7.24C7.24 36.9723 7.74338 35.9828 8.65975 35.3239C9.63711 34.6213 11.2258 34.192 13.584 34.192V33.192ZM6.24 38.472H5.24C5.24 41.2018 7.34245 43.0623 10.5992 44.2587L10.944 43.32L11.2888 42.3813C8.27356 41.2737 7.24 39.9022 7.24 38.472H6.24ZM10.944 43.32L10.6077 44.2617C11.09 44.434 12.5497 44.876 14.9345 45.5756L15.216 44.616L15.4975 43.6564C13.0823 42.948 11.694 42.526 11.2803 42.3783L10.944 43.32ZM15.216 44.616L14.9345 45.5756C17.3111 46.2727 19.0154 46.935 20.0984 47.5497L20.592 46.68L21.0856 45.8103C19.8006 45.081 17.9209 44.3673 15.4975 43.6564L15.216 44.616ZM20.592 46.68L20.0833 47.5409C22.6188 49.0392 23.816 51.0927 23.816 53.784H24.816H25.816C25.816 50.3313 24.1972 47.6488 21.1007 45.8191L20.592 46.68ZM24.816 53.784H23.816C23.816 56.5214 22.8572 58.5904 20.9725 60.1094L21.6 60.888L22.2275 61.6666C24.6308 59.7296 25.816 57.0626 25.816 53.784H24.816ZM21.6 60.888L20.9668 60.114C19.0782 61.6592 16.5226 62.48 13.2 62.48V63.48V64.48C16.8534 64.48 19.8978 63.5728 22.2332 61.662L21.6 60.888ZM13.2 63.48V62.48C9.96538 62.48 7.02748 61.7494 4.36685 60.2981L3.888 61.176L3.40915 62.0539C6.38052 63.6746 9.65062 64.48 13.2 64.48V63.48ZM3.888 61.176L4.37169 60.3008C3.23334 59.6717 3.064 59.1937 3.064 58.968H2.064H1.064C1.064 60.3423 2.11066 61.3363 3.40431 62.0512L3.888 61.176ZM2.064 58.968H3.064C3.064 58.6621 3.15297 58.4772 3.29911 58.3311L2.592 57.624L1.88489 56.9169C1.32703 57.4748 1.064 58.1859 1.064 58.968H2.064ZM2.592 57.624L3.29911 58.3311C3.44525 58.185 3.63013 58.096 3.936 58.096V57.096V56.096C3.15387 56.096 2.44276 56.359 1.88489 56.9169L2.592 57.624ZM3.936 57.096V58.096C3.91807 58.096 3.97532 58.0898 4.126 58.184L4.656 57.336L5.186 56.488C4.82468 56.2622 4.40193 56.096 3.936 56.096V57.096ZM4.656 57.336L4.20879 58.2304C4.41985 58.336 4.77024 58.5386 5.278 58.856L5.808 58.008L6.338 57.16C5.82176 56.8374 5.40416 56.592 5.10321 56.4416L4.656 57.336ZM5.808 58.008L5.278 58.856C5.83139 59.2019 6.41695 59.5116 7.03386 59.7858L7.44 58.872L7.84614 57.9582C7.31105 57.7204 6.80861 57.4541 6.338 57.16L5.808 58.008ZM7.44 58.872L7.0057 59.7728C8.93722 60.704 11.0062 61.168 13.2 61.168V60.168V59.168C11.2978 59.168 9.52678 58.768 7.8743 57.9712L7.44 58.872ZM13.2 60.168V61.168C15.825 61.168 17.9806 60.5814 19.4839 59.2322L18.816 58.488L18.1481 57.7438C17.1554 58.6346 15.567 59.168 13.2 59.168V60.168ZM18.816 58.488L19.4839 59.2322C20.9591 57.9084 21.688 56.174 21.688 54.12H20.688H19.688C19.688 55.65 19.1689 56.8276 18.1481 57.7438L18.816 58.488ZM20.688 54.12H21.688C21.688 51.4176 19.902 49.4772 16.9552 48.2094L16.56 49.128L16.1648 50.0466C18.722 51.1468 19.688 52.5344 19.688 54.12H20.688ZM16.56 49.128L16.9627 48.2127C16.0987 47.8325 14.5712 47.3209 12.43 46.6818L12.144 47.64L11.858 48.5982C14.0048 49.2391 15.4213 49.7195 16.1573 50.0433L16.56 49.128ZM12.144 47.64L12.434 46.683C10.3465 46.0504 8.70258 45.443 7.48506 44.8647L7.056 45.768L6.62694 46.6713C7.96942 47.309 9.71748 47.9496 11.854 48.597L12.144 47.64ZM7.056 45.768L7.49966 44.8718C6.00151 44.1301 4.93923 43.2338 4.24949 42.2095C3.56429 41.1919 3.208 39.991 3.208 38.568H2.208H1.208C1.208 40.345 1.65971 41.9441 2.59051 43.3265C3.51677 44.7021 4.87849 45.8059 6.61234 46.6642L7.056 45.768ZM2.208 38.568H3.208C3.208 36.1274 4.07956 34.3037 5.79617 32.9747L5.184 32.184L4.57183 31.3933C2.32044 33.1363 1.208 35.5686 1.208 38.568H2.208ZM5.184 32.184L5.79004 32.9794C7.56748 31.6252 10.1852 30.88 13.776 30.88V29.88V28.88C9.94282 28.88 6.83252 29.6708 4.57796 31.3886L5.184 32.184ZM13.776 29.88V30.88C16.5509 30.88 18.9039 31.3272 20.8617 32.1875L21.264 31.272L21.6663 30.3565C19.4001 29.3608 16.7611 28.88 13.776 28.88V29.88ZM21.264 31.272L20.8822 32.1963C22.2908 32.7781 22.472 33.2911 22.472 33.528H23.472H24.472C24.472 31.9729 23.1812 30.9819 21.6458 30.3477L21.264 31.272ZM44.3839 44.712L43.9664 45.6207L43.9748 45.6245L44.3839 44.712ZM34.3039 46.68L35.0585 47.3362L35.0613 47.3329L34.3039 46.68ZM34.5919 58.248L33.8628 58.9325L33.8699 58.9399L34.5919 58.248ZM44.5279 59.88L44.9184 60.8006L44.9218 60.7991L44.5279 59.88ZM45.7279 59.304L45.9704 60.2741L46.0363 60.2577L46.0993 60.2325L45.7279 59.304ZM47.1679 59.64L46.4205 60.3044L46.44 60.3263L46.4608 60.3471L47.1679 59.64ZM45.5839 62.568L45.9454 63.5004L45.9523 63.4977L45.9591 63.4949L45.5839 62.568ZM31.8079 60.216L31.0843 60.9062L31.085 60.907L31.8079 60.216ZM31.2799 45L32.0471 45.6414L32.0474 45.6411L31.2799 45ZM45.8719 42.072L45.4247 42.9664L45.4353 42.9717L45.4461 42.9768L45.8719 42.072ZM47.5039 43.944H46.5039C46.5039 44.0454 46.4779 44.1318 46.3648 44.2449L47.0719 44.952L47.779 45.6591C48.2419 45.1962 48.5039 44.6106 48.5039 43.944H47.5039ZM47.0719 44.952L46.3648 44.2449C46.3246 44.2851 46.2575 44.336 46.0639 44.336V45.336V46.336C46.7022 46.336 47.3072 46.1309 47.779 45.6591L47.0719 44.952ZM46.0639 45.336V44.336C46.1575 44.336 46.1947 44.3545 46.1175 44.3332C46.0614 44.3177 45.9737 44.2892 45.8481 44.2426C45.5979 44.1497 45.2487 44.0038 44.7929 43.7995L44.3839 44.712L43.9748 45.6245C44.4471 45.8362 44.8418 46.0023 45.1517 46.1174C45.306 46.1748 45.4524 46.2243 45.5843 46.2608C45.6951 46.2915 45.8743 46.336 46.0639 46.336V45.336ZM44.3839 44.712L44.8014 43.8033C43.4791 43.1958 42.0558 42.896 40.5439 42.896V43.896V44.896C41.784 44.896 42.9206 45.1402 43.9664 45.6207L44.3839 44.712ZM40.5439 43.896V42.896C37.7078 42.896 35.3459 43.9397 33.5465 46.0271L34.3039 46.68L35.0613 47.3329C36.4618 45.7083 38.26 44.896 40.5439 44.896V43.896ZM34.3039 46.68L33.5493 46.0238C32.0925 47.6991 31.3839 49.7647 31.3839 52.152H32.3839H33.3839C33.3839 50.1873 33.9553 48.6049 35.0585 47.3362L34.3039 46.68ZM32.3839 52.152H31.3839C31.3839 54.8586 32.189 57.1494 33.8628 58.9324L34.5919 58.248L35.3209 57.5636C34.0508 56.2106 33.3839 54.4374 33.3839 52.152H32.3839ZM34.5919 58.248L33.8699 58.9399C35.5657 60.7095 37.8468 61.552 40.5919 61.552V60.552V59.552C38.281 59.552 36.562 58.8585 35.3139 57.5561L34.5919 58.248ZM40.5919 60.552V61.552C42.2479 61.552 43.7025 61.3164 44.9184 60.8006L44.5279 59.88L44.1373 58.9594C43.2413 59.3396 42.0719 59.552 40.5919 59.552V60.552ZM44.5279 59.88L44.9218 60.7991C45.1828 60.6873 45.4409 60.558 45.696 60.4122L45.1999 59.544L44.7037 58.6758C44.5109 58.786 44.321 58.8807 44.134 58.9609L44.5279 59.88ZM45.1999 59.544L45.696 60.4122C45.7895 60.3588 45.8612 60.3222 45.9137 60.2984C45.9694 60.273 45.9854 60.2704 45.9704 60.2741L45.7279 59.304L45.4853 58.3339C45.2198 58.4003 44.9467 58.5369 44.7037 58.6758L45.1999 59.544ZM45.7279 59.304L46.0993 60.2325C46.1503 60.2121 46.1846 60.208 46.2079 60.208V59.208V58.208C45.9111 58.208 45.6254 58.2679 45.3565 58.3755L45.7279 59.304ZM46.2079 59.208V60.208C46.3051 60.208 46.3535 60.229 46.4205 60.3044L47.1679 59.64L47.9153 58.9756C47.4703 58.475 46.8786 58.208 46.2079 58.208V59.208ZM47.1679 59.64L46.4608 60.3471C46.5739 60.4602 46.5999 60.5466 46.5999 60.648H47.5999H48.5999C48.5999 59.9814 48.3379 59.3958 47.875 58.9329L47.1679 59.64ZM47.5999 60.648H46.5999C46.5999 60.6748 46.5989 60.7723 46.4062 60.9559C46.1979 61.1543 45.8223 61.3927 45.2087 61.6411L45.5839 62.568L45.9591 63.4949C46.6894 63.1993 47.3219 62.8457 47.7855 62.4041C48.2648 61.9477 48.5999 61.3572 48.5999 60.648H47.5999ZM45.5839 62.568L45.2223 61.6356C43.779 62.1953 42.2067 62.48 40.4959 62.48V63.48V64.48C42.433 64.48 44.2527 64.1567 45.9454 63.5004L45.5839 62.568ZM40.4959 63.48V62.48C36.9889 62.48 34.3797 61.4593 32.5307 59.525L31.8079 60.216L31.085 60.907C33.396 63.3247 36.5789 64.48 40.4959 64.48V63.48ZM31.8079 60.216L32.5315 59.5258C30.7511 57.6592 29.8319 55.2316 29.8319 52.152H28.8319H27.8319C27.8319 55.6644 28.8967 58.6128 31.0843 60.9062L31.8079 60.216ZM28.8319 52.152H29.8319C29.8319 49.5437 30.5818 47.394 32.0471 45.6414L31.2799 45L30.5127 44.3586C28.714 46.51 27.8319 49.1283 27.8319 52.152H28.8319ZM31.2799 45L32.0474 45.6411C34.1086 43.1734 36.9022 41.92 40.5439 41.92V40.92V39.92C36.3776 39.92 32.9952 41.3866 30.5124 44.3589L31.2799 45ZM40.5439 40.92V41.92C42.4315 41.92 44.0497 42.279 45.4247 42.9664L45.8719 42.072L46.3191 41.1776C44.622 40.329 42.6882 39.92 40.5439 39.92V40.92ZM45.8719 42.072L45.4461 42.9768C46.4251 43.4375 46.5039 43.8052 46.5039 43.944H47.5039H48.5039C48.5039 42.6108 47.4947 41.7305 46.2977 41.1672L45.8719 42.072ZM53.2496 30.408L53.9223 31.1479L53.9399 31.1319L53.9567 31.1151L53.2496 30.408ZM55.7456 30.408L55.0385 31.1151L55.0553 31.1319L55.073 31.1479L55.7456 30.408ZM56.2736 45H55.2736L57.1574 45.4679L56.2736 45ZM70.1456 42.888L70.81 42.1406L70.803 42.1344L70.1456 42.888ZM72.2096 63L72.8823 63.7399L72.8999 63.7239L72.9167 63.7071L72.2096 63ZM69.7136 63L68.9737 63.6727L69.0057 63.7079L69.041 63.7399L69.7136 63ZM67.4576 45.384L66.7744 46.1143L66.781 46.1203L67.4576 45.384ZM57.5216 47.304L56.6457 46.8216L56.6419 46.8284L56.6383 46.8353L57.5216 47.304ZM55.7456 63L56.4183 63.7399L56.4359 63.7239L56.4527 63.7071L55.7456 63ZM53.2496 63L52.5425 63.7071L52.5593 63.7239L52.577 63.7399L53.2496 63ZM52.7216 61.8H53.7216V31.608H52.7216H51.7216V61.8H52.7216ZM52.7216 31.608H53.7216C53.7216 31.4068 53.7809 31.2765 53.9223 31.1479L53.2496 30.408L52.577 29.6681C52.0143 30.1795 51.7216 30.8492 51.7216 31.608H52.7216ZM53.2496 30.408L53.9567 31.1151C54.129 30.9429 54.2936 30.88 54.4976 30.88V29.88V28.88C53.7416 28.88 53.0743 29.1691 52.5425 29.7009L53.2496 30.408ZM54.4976 29.88V30.88C54.7016 30.88 54.8663 30.9429 55.0385 31.1151L55.7456 30.408L56.4527 29.7009C55.921 29.1691 55.2536 28.88 54.4976 28.88V29.88ZM55.7456 30.408L55.073 31.1479C55.2143 31.2765 55.2736 31.4068 55.2736 31.608H56.2736H57.2736C57.2736 30.8492 56.9809 30.1795 56.4183 29.6681L55.7456 30.408ZM56.2736 31.608H55.2736V45H56.2736H57.2736V31.608H56.2736ZM56.2736 45L57.1574 45.4679C58.3903 43.1391 60.5337 41.92 63.8576 41.92V40.92V39.92C59.9495 39.92 57.037 41.4209 55.3898 44.5321L56.2736 45ZM63.8576 40.92V41.92C66.3885 41.92 68.2214 42.5364 69.4883 43.6416L70.1456 42.888L70.803 42.1344C69.0619 40.6156 66.7028 39.92 63.8576 39.92V40.92ZM70.1456 42.888L69.4813 43.6354C70.9175 44.912 71.7376 47.0008 71.7376 50.136H72.7376H73.7376C73.7376 46.6792 72.8298 43.936 70.81 42.1406L70.1456 42.888ZM72.7376 50.136H71.7376V61.8H72.7376H73.7376V50.136H72.7376ZM72.7376 61.8H71.7376C71.7376 61.9521 71.6898 62.1056 71.5025 62.2929L72.2096 63L72.9167 63.7071C73.4334 63.1904 73.7376 62.5439 73.7376 61.8H72.7376ZM72.2096 63L71.537 62.2601C71.3709 62.4111 71.1953 62.48 70.9616 62.48V63.48V64.48C71.6879 64.48 72.3444 64.2289 72.8823 63.7399L72.2096 63ZM70.9616 63.48V62.48C70.7279 62.48 70.5524 62.4111 70.3863 62.2601L69.7136 63L69.041 63.7399C69.5789 64.2289 70.2353 64.48 70.9616 64.48V63.48ZM69.7136 63L70.4536 62.3273C70.2896 62.1469 70.2336 61.9829 70.2336 61.8H69.2336H68.2336C68.2336 62.5131 68.4977 63.1491 68.9737 63.6727L69.7136 63ZM69.2336 61.8H70.2336V50.904H69.2336H68.2336V61.8H69.2336ZM69.2336 50.904H70.2336C70.2336 48.1986 69.6213 46.0141 68.1343 44.6477L67.4576 45.384L66.781 46.1203C67.662 46.9299 68.2336 48.4254 68.2336 50.904H69.2336ZM67.4576 45.384L68.1408 44.6537C66.9046 43.4973 65.2011 42.992 63.1856 42.992V43.992V44.992C64.8822 44.992 66.0267 45.4147 66.7745 46.1143L67.4576 45.384ZM63.1856 43.992V42.992C61.7588 42.992 60.4664 43.3009 59.3448 43.9568C58.2225 44.613 57.3273 45.584 56.6457 46.8216L57.5216 47.304L58.3976 47.7864C58.932 46.816 59.5887 46.131 60.3544 45.6832C61.1209 45.2351 62.0525 44.992 63.1856 44.992V43.992ZM57.5216 47.304L56.6383 46.8353C55.7122 48.5806 55.2736 50.6544 55.2736 53.016H56.2736H57.2736C57.2736 50.8975 57.6671 49.1634 58.405 47.7727L57.5216 47.304ZM56.2736 53.016H55.2736V61.8H56.2736H57.2736V53.016H56.2736ZM56.2736 61.8H55.2736C55.2736 61.9521 55.2258 62.1056 55.0385 62.2929L55.7456 63L56.4527 63.7071C56.9694 63.1904 57.2736 62.5439 57.2736 61.8H56.2736ZM55.7456 63L55.073 62.2601C54.9069 62.4111 54.7313 62.48 54.4976 62.48V63.48V64.48C55.2239 64.48 55.8804 64.2289 56.4183 63.7399L55.7456 63ZM54.4976 63.48V62.48C54.2639 62.48 54.0884 62.4111 53.9223 62.2601L53.2496 63L52.577 63.7399C53.1149 64.2289 53.7713 64.48 54.4976 64.48V63.48ZM53.2496 63L53.9567 62.2929C53.7694 62.1056 53.7216 61.9521 53.7216 61.8H52.7216H51.7216C51.7216 62.5439 52.0258 63.1904 52.5425 63.7071L53.2496 63ZM97.6838 59.016L96.9363 59.6804L96.9363 59.6804L97.6838 59.016ZM96.2918 61.896L96.7558 62.7819L96.7673 62.7757L96.2918 61.896ZM80.8358 59.928L81.582 59.2624L81.5766 59.2562L81.571 59.2502L80.8358 59.928ZM80.8838 44.088L80.1494 43.4093L80.1489 43.4097L80.8838 44.088ZM96.3398 43.944L95.6041 44.6213L95.609 44.6267L95.6141 44.6321L96.3398 43.944ZM98.4518 52.536L97.6884 51.8901L97.6733 51.9078L97.6591 51.9263L98.4518 52.536ZM81.6518 53.16V52.16H80.5486L80.6566 53.2579L81.6518 53.16ZM83.5238 57.96L82.7604 58.6059L82.7635 58.6097L83.5238 57.96ZM94.7558 59.448L95.2183 60.3346L95.2236 60.3318L94.7558 59.448ZM81.6518 50.616L80.6552 50.533L80.565 51.616H81.6518V50.616ZM95.5718 50.616V51.616H96.6213L96.5706 50.5677L95.5718 50.616ZM93.7958 45.864L93.0558 46.5367L93.0594 46.5406L93.7958 45.864ZM83.3798 46.056L84.1283 46.719L84.1343 46.7123L84.1401 46.7055L83.3798 46.056ZM96.7238 58.584V59.584C96.821 59.584 96.8694 59.605 96.9363 59.6804L97.6838 59.016L98.4312 58.3516C97.9861 57.851 97.3945 57.584 96.7238 57.584V58.584ZM97.6838 59.016L96.9363 59.6804C97.0303 59.786 97.0678 59.8859 97.0678 60.024H98.0678H99.0678C99.0678 59.3941 98.8492 58.822 98.4312 58.3516L97.6838 59.016ZM98.0678 60.024H97.0678C97.0678 59.9822 97.0913 60.0563 96.8983 60.2597C96.704 60.4645 96.3616 60.7215 95.8162 61.0163L96.2918 61.896L96.7673 62.7757C97.4059 62.4305 97.9515 62.0555 98.3492 61.6363C98.7482 61.2157 99.0678 60.6738 99.0678 60.024H98.0678ZM96.2918 61.896L95.8277 61.0102C93.972 61.9822 91.8466 62.48 89.4278 62.48V63.48V64.48C92.1289 64.48 94.5795 63.9218 96.7558 62.7818L96.2918 61.896ZM89.4278 63.48V62.48C86.0527 62.48 83.4768 61.3868 81.582 59.2624L80.8358 59.928L80.0895 60.5936C82.4187 63.2052 85.5708 64.48 89.4278 64.48V63.48ZM80.8358 59.928L81.571 59.2502C79.8837 57.4199 79.0038 55.0057 79.0038 51.912H78.0038H77.0038C77.0038 55.4103 78.0118 58.3401 80.1005 60.6058L80.8358 59.928ZM78.0038 51.912H79.0038C79.0038 48.998 79.888 46.6411 81.6186 44.7663L80.8838 44.088L80.1489 43.4097C78.0395 45.6949 77.0038 48.554 77.0038 51.912H78.0038ZM80.8838 44.088L81.6181 44.7667C83.3505 42.8924 85.7066 41.92 88.8038 41.92V40.92V39.92C85.2449 39.92 82.321 41.0596 80.1494 43.4093L80.8838 44.088ZM88.8038 40.92V41.92C91.7401 41.92 93.9676 42.8437 95.6041 44.6213L96.3398 43.944L97.0754 43.2667C94.9999 41.0123 92.2034 39.92 88.8038 39.92V40.92ZM96.3398 43.944L95.6141 44.6321C97.1774 46.2806 97.9798 48.3765 97.9798 51H98.9798H99.9798C99.9798 47.9275 99.0221 45.3194 97.0654 43.2559L96.3398 43.944ZM98.9798 51H97.9798C97.9798 51.4007 97.8697 51.6757 97.6884 51.8901L98.4518 52.536L99.2151 53.1819C99.7378 52.5643 99.9798 51.8153 99.9798 51H98.9798ZM98.4518 52.536L97.6591 51.9263C97.5487 52.0699 97.4081 52.16 97.1078 52.16V53.16V54.16C97.9594 54.16 98.7148 53.8341 99.2444 53.1457L98.4518 52.536ZM97.1078 53.16V52.16H81.6518V53.16V54.16H97.1078V53.16ZM81.6518 53.16L80.6566 53.2579C80.8644 55.3708 81.5489 57.1742 82.7604 58.6059L83.5238 57.96L84.2871 57.3141C83.3866 56.2498 82.8231 54.8532 82.6469 53.0621L81.6518 53.16ZM83.5238 57.96L82.7635 58.6097C84.4764 60.6141 86.7817 61.6 89.5718 61.6V60.6V59.6C87.3058 59.6 85.5791 58.8259 84.284 57.3103L83.5238 57.96ZM89.5718 60.6V61.6C91.6856 61.6 93.5782 61.1903 95.2183 60.3346L94.7558 59.448L94.2932 58.5614C92.9893 59.2417 91.4259 59.6 89.5718 59.6V60.6ZM94.7558 59.448L95.2236 60.3318C95.759 60.0484 96.1703 59.8453 96.4657 59.7156C96.6142 59.6505 96.7185 59.6104 96.7858 59.5884C96.8788 59.558 96.8352 59.584 96.7238 59.584V58.584V57.584C96.5003 57.584 96.2907 57.646 96.1637 57.6876C96.011 57.7376 95.8413 57.8055 95.6618 57.8844C95.3012 58.0427 94.8405 58.2716 94.2879 58.5642L94.7558 59.448ZM81.6518 50.616V51.616H95.5718V50.616V49.616H81.6518V50.616ZM95.5718 50.616L96.5706 50.5677C96.466 48.4068 95.813 46.5813 94.5321 45.1874L93.7958 45.864L93.0594 46.5406C93.9545 47.5147 94.4855 48.8572 94.5729 50.6643L95.5718 50.616ZM93.7958 45.864L94.5357 45.1913C93.0505 43.5576 91.1094 42.752 88.8038 42.752V43.752V44.752C90.5941 44.752 91.981 45.3544 93.0558 46.5367L93.7958 45.864ZM88.8038 43.752V42.752C86.2531 42.752 84.1493 43.6154 82.6194 45.4065L83.3798 46.056L84.1401 46.7055C85.2342 45.4246 86.7464 44.752 88.8038 44.752V43.752ZM83.3798 46.056L82.6312 45.393C81.4596 46.7156 80.8279 48.4601 80.6552 50.533L81.6518 50.616L82.6483 50.699C82.7956 48.9319 83.3159 47.6364 84.1283 46.719L83.3798 46.056ZM119.064 60.072V61.072H120.064V60.072H119.064ZM119.064 44.76H120.064V44.062L119.408 43.8213L119.064 44.76ZM108.216 47.016L109.036 47.5882L109.044 47.5766L108.216 47.016ZM108.696 57.576L107.971 58.2657L107.977 58.271L107.982 58.2762L108.696 57.576ZM105.384 45L106.182 45.6021L106.19 45.591L105.384 45ZM119.064 41.736L118.747 42.6847L120.064 43.1234V41.736H119.064ZM119.544 30.408L120.251 31.1151L120.251 31.1151L119.544 30.408ZM122.04 30.408L121.3 31.0807L121.332 31.1159L121.367 31.1479L122.04 30.408ZM121.992 62.52L121.351 61.7518L121.351 61.7518L121.992 62.52ZM115.944 60.072V61.072H119.064V60.072V59.072H115.944V60.072ZM119.064 60.072H120.064V44.76H119.064H118.064V60.072H119.064ZM119.064 44.76L119.408 43.8213C117.737 43.2074 116.053 42.896 114.36 42.896V43.896V44.896C115.802 44.896 117.254 45.1606 118.719 45.6987L119.064 44.76ZM114.36 43.896V42.896C111.367 42.896 108.996 44.0785 107.388 46.4554L108.216 47.016L109.044 47.5766C110.251 45.7935 111.976 44.896 114.36 44.896V43.896ZM108.216 47.016L107.395 46.4438C106.293 48.0241 105.776 49.9649 105.776 52.2H106.776H107.776C107.776 50.2751 108.218 48.7599 109.036 47.5882L108.216 47.016ZM106.776 52.2H105.776C105.776 54.6404 106.479 56.6986 107.971 58.2657L108.696 57.576L109.42 56.8863C108.352 55.7654 107.776 54.2396 107.776 52.2H106.776ZM108.696 57.576L107.982 58.2762C109.863 60.1946 112.578 61.072 115.944 61.072V60.072V59.072C112.909 59.072 110.792 58.2854 109.41 56.8758L108.696 57.576ZM120.6 63V62H115.608V63V64H120.6V63ZM115.608 63V62C111.587 62 108.678 60.9442 106.715 58.9809L106.008 59.688L105.301 60.3951C107.753 62.8478 111.244 64 115.608 64V63ZM106.008 59.688L106.715 58.9809C105.043 57.309 104.176 55.0981 104.176 52.248H103.176H102.176C102.176 55.5419 103.196 58.291 105.301 60.3951L106.008 59.688ZM103.176 52.248H104.176C104.176 49.5452 104.863 47.3512 106.182 45.6021L105.384 45L104.585 44.3979C102.96 46.5528 102.176 49.1908 102.176 52.248H103.176ZM105.384 45L106.19 45.591C107.992 43.1311 110.6 41.872 114.168 41.872V40.872V39.872C110.055 39.872 106.807 41.3649 104.577 44.409L105.384 45ZM114.168 40.872V41.872C115.578 41.872 117.103 42.1365 118.747 42.6847L119.064 41.736L119.38 40.7873C117.568 40.1835 115.829 39.872 114.168 39.872V40.872ZM119.064 41.736H120.064V31.608H119.064H118.064V41.736H119.064ZM119.064 31.608H120.064C120.064 31.3754 120.131 31.2353 120.251 31.1151L119.544 30.408L118.837 29.7009C118.317 30.2207 118.064 30.8806 118.064 31.608H119.064ZM119.544 30.408L120.251 31.1151C120.409 30.9565 120.584 30.88 120.84 30.88V29.88V28.88C120.071 28.88 119.382 29.1555 118.837 29.7009L119.544 30.408ZM120.84 29.88V30.88C121.041 30.88 121.171 30.9393 121.3 31.0807L122.04 30.408L122.78 29.7353C122.268 29.1727 121.598 28.88 120.84 28.88V29.88ZM122.04 30.408L121.367 31.1479C121.508 31.2765 121.568 31.4068 121.568 31.608H122.568H123.568C123.568 30.8492 123.275 30.1795 122.712 29.6681L122.04 30.408ZM122.568 31.608H121.568V61.128H122.568H123.568V31.608H122.568ZM122.568 61.128H121.568C121.568 61.5097 121.458 61.6627 121.351 61.7518L121.992 62.52L122.632 63.2882C123.293 62.7373 123.568 61.9623 123.568 61.128H122.568ZM121.992 62.52L121.351 61.7518C121.163 61.9084 120.932 62 120.6 62V63V64C121.355 64 122.052 63.7716 122.632 63.2882L121.992 62.52ZM129.694 41.4L129.021 40.6601L129.003 40.6761L128.987 40.6929L129.694 41.4ZM132.19 41.4L131.483 42.1071L131.499 42.1239L131.517 42.1399L132.19 41.4ZM133.63 57.768L134.504 57.2824L134.503 57.2802L133.63 57.768ZM144.766 57.768L143.894 57.2777L143.892 57.2824L144.766 57.768ZM147.55 59.976L146.723 59.4137L146.718 59.4201L146.714 59.4266L147.55 59.976ZM130.798 59.976L129.958 60.5193L129.965 60.5303L129.973 60.5411L130.798 59.976ZM129.214 53.832H130.214V42.6H129.214H128.214V53.832H129.214ZM129.214 42.6H130.214C130.214 42.3674 130.281 42.2273 130.401 42.1071L129.694 41.4L128.987 40.6929C128.467 41.2127 128.214 41.8726 128.214 42.6H129.214ZM129.694 41.4L130.366 42.1399C130.52 42.0007 130.706 41.92 130.99 41.92V40.92V39.92C130.25 39.92 129.572 40.1593 129.021 40.6601L129.694 41.4ZM130.99 40.92V41.92C131.222 41.92 131.362 41.9869 131.483 42.1071L132.19 41.4L132.897 40.6929C132.377 40.1731 131.717 39.92 130.99 39.92V40.92ZM132.19 41.4L131.517 42.1399C131.658 42.2685 131.718 42.3988 131.718 42.6H132.718H133.718C133.718 41.8412 133.425 41.1715 132.862 40.6601L132.19 41.4ZM132.718 42.6H131.718V53.544H132.718H133.718V42.6H132.718ZM132.718 53.544H131.718C131.718 55.38 132.039 56.9722 132.757 58.2558L133.63 57.768L134.503 57.2802C134.004 56.3878 133.718 55.164 133.718 53.544H132.718ZM133.63 57.768L132.756 58.2536C133.958 60.4183 136.243 61.36 139.198 61.36V60.36V59.36C136.648 59.36 135.221 58.5737 134.504 57.2824L133.63 57.768ZM139.198 60.36V61.36C142.152 61.36 144.437 60.4183 145.64 58.2536L144.766 57.768L143.892 57.2824C143.174 58.5737 141.747 59.36 139.198 59.36V60.36ZM144.766 57.768L145.637 58.2583C146.33 57.026 146.63 55.425 146.63 53.544H145.63H144.63C144.63 55.247 144.353 56.462 143.894 57.2777L144.766 57.768ZM145.63 53.544H146.63V42.6H145.63H144.63V53.544H145.63ZM145.63 42.6H146.63C146.63 42.3988 146.689 42.2685 146.83 42.1399L146.158 41.4L145.485 40.6601C144.922 41.1715 144.63 41.8412 144.63 42.6H145.63ZM146.158 41.4L146.83 42.1399C146.997 41.9889 147.172 41.92 147.406 41.92V40.92V39.92C146.679 39.92 146.023 40.1711 145.485 40.6601L146.158 41.4ZM147.406 40.92V41.92C147.639 41.92 147.815 41.9889 147.981 42.1399L148.654 41.4L149.326 40.6601C148.789 40.1711 148.132 39.92 147.406 39.92V40.92ZM148.654 41.4L147.981 42.1399C148.122 42.2685 148.182 42.3988 148.182 42.6H149.182H150.182C150.182 41.8412 149.889 41.1715 149.326 40.6601L148.654 41.4ZM149.182 42.6H148.182V53.832H149.182H150.182V42.6H149.182ZM149.182 53.832H148.182C148.182 56.1852 147.669 58.0216 146.723 59.4137L147.55 59.976L148.377 60.5383C149.606 58.7304 150.182 56.4708 150.182 53.832H149.182ZM147.55 59.976L146.714 59.4266C145.437 61.3694 143.054 62.48 139.198 62.48V63.48V64.48C143.406 64.48 146.591 63.2546 148.385 60.5254L147.55 59.976ZM139.198 63.48V62.48C135.381 62.48 132.966 61.3726 131.623 59.4109L130.798 59.976L129.973 60.5411C131.829 63.2514 135.015 64.48 139.198 64.48V63.48ZM130.798 59.976L131.637 59.4327C130.711 58.0008 130.214 56.1545 130.214 53.832H129.214H128.214C128.214 56.4375 128.773 58.6872 129.958 60.5193L130.798 59.976ZM156.281 30.408L156.954 31.1479L156.971 31.1319L156.988 31.1151L156.281 30.408ZM158.777 30.408L158.07 31.1151L158.087 31.1319L158.104 31.1479L158.777 30.408ZM158.777 63L159.45 63.7399L159.467 63.7239L159.484 63.7071L158.777 63ZM156.281 63L155.574 63.7071L155.591 63.7239L155.608 63.7399L156.281 63ZM155.753 61.8H156.753V31.608H155.753H154.753V61.8H155.753ZM155.753 31.608H156.753C156.753 31.4068 156.812 31.2765 156.954 31.1479L156.281 30.408L155.608 29.6681C155.046 30.1795 154.753 30.8492 154.753 31.608H155.753ZM156.281 30.408L156.988 31.1151C157.16 30.9429 157.325 30.88 157.529 30.88V29.88V28.88C156.773 28.88 156.106 29.1691 155.574 29.7009L156.281 30.408ZM157.529 29.88V30.88C157.733 30.88 157.898 30.9429 158.07 31.1151L158.777 30.408L159.484 29.7009C158.952 29.1691 158.285 28.88 157.529 28.88V29.88ZM158.777 30.408L158.104 31.1479C158.246 31.2765 158.305 31.4068 158.305 31.608H159.305H160.305C160.305 30.8492 160.012 30.1795 159.45 29.6681L158.777 30.408ZM159.305 31.608H158.305V61.8H159.305H160.305V31.608H159.305ZM159.305 61.8H158.305C158.305 61.9521 158.257 62.1056 158.07 62.2929L158.777 63L159.484 63.7071C160.001 63.1904 160.305 62.5439 160.305 61.8H159.305ZM158.777 63L158.104 62.2601C157.938 62.4111 157.763 62.48 157.529 62.48V63.48V64.48C158.255 64.48 158.912 64.2289 159.45 63.7399L158.777 63ZM157.529 63.48V62.48C157.295 62.48 157.12 62.4111 156.954 62.2601L156.281 63L155.608 63.7399C156.146 64.2289 156.803 64.48 157.529 64.48V63.48ZM156.281 63L156.988 62.2929C156.801 62.1056 156.753 61.9521 156.753 61.8H155.753H154.753C154.753 62.5439 155.057 63.1904 155.574 63.7071L156.281 63ZM184.59 59.016L183.843 59.6804L183.843 59.6804L184.59 59.016ZM183.198 61.896L183.662 62.7819L183.674 62.7757L183.198 61.896ZM167.742 59.928L168.488 59.2624L168.483 59.2562L168.477 59.2502L167.742 59.928ZM167.79 44.088L167.056 43.4093L167.055 43.4097L167.79 44.088ZM183.246 43.944L182.51 44.6213L182.515 44.6267L182.52 44.6321L183.246 43.944ZM185.358 52.536L184.595 51.8901L184.58 51.9078L184.565 51.9263L185.358 52.536ZM168.558 53.16V52.16H167.455L167.563 53.2579L168.558 53.16ZM170.43 57.96L169.667 58.6059L169.67 58.6097L170.43 57.96ZM181.662 59.448L182.125 60.3346L182.13 60.3318L181.662 59.448ZM168.558 50.616L167.561 50.533L167.471 51.616H168.558V50.616ZM182.478 50.616V51.616H183.528L183.477 50.5677L182.478 50.616ZM180.702 45.864L179.962 46.5367L179.966 46.5406L180.702 45.864ZM170.286 46.056L171.035 46.719L171.041 46.7123L171.046 46.7055L170.286 46.056ZM183.63 58.584V59.584C183.727 59.584 183.776 59.605 183.843 59.6804L184.59 59.016L185.337 58.3516C184.892 57.851 184.301 57.584 183.63 57.584V58.584ZM184.59 59.016L183.843 59.6804C183.937 59.786 183.974 59.8859 183.974 60.024H184.974H185.974C185.974 59.3941 185.755 58.822 185.337 58.3516L184.59 59.016ZM184.974 60.024H183.974C183.974 59.9822 183.998 60.0563 183.805 60.2597C183.61 60.4645 183.268 60.7215 182.722 61.0163L183.198 61.896L183.674 62.7757C184.312 62.4305 184.858 62.0555 185.255 61.6363C185.654 61.2157 185.974 60.6738 185.974 60.024H184.974ZM183.198 61.896L182.734 61.0102C180.878 61.9822 178.753 62.48 176.334 62.48V63.48V64.48C179.035 64.48 181.486 63.9218 183.662 62.7818L183.198 61.896ZM176.334 63.48V62.48C172.959 62.48 170.383 61.3868 168.488 59.2624L167.742 59.928L166.996 60.5936C169.325 63.2052 172.477 64.48 176.334 64.48V63.48ZM167.742 59.928L168.477 59.2502C166.79 57.4199 165.91 55.0057 165.91 51.912H164.91H163.91C163.91 55.4103 164.918 58.3401 167.007 60.6058L167.742 59.928ZM164.91 51.912H165.91C165.91 48.998 166.794 46.6411 168.525 44.7663L167.79 44.088L167.055 43.4097C164.946 45.6949 163.91 48.554 163.91 51.912H164.91ZM167.79 44.088L168.524 44.7667C170.257 42.8924 172.613 41.92 175.71 41.92V40.92V39.92C172.151 39.92 169.227 41.0596 167.056 43.4093L167.79 44.088ZM175.71 40.92V41.92C178.646 41.92 180.874 42.8437 182.51 44.6213L183.246 43.944L183.982 43.2667C181.906 41.0123 179.11 39.92 175.71 39.92V40.92ZM183.246 43.944L182.52 44.6321C184.084 46.2806 184.886 48.3765 184.886 51H185.886H186.886C186.886 47.9275 185.928 45.3194 183.972 43.2559L183.246 43.944ZM185.886 51H184.886C184.886 51.4007 184.776 51.6757 184.595 51.8901L185.358 52.536L186.121 53.1819C186.644 52.5643 186.886 51.8153 186.886 51H185.886ZM185.358 52.536L184.565 51.9263C184.455 52.0699 184.314 52.16 184.014 52.16V53.16V54.16C184.866 54.16 185.621 53.8341 186.151 53.1457L185.358 52.536ZM184.014 53.16V52.16H168.558V53.16V54.16H184.014V53.16ZM168.558 53.16L167.563 53.2579C167.771 55.3708 168.455 57.1742 169.667 58.6059L170.43 57.96L171.193 57.3141C170.293 56.2498 169.729 54.8532 169.553 53.0621L168.558 53.16ZM170.43 57.96L169.67 58.6097C171.383 60.6141 173.688 61.6 176.478 61.6V60.6V59.6C174.212 59.6 172.485 58.8259 171.19 57.3103L170.43 57.96ZM176.478 60.6V61.6C178.592 61.6 180.484 61.1903 182.125 60.3346L181.662 59.448L181.199 58.5614C179.896 59.2417 178.332 59.6 176.478 59.6V60.6ZM181.662 59.448L182.13 60.3318C182.665 60.0484 183.077 59.8453 183.372 59.7156C183.52 59.6505 183.625 59.6104 183.692 59.5884C183.785 59.558 183.741 59.584 183.63 59.584V58.584V57.584C183.407 57.584 183.197 57.646 183.07 57.6876C182.917 57.7376 182.748 57.8055 182.568 57.8844C182.207 58.0427 181.747 58.2716 181.194 58.5642L181.662 59.448ZM168.558 50.616V51.616H182.478V50.616V49.616H168.558V50.616ZM182.478 50.616L183.477 50.5677C183.372 48.4068 182.719 46.5813 181.438 45.1874L180.702 45.864L179.966 46.5406C180.861 47.5147 181.392 48.8572 181.479 50.6643L182.478 50.616ZM180.702 45.864L181.442 45.1913C179.957 43.5576 178.016 42.752 175.71 42.752V43.752V44.752C177.5 44.752 178.887 45.3544 179.962 46.5367L180.702 45.864ZM175.71 43.752V42.752C173.159 42.752 171.056 43.6154 169.526 45.4065L170.286 46.056L171.046 46.7055C172.14 45.4246 173.653 44.752 175.71 44.752V43.752ZM170.286 46.056L169.537 45.393C168.366 46.7156 167.734 48.4601 167.561 50.533L168.558 50.616L169.555 50.699C169.702 48.9319 170.222 47.6364 171.035 46.719L170.286 46.056ZM205.01 41.928L204.473 42.7717L204.483 42.7776L205.01 41.928ZM202.994 44.856L202.494 45.7222L202.514 45.7334L202.534 45.7438L202.994 44.856ZM196.562 46.056L195.762 45.456L195.758 45.4616L196.562 46.056ZM194.402 63L195.075 63.7399L195.092 63.7239L195.109 63.7071L194.402 63ZM191.906 63L191.199 63.7071L191.216 63.7239L191.233 63.7399L191.906 63ZM194.402 41.4L193.729 42.1399L193.729 42.1399L194.402 41.4ZM194.93 44.424H193.93L195.832 44.8563L194.93 44.424ZM201.026 40.92V41.92C202.488 41.92 203.617 42.2266 204.473 42.7717L205.01 41.928L205.547 41.0843C204.291 40.2853 202.764 39.92 201.026 39.92V40.92ZM205.01 41.928L204.483 42.7776C205.27 43.2664 205.402 43.6543 205.402 43.896H206.402H207.402C207.402 42.6657 206.606 41.7416 205.537 41.0784L205.01 41.928ZM206.402 43.896H205.402C205.402 44.1286 205.335 44.2687 205.215 44.3889L205.922 45.096L206.629 45.8031C207.149 45.2833 207.402 44.6234 207.402 43.896H206.402ZM205.922 45.096L205.215 44.3889C205.134 44.4697 205.03 44.528 204.818 44.528V45.528V46.528C205.502 46.528 206.134 46.2983 206.629 45.8031L205.922 45.096ZM204.818 45.528V44.528C204.821 44.528 204.714 44.5212 204.444 44.4217C204.193 44.3293 203.866 44.1815 203.454 43.9682L202.994 44.856L202.534 45.7438C202.986 45.9785 203.395 46.1667 203.752 46.2983C204.09 46.4228 204.463 46.528 204.818 46.528V45.528ZM202.994 44.856L203.494 43.9898C202.527 43.4322 201.508 43.136 200.45 43.136V44.136V45.136C201.119 45.136 201.797 45.3198 202.494 45.7222L202.994 44.856ZM200.45 44.136V43.136C198.511 43.136 196.915 43.9183 195.762 45.456L196.562 46.056L197.362 46.656C198.129 45.6337 199.125 45.136 200.45 45.136V44.136ZM196.562 46.056L195.758 45.4616C194.493 47.1728 193.93 49.5281 193.93 52.392H194.93H195.93C195.93 49.7518 196.455 47.8832 197.366 46.6504L196.562 46.056ZM194.93 52.392H193.93V61.8H194.93H195.93V52.392H194.93ZM194.93 61.8H193.93C193.93 61.9521 193.882 62.1056 193.695 62.2929L194.402 63L195.109 63.7071C195.626 63.1904 195.93 62.5439 195.93 61.8H194.93ZM194.402 63L193.729 62.2601C193.563 62.4111 193.388 62.48 193.154 62.48V63.48V64.48C193.88 64.48 194.537 64.2289 195.075 63.7399L194.402 63ZM193.154 63.48V62.48C192.92 62.48 192.745 62.4111 192.579 62.2601L191.906 63L191.233 63.7399C191.771 64.2289 192.428 64.48 193.154 64.48V63.48ZM191.906 63L192.613 62.2929C192.426 62.1056 192.378 61.9521 192.378 61.8H191.378H190.378C190.378 62.5439 190.682 63.1904 191.199 63.7071L191.906 63ZM191.378 61.8H192.378V42.6H191.378H190.378V61.8H191.378ZM191.378 42.6H192.378C192.378 42.3988 192.437 42.2685 192.579 42.1399L191.906 41.4L191.233 40.6601C190.671 41.1715 190.378 41.8412 190.378 42.6H191.378ZM191.906 41.4L192.579 42.1399C192.745 41.9889 192.92 41.92 193.154 41.92V40.92V39.92C192.428 39.92 191.771 40.1711 191.233 40.6601L191.906 41.4ZM193.154 40.92V41.92C193.388 41.92 193.563 41.9889 193.729 42.1399L194.402 41.4L195.075 40.6601C194.537 40.1711 193.88 39.92 193.154 39.92V40.92ZM194.402 41.4L193.729 42.1399C193.871 42.2685 193.93 42.3988 193.93 42.6H194.93H195.93C195.93 41.8412 195.637 41.1715 195.075 40.6601L194.402 41.4ZM194.93 42.6H193.93V44.424H194.93H195.93V42.6H194.93ZM194.93 44.424L195.832 44.8563C196.314 43.8506 196.97 43.1357 197.792 42.663C198.622 42.1858 199.685 41.92 201.026 41.92V40.92V39.92C199.423 39.92 197.997 40.2382 196.796 40.929C195.586 41.6243 194.666 42.6614 194.028 43.9917L194.93 44.424Z" fill="black" mask="url(#path-6-outside-1_33_3)"/>
</svg>
