<svg width="423" height="370" viewBox="0 0 423 370" fill="none" xmlns="http://www.w3.org/2000/svg">
<path d="M0.615967 264.732H102.23V295.654H73.079V369.969H30.737V295.654H0.615967V264.732Z" fill="white"/>
<path d="M153.692 307.252L132.298 369.969H91.635L131.516 264.732H175.677L216.519 369.969H175.356L153.692 307.252Z" fill="white"/>
<path d="M206.805 264.732H308.415V295.654H279.273V369.969H236.933V295.654H206.805V264.732Z" fill="white"/>
<path d="M359.895 307.252L338.493 369.969H297.83L337.724 264.732H381.872L422.7 369.969H381.552L359.895 307.252Z" fill="white"/>
<path fill-rule="evenodd" clip-rule="evenodd" d="M361.394 71.432C357.6 63.971 352.603 56.82 346.387 50.114C332.418 35.037 312.709 22.491 289.385 13.838C265.869 5.118 239.047 0.503998 211.79 0.503998C184.533 0.503998 157.711 5.118 134.207 13.838C110.871 22.492 91.1609 35.038 77.1919 50.114C70.9799 56.819 65.967 63.98 62.174 71.445C92.5389 64.102 144.48 54.407 192.708 53.382C197.36 53.282 200.563 54.772 202.672 57.445C205.241 60.7 205.048 72.303 204.985 77.494L203.614 211.664C206.33 211.754 209.059 211.812 211.79 211.812C214.544 211.812 217.288 211.767 220.004 211.677L218.633 77.493C218.562 72.303 218.363 60.699 220.941 57.444C223.055 54.772 226.247 53.282 230.898 53.381C279.106 54.398 331.035 64.095 361.394 71.432Z" fill="white"/>
<path fill-rule="evenodd" clip-rule="evenodd" d="M367.877 88.88C323.435 78.833 293.756 76.975 264.472 75.35C238.946 73.931 238.613 83.046 241.161 100.465C241.328 101.528 241.533 102.868 241.776 104.396C250.338 155.108 261 198.748 262.832 206.155C325.062 191.93 369.941 152.491 369.941 106.161C369.941 100.327 369.236 94.547 367.877 88.88Z" fill="white"/>
<path fill-rule="evenodd" clip-rule="evenodd" d="M182.443 100.465C184.994 83.047 184.667 73.931 159.144 75.35C129.85 76.975 100.164 78.832 55.7049 88.886C54.3469 94.553 53.6329 100.326 53.6329 106.16C53.6329 126.184 61.7789 145.56 77.1929 162.207C91.1619 177.284 110.872 189.83 134.208 198.489C142.654 201.616 151.567 204.179 160.748 206.229C162.471 199.29 173.378 154.742 182.033 103.123C182.193 102.134 182.341 101.221 182.443 100.465Z" fill="white"/>
</svg>
